<svg width="287" height="297" viewBox="0 0 287 297" fill="none" xmlns="http://www.w3.org/2000/svg">
<mask id="path-1-inside-1_74_817" fill="white">
<path fill-rule="evenodd" clip-rule="evenodd" d="M179.663 1.36728C173.706 4.20669 169.188 9.98965 162.888 22.8379C147.811 53.5847 144.528 60.7027 142.039 68.0399C137.582 81.1796 134.429 87.7473 127.11 99.1389C111.729 123.077 101.372 129.435 96.5506 117.898C95.4253 115.203 92.1722 104.468 89.2228 93.7146C85.5806 80.4354 77.39 68.5114 68.6396 63.749C63.3586 60.8748 57.0802 60.4727 53.2044 62.7603C46.9456 66.4553 46.4639 71.2286 50.9508 85.1082C53.242 92.1944 53.6427 94.4892 53.9645 102.358C54.2994 110.554 54.622 112.275 57.2936 120.113C60.1438 128.475 60.2711 129.241 60.7702 141.086C61.3791 155.539 61.9772 158.155 68.4162 174.545C81.4134 207.631 80.7155 204.518 76.58 210.963C73.4094 215.904 66.6963 221.084 56.8199 226.21C46.4769 231.579 42.403 234.679 38.8685 239.873C36.3603 243.558 34.6839 247.763 35.7217 247.763C35.9799 247.763 37.5074 247.091 39.1166 246.27C42.2446 244.675 47.347 244.223 48.5584 245.434C50.9118 247.788 45.3313 251.59 32.9496 256.073C23.8492 259.367 19.8996 261.421 15.0243 265.391C11.147 268.55 6.48073 274.55 6.48073 276.377C6.48073 277.87 8.56002 278.161 11.3842 277.066C15.8936 275.317 20.7465 275.332 21.4234 277.097C22.3955 279.629 16.0939 284.052 5.5521 288.237C3.25077 289.152 1.05432 290.486 0.670279 291.203C-0.378407 293.163 -0.171563 295.287 1.11579 295.781C1.745 296.022 35.7152 296.22 76.6046 296.22C135.231 296.22 151.096 296.029 151.641 295.316C152.02 294.819 153.565 291.483 155.075 287.903C160.42 275.22 169.075 258.198 172.095 254.428C173.78 252.325 178.294 248.366 182.127 245.628C185.96 242.891 191.717 238.097 194.92 234.975C204.456 225.679 207.253 221.871 229.091 188.458C235.417 178.779 237.098 176.829 250.917 163.145C265.618 148.586 272.711 140.307 277.869 131.684C280.983 126.48 286.166 114.711 286.776 111.462C287.471 107.757 285.949 103.53 282.98 100.924C280.507 98.7527 280.063 98.6239 276.237 98.9704C273.985 99.1751 271.174 99.8419 269.993 100.454C266.717 102.148 262.37 106.828 257.587 113.811C251.389 122.862 244.975 129.468 236.509 135.527C228.429 141.308 227.067 142.055 227.067 140.702C227.067 139.329 234.219 129.016 241.493 119.904C245.076 115.413 249.266 109.555 250.802 106.885C260.956 89.2386 266.953 78.4045 268.3 75.2722C273.432 63.3454 274.704 54.3534 271.911 49.7718C268.904 44.84 262.465 43.1325 256.828 45.7716C252.674 47.7163 247.329 53.8363 242.667 61.9886C240.308 66.1125 236.55 72.4155 234.317 75.9955C229.351 83.9553 207.743 111.072 206.365 111.072C205.817 111.072 205.37 110.981 205.37 110.87C205.37 110.365 218.12 86.3333 220.636 82.0959C222.187 79.485 225.574 72.6599 228.162 66.9305C230.751 61.2003 235.246 52.1085 238.152 46.727C246.485 31.2888 248.534 25.1768 247.906 17.6111C246.753 3.70621 230.159 3.29541 219.46 16.9066C217.804 19.0149 214.229 25.0358 211.517 30.2864C208.804 35.5378 203.745 44.3902 200.275 49.9591C196.804 55.528 191.114 65.4543 187.629 72.0177C184.145 78.581 180.01 85.9855 178.441 88.4712C173.638 96.0803 171.203 93.792 173.962 84.2634C178.005 70.2978 186.474 45.8367 189.583 39.141C196.909 23.3651 198.91 13.9457 196.358 7.26234C193.889 0.797368 186.404 -1.84532 179.663 1.36728ZM190.191 6.57527C191.473 7.94001 191.975 9.44867 192.205 12.6287C192.636 18.5809 191.533 22.8697 186.845 33.4795C184.598 38.5653 181.866 45.3304 180.774 48.5126C173.525 69.6317 168.318 86.3644 167.983 89.6132C167.638 92.9502 167.816 93.6684 169.476 95.6421C172.199 98.8778 174.575 99.1006 177.641 96.4094C181.25 93.2402 183.955 89.0274 190.656 76.1394C193.924 69.8545 199.782 59.5217 203.673 53.1782C209.363 43.9027 211 41.7244 212.036 42.0534C213.399 42.4859 213.829 41.0452 212.708 39.7977C212.352 39.4013 213.953 35.595 216.495 30.7934C224.075 16.4814 232.196 9.74375 239.117 12.0277C243.806 13.5754 244.81 19.464 241.883 28.2621C241.222 30.251 237.322 38.2246 233.216 45.9813C229.111 53.738 224.689 62.688 223.389 65.8702C222.089 69.0524 217.437 78.3214 213.051 86.4686C203.305 104.568 200.655 110.758 201.682 113.012C202.754 115.365 205.761 117.098 207.856 116.572C208.875 116.316 211.101 114.205 213.086 111.611C214.986 109.127 220.156 102.538 224.574 96.9692C233.712 85.4495 239.908 76.4236 244.432 68.0399C250.719 56.3901 256.363 49.9801 260.697 49.5685C263.984 49.2561 265.556 49.6893 267.239 51.373C268.65 52.7833 269.014 53.8891 269.014 56.7589C269.014 61.2827 265.82 70.2465 261.227 78.6157C246.86 104.791 244.436 108.793 238.639 115.902C229.98 126.521 221.281 139.436 221.281 141.67C221.281 143.385 224.823 145.787 227.35 145.787C230.767 145.787 242.822 137.401 250.752 129.507C256.385 123.9 257.442 123.118 257.442 124.555C257.442 125.627 258.584 127.338 260.512 129.154C265.297 133.662 266.05 133.048 262.24 127.744C257.868 121.659 257.886 121.776 260.682 117.462C265.402 110.183 267.358 107.798 270.254 105.791C276.272 101.621 281.015 102.795 281.801 108.649C282.122 111.043 281.689 112.82 279.616 117.615C273.498 131.765 263.486 145.034 247.991 159.528C242.25 164.898 236.273 170.756 234.708 172.546C233.143 174.337 226.493 183.938 219.93 193.882C204.814 216.787 198.942 224.479 190.396 232.567C178.492 243.832 171.885 247.085 163.021 246.044C157.333 245.375 153.655 243.807 146.109 238.834C136.578 232.551 133.757 230.9 133.312 231.345C131.679 232.978 144.63 243.922 152.574 247.621C156.509 249.455 159.344 250.245 162.902 250.501C167.722 250.848 167.785 250.878 166.522 252.274C165.356 253.562 164.498 253.665 157.278 253.378C152.901 253.205 148.75 252.812 148.053 252.505C145.351 251.315 146.929 253.571 150.097 255.427C152.518 256.846 154.743 257.462 158.395 257.723L163.385 258.08L162.048 259.973C161.314 261.014 159.69 263.901 158.441 266.386C156.245 270.755 156.076 270.907 153.385 270.907C146.815 270.907 137.344 267.764 131.611 263.682L129.546 262.211L132.019 258.104C133.38 255.845 134.484 253.651 134.473 253.23C134.453 252.446 131.081 255.858 128.139 259.641L126.494 261.755L124.544 260.299C122.272 258.603 121.646 256.78 121.547 251.578L121.475 247.799L123.452 248.551C124.863 249.087 126.31 249.056 128.501 248.443C132.052 247.449 133.237 246.349 132.333 244.887C131.823 244.06 131.345 244.031 129.81 244.731C127.483 245.791 123.304 245.849 121.435 244.849C119.643 243.89 117.825 240.396 116.741 235.83C116.144 233.317 115.577 232.311 114.882 232.533C114.331 232.708 112.253 232.966 110.265 233.105C103.913 233.55 99.6236 230.185 98.4513 223.834L97.8394 220.518L102.967 222.681C107.095 224.422 109.435 224.906 114.966 225.164C121.471 225.467 125.814 224.735 125.814 223.335C125.814 223.006 122.305 222.417 118.015 222.025C111.364 221.418 109.423 220.928 104.816 218.693C101.846 217.251 98.4932 215.302 97.365 214.361L95.3139 212.651L96.2302 208.218C97.3722 202.687 96.4335 197.827 92.8621 190.78C91.5097 188.111 90.3966 185.546 90.3894 185.08C90.3677 183.752 83.9396 177.656 82.065 177.185L80.3784 176.762L82.1229 174.192C83.2236 172.569 83.8666 170.588 83.8666 168.819C83.8666 166.475 83.5086 165.798 81.6788 164.686C80.45 163.939 78.6752 161.719 77.6316 159.625C75.6883 155.725 75.6991 155.997 77.0284 145.01C77.4255 141.724 77.2425 140.442 76.0412 138.088C74.9773 136.001 74.6765 134.386 74.9593 132.279C75.9067 125.214 71.6996 117.941 63.3304 112.177L59.4886 109.531L59.0597 101.804C58.735 95.9429 57.9134 91.4777 55.6598 83.3211C54.0253 77.405 52.7878 71.7204 52.9086 70.6877C53.1726 68.4398 57.167 65.5014 59.9261 65.5245C69.7267 65.6069 83.5592 83.3666 84.4336 96.9894C84.7337 101.673 84.6079 102.261 82.8606 104.337C81.8162 105.579 79.5012 107.195 77.7155 107.929C73.9294 109.486 73.5612 110.349 76.682 110.349C79.4896 110.349 81.3881 109.372 84.6694 106.237L87.281 103.744L88.8533 110.013C90.8892 118.13 92.8253 121.842 99.0465 129.555C101.849 133.03 104.334 136.638 104.568 137.571C104.803 138.504 105.287 139.088 105.643 138.867C106.457 138.365 105.764 135.387 104.027 131.919L102.696 129.26L106.48 129.643C114.371 130.441 131.324 123.573 128.481 120.73C128.259 120.508 126.022 120.981 123.51 121.783C120.998 122.584 118.078 123.429 117.022 123.662C115.964 123.894 114.5 124.301 113.767 124.566C113.034 124.83 113.939 123.701 115.779 122.055C120.286 118.025 126.013 110.393 132.704 99.5005C140.109 87.4442 140.433 86.7665 145.799 72.082C151.447 56.6273 170.281 17.3876 174.849 11.5547C178.674 6.67291 181.677 4.76358 185.536 4.75996C187.751 4.75779 188.907 5.20836 190.191 6.57527ZM165.592 33.5793C165.592 34.7408 168.189 36.2611 173.745 38.3519C179.375 40.471 180.056 40.5636 180.056 39.2075C180.056 38.6644 177.74 37.1839 174.909 35.9175C168.957 33.2568 165.592 32.412 165.592 33.5793ZM214.772 41.9384C214.772 43.1976 219.269 46.7183 222.685 48.1336C225.012 49.097 227.465 48.658 226.697 47.4148C226.341 46.8383 218.933 42.6935 215.314 41.0452C215.015 40.9093 214.772 41.3114 214.772 41.9384ZM157.343 56.7191C157.106 57.1032 158.295 57.898 159.986 58.486C161.677 59.0747 164.77 60.2391 166.857 61.0752C169.786 62.2468 170.654 62.3705 170.654 61.6147C170.654 59.7849 158.265 55.2286 157.343 56.7191ZM154.874 60.5573C155.343 62.0985 161.387 64.7839 165.475 65.2677C171.246 65.9512 170.026 64.4982 162.88 62.1766C154.369 59.4125 154.534 59.4457 154.874 60.5573ZM199.584 64.7644C199.584 65.5361 211.963 72.0177 213.437 72.0177C213.912 72.0177 213.58 71.2503 212.699 70.3123C209.949 67.3854 199.584 63.0004 199.584 64.7644ZM198.137 69.7988C198.137 71.3914 207.492 76.3571 210.492 76.3571C213.146 76.3571 211.84 75.2144 205.72 72.179C199.37 69.0293 198.137 68.6423 198.137 69.7988ZM241.834 75.73C240.942 77.1729 248.342 83.5894 250.897 83.5894C252.518 83.5894 251.478 82.2941 246.977 78.7068C244.226 76.514 242.107 75.2874 241.834 75.73ZM142.629 90.0732C139.372 91.4777 140.919 92.308 146.607 92.2067C149.689 92.1525 154.408 92.3535 157.094 92.6544C162.59 93.2691 163.874 92.1771 159.264 90.8073C155.532 89.6993 144.614 89.2169 142.629 90.0732ZM228.513 94.9998C228.513 95.7071 238.127 105.286 238.837 105.286C239.999 105.286 239.223 103.587 236.649 100.496C233.33 96.5107 228.513 93.2561 228.513 94.9998ZM181.503 98.6637C181.503 98.9986 182.722 99.8932 184.211 100.653C185.7 101.411 188.608 103.122 190.673 104.454C194.058 106.637 195.968 106.956 195.968 105.34C195.968 104.311 190.133 100.852 186.001 99.4304C181.387 97.8436 181.503 97.8631 181.503 98.6637ZM227.067 99.0919C227.067 99.2647 227.375 100.219 227.753 101.212C228.485 103.137 236.278 109.334 237.027 108.586C237.272 108.341 235.384 106.033 232.833 103.459C228.729 99.3175 227.067 98.0591 227.067 99.0919ZM63.4006 116.277C64.7125 117.548 65.7858 119.136 65.7858 119.805C65.7858 120.949 63.8309 123.181 63.3666 122.567C62.7381 121.736 60.2314 113.965 60.5915 113.965C60.8251 113.965 62.0893 115.005 63.4006 116.277ZM135.216 116.773C135.216 117.177 136.437 118.408 137.928 119.509C142.343 122.767 146.176 126.304 149.914 130.568C157.069 138.733 169.852 158.468 179.028 175.518C185.251 187.081 184.995 186.654 185.442 186.207C185.86 185.789 180.251 172.09 177.211 166.104C170.287 152.469 156.031 131.749 148.448 124.3C143.351 119.292 135.216 114.665 135.216 116.773ZM211.257 121.74C214.414 126.374 219.197 132.046 219.948 132.046C221.597 132.046 220.081 129.41 215.394 124.126C209.632 117.63 207.696 116.512 211.257 121.74ZM170.438 122.463C171.609 130.092 178.279 144.125 185.133 153.381C189.98 159.927 193.133 163.189 202.838 171.701C207.214 175.538 211.668 179.651 212.738 180.841C213.807 182.03 214.888 182.797 215.14 182.545C216.167 181.519 211.531 175.965 202.833 167.802C193.407 158.955 186.124 150.041 181.005 141.086C177.66 135.234 171.378 121.872 171.378 120.609C171.378 120.137 171.072 119.751 170.7 119.751C170.325 119.751 170.208 120.962 170.438 122.463ZM70.468 124.054C71.5919 126.228 72.0157 132.792 71.0292 132.742C70.7312 132.727 69.2038 131.617 67.6358 130.275L64.7848 127.835L66.7419 124.878C67.8188 123.251 68.8487 121.921 69.0324 121.921C69.2153 121.921 69.8612 122.881 70.468 124.054ZM141.44 136.908C146.373 151.622 147.026 155.437 147.047 169.654C147.063 181.297 146.854 183.832 145.43 189.181C143.689 195.72 140.831 202.288 137.75 206.829C136.715 208.353 136.051 209.785 136.276 210.01C137.169 210.902 141.854 205.254 144.512 200.082C149.082 191.188 150.042 185.966 150.042 170.016C150.042 157.233 149.903 155.769 148.043 149.042C146.005 141.674 141.996 132.643 140.58 132.233C140.139 132.105 140.514 134.146 141.44 136.908ZM68.5471 137.465C68.7959 140.407 67.6199 144.037 66.2486 144.564C65.6375 144.798 65.4017 143.192 65.4111 138.862C65.4234 132.999 65.4639 132.86 66.8706 133.788C67.7956 134.398 68.4003 135.724 68.5471 137.465ZM242.978 138.658C242.978 139.829 247.517 147.697 249.152 149.36C251.649 151.902 250.7 149.091 247.303 143.888C242.983 137.271 242.978 137.263 242.978 138.658ZM245.871 138.618C245.871 139.67 250.295 145.787 251.056 145.787C252.01 145.787 251.8 145.268 249.306 141.452C247.022 137.96 245.871 137.01 245.871 138.618ZM73.7189 143.618C73.7189 147.268 72.8619 148.336 71.3105 146.621C70.3631 145.575 70.2344 144.845 70.7623 143.531C71.1428 142.584 71.6606 141.168 71.913 140.383C72.582 138.308 73.7189 140.344 73.7189 143.618ZM70.4579 149.939C72.7411 152.401 72.8474 155.593 70.7226 157.855C69.8576 158.775 68.9195 159.529 68.6382 159.529C67.9135 159.529 66.509 153.593 66.509 150.53C66.509 147.354 67.8716 147.15 70.4579 149.939ZM226.701 156.008C226.982 156.95 228.285 160.65 229.598 164.23C230.91 167.81 232.167 171.39 232.39 172.185C232.613 172.981 232.695 171.351 232.572 168.563C232.403 164.763 231.823 162.419 230.25 159.19C228.11 154.8 225.697 152.636 226.701 156.008ZM75.8539 160.146C76.478 161.312 76.3385 161.441 74.7784 161.143C73.3501 160.87 73.1541 160.598 73.8137 159.803C74.8775 158.521 74.9954 158.541 75.8539 160.146ZM77.4385 165.754C79.6371 167.86 80.0002 169.763 78.804 172.909C78.2283 174.422 77.6764 174.766 76.1135 174.584C74.3857 174.383 73.9041 173.697 72.1423 168.931C71.0393 165.947 70.1346 163.297 70.131 163.04C70.1165 161.921 75.5393 163.934 77.4385 165.754ZM78.7157 178.987C79.883 179.725 79.1865 181.226 77.6764 181.226C77.1029 181.226 76.6343 181.09 76.6343 180.923C76.6343 180.757 76.4368 180.106 76.1953 179.477C75.7114 178.216 77.079 177.95 78.7157 178.987ZM86.7595 179.013C86.7595 179.388 87.085 179.895 87.4827 180.141C87.8805 180.387 88.206 180.08 88.206 179.46C88.206 178.841 87.8805 178.333 87.4827 178.333C87.085 178.333 86.7595 178.639 86.7595 179.013ZM85.0049 183.04C87.1211 185.814 87.4082 188.039 86.0674 191.276C85.2697 193.202 82.8801 194.614 81.6766 193.869C81.4054 193.702 80.4558 191.569 79.567 189.131L77.9498 184.696L79.959 182.599C81.0633 181.446 82.2154 180.503 82.5185 180.503C82.8215 180.503 83.9403 181.645 85.0049 183.04ZM91.2869 194.953L92.4174 197.831L90.2534 196.712C88.8214 195.972 88.2313 195.222 88.509 194.498C88.7404 193.895 88.9292 193.103 88.9292 192.738C88.9292 191.088 90.2592 192.337 91.2869 194.953ZM84.5898 196.818C84.5898 197.438 84.2593 197.741 83.855 197.491C83.4507 197.241 83.3068 196.734 83.5361 196.364C84.1559 195.361 84.5898 195.547 84.5898 196.818ZM90.712 200.828C93.3293 203.126 93.9267 205.685 92.6235 209.01C92.1324 210.264 91.9024 210.16 90.2281 207.925C84.511 200.295 84.827 195.661 90.712 200.828ZM93.6606 220.074C90.9854 221.665 86.9982 221.2 84.5869 219.015L82.3919 217.026L83.2706 212.906L84.1494 208.785L89.643 213.99C94.8308 218.905 95.055 219.245 93.6606 220.074ZM74.3705 222.845C72.2638 227.063 71.0473 228.016 61.7306 232.743C57.6002 234.838 54.2191 236.761 54.2177 237.017C54.2133 237.542 65.5182 233.88 67.9996 232.551C69.3839 231.811 69.5574 231.849 69.1864 232.816C68.3561 234.981 59.7837 248.79 57.188 252.145C53.5342 256.866 51.5092 258.09 40.4408 262.262C35.0882 264.28 30.3995 266.237 30.0219 266.611C29.0911 267.532 29.661 267.468 33.045 266.274C34.6289 265.716 38.6378 264.705 41.9531 264.029C45.2691 263.352 48.4231 262.63 48.9627 262.423C50.0858 261.992 40.1154 275.295 31.9117 285.174L26.3696 291.846L17.6908 291.833L9.01204 291.819L12.9898 290.165C23.3017 285.877 28.2826 280.311 26.0991 275.519C25.2218 273.593 20.2279 270.949 17.4218 270.922C15.9515 270.909 15.8394 270.745 16.6392 269.782C18.6007 267.418 27.8913 262.609 36.283 259.614C46.0922 256.113 49.9976 253.846 52.0697 250.446C55.2222 245.276 52.3944 240.531 46.1594 240.531H43.7952L46.6541 237.579C48.4333 235.742 52.1087 233.377 56.3838 231.321C63.3637 227.964 72.616 222.146 74.4081 219.987C76.1345 217.907 76.1157 219.35 74.3705 222.845ZM80.3401 221.92C79.6255 222.629 79.5431 222.545 79.9351 221.515C80.207 220.802 80.6113 220.4 80.8341 220.623C81.0568 220.845 80.8348 221.429 80.3401 221.92ZM97.9696 231.349C99.5094 233.547 99.3908 233.821 96.1905 235.454C88.901 239.173 83.3487 234.717 84.9088 226.402C85.3651 223.97 85.5033 223.867 87.7503 224.288C89.1332 224.547 91.1401 224.312 92.5917 223.72L95.0702 222.708L95.9778 226.254C96.4769 228.205 97.3737 230.497 97.9696 231.349ZM83.1636 235.854C84.2839 237.205 83.4623 237.939 78.9848 239.589C76.3037 240.577 72.2949 239.614 72.2949 237.982C72.2949 236.201 77.9361 227.279 79.6429 226.361C81.3201 225.459 81.3389 225.493 81.7511 230.052C81.9797 232.582 82.6154 235.193 83.1636 235.854ZM122.53 236.144C123.296 237.383 143.287 252.103 144.204 252.103C146.312 252.103 136.83 243.456 128.815 238.069C125.259 235.679 121.538 234.539 122.53 236.144ZM114.32 239.381C114.74 240.936 115.605 243.004 116.243 243.978C117.344 245.659 117.315 245.815 115.642 247.102C114.673 247.847 112.851 248.805 111.592 249.23C106.828 250.841 101.947 246.505 101.947 240.662C101.947 236.681 102.275 236.461 108.138 236.509L113.557 236.553L114.32 239.381ZM98.8874 241.129C98.8874 243.048 99.4132 245.636 100.056 246.879C100.698 248.121 101.224 249.335 101.224 249.576C101.224 249.816 99.4313 250.834 97.2399 251.837C92.6582 253.934 90.0177 253.716 87.4936 251.029C85.6436 249.06 85.2009 245.917 86.212 241.934C86.8571 239.392 87.0488 239.23 88.679 239.85C90.6266 240.59 95.8274 239.708 97.1169 238.418C98.5178 237.017 98.8874 237.584 98.8874 241.129ZM82.5561 244.741C82.4114 246.261 82.8121 248.747 83.4464 250.266C84.8393 253.6 84.3381 254.42 79.8628 256.129C76.4954 257.415 72.3166 257.126 70.9793 255.515C69.4692 253.695 69.2898 250.689 70.4528 246.688L71.6353 242.622L74.6772 243.072C76.35 243.32 78.5327 243.196 79.5272 242.796C82.4982 241.601 82.8353 241.817 82.5561 244.741ZM66.2942 250.114C66.2139 251.804 66.3911 254.056 66.6884 255.117C67.1881 256.898 66.9849 257.14 64.0551 258.259C58.3849 260.424 58.1361 259.657 62.3548 253.007C64.4362 249.725 66.2074 247.04 66.2906 247.04C66.3738 247.04 66.3752 248.423 66.2942 250.114ZM119.936 260.3C120.999 262.938 120.617 263.466 116.142 265.55C111.83 267.557 110.558 267.666 107.838 266.26C105.357 264.977 104.114 262.343 104.127 258.397C104.145 252.697 104.358 252.464 109.525 252.464C113.095 252.464 114.597 252.118 116.178 250.934L118.22 249.403L118.666 253.827C118.911 256.26 119.482 259.172 119.936 260.3ZM100.619 257.867C100.453 260.788 100.746 262.932 101.523 264.488C102.154 265.754 102.671 266.896 102.671 267.025C102.671 267.476 97.2334 269.981 95.1844 270.474C92.2235 271.187 88.2544 269.681 87.4379 267.534C86.6734 265.524 86.6532 260.594 87.3988 257.922C87.848 256.312 88.2226 256.164 91.4851 256.318C93.9173 256.433 95.8932 256.043 97.608 255.108C99.0002 254.347 100.302 253.686 100.501 253.637C100.7 253.587 100.753 255.49 100.619 257.867ZM84.2282 262.409C84.2282 265.293 84.4958 268.39 84.8234 269.291C85.3478 270.737 85.0483 271.098 82.2921 272.349C73.8903 276.162 68.1356 271.856 69.8417 263.034C70.374 260.279 70.7392 259.733 71.9332 259.903C75.8987 260.467 78.7504 260.116 81.3577 258.743C82.9365 257.91 84.2282 257.215 84.2282 257.197C84.2282 257.18 84.2282 259.524 84.2282 262.409ZM66.1944 264.698C65.8639 266.9 66.0664 268.732 66.8446 270.595C67.4658 272.082 67.8889 273.37 67.7841 273.457C66.2443 274.74 62.2607 275.969 59.6412 275.969C53.4771 275.969 51.2871 271.707 54.1786 265.338L55.5578 262.299L60.1294 262.041C62.6441 261.899 65.145 261.721 65.6874 261.644C66.4526 261.536 66.5661 262.219 66.1944 264.698ZM121.979 269.944C121.016 271.866 119.515 275.61 118.642 278.265C116.793 283.884 116.068 284.651 112.476 284.785C107.803 284.961 105.054 280.055 106.016 273.257L106.451 270.183H110.375C114.342 270.183 117.741 268.871 121.475 265.901C124.001 263.89 124.202 265.504 121.979 269.944ZM132.597 267.958C138.8 271.497 143.987 273.23 149.81 273.706L155.365 274.161L151.568 282.84L147.772 291.519L140.937 291.723L134.102 291.929L126.674 288.296C119.972 285.019 119.319 284.527 119.993 283.266C120.405 282.497 121.598 279.483 122.643 276.568C125.081 269.773 127.078 265.844 128.092 265.844C128.532 265.844 130.559 266.795 132.597 267.958ZM50.8084 276.987C50.9827 278.582 44.9654 282.002 42.6546 281.621C41.4743 281.427 41.8728 280.599 45.3928 275.94L49.513 270.486L50.0851 273.047C50.4005 274.455 50.7259 276.229 50.8084 276.987ZM102.317 274.464C101.934 277.244 102.151 278.751 103.306 281.362L104.784 284.704L102.462 286.133C96.769 289.638 92.1505 289.585 89.463 285.986C87.7033 283.63 87.0944 278.976 88.1337 275.827L88.9516 273.347L93.0994 273.613C96.2143 273.813 97.8763 273.531 99.7777 272.481C101.17 271.713 102.421 271.044 102.558 270.996C102.694 270.946 102.586 272.507 102.317 274.464ZM84.7836 280.128C84.955 282.812 85.334 285.7 85.6262 286.544C86.0782 287.852 85.6624 288.316 82.7919 289.706C74.4877 293.725 68.2289 288.48 70.3371 279.268C70.9077 276.776 71.3807 276.034 72.2377 276.287C75.7729 277.33 77.3105 277.356 80.2504 276.422C82.0404 275.854 83.7227 275.357 83.9881 275.318C84.2535 275.278 84.6115 277.443 84.7836 280.128ZM66.6471 282.004C66.4381 285.288 66.6876 287.236 67.5266 288.858C68.6664 291.061 68.6527 291.136 67.0616 291.535C66.1611 291.761 62.6578 291.849 59.2767 291.732L53.1292 291.519L52.9101 288.121C52.79 286.253 53.0475 283.402 53.4821 281.787C54.2191 279.05 54.4072 278.886 56.2326 279.388C59.6557 280.33 64.5433 279.439 66.9046 277.445C66.9234 277.429 66.8077 279.48 66.6471 282.004ZM49.8761 287.36L49.8776 292.242L42.6026 292.012C34.2066 291.747 33.4935 291.179 36.5419 287.181C38.1496 285.074 38.8801 284.652 40.4032 284.953C41.8164 285.233 47.3925 283.805 49.6939 282.575C49.7937 282.522 49.8754 284.675 49.8761 287.36ZM111.013 287.89C111.998 288.199 111.989 288.443 110.93 290.059C109.192 292.711 107.733 292.397 107.733 289.371C107.733 287.474 107.997 286.946 108.818 287.202C109.415 287.388 110.403 287.698 111.013 287.89ZM124.308 291.647C124.473 291.775 122.254 291.88 119.377 291.88H114.144L115.69 289.709L117.235 287.539L120.621 289.476C122.483 290.542 124.142 291.519 124.308 291.647ZM104.84 290.072C104.84 291.8 104.655 291.877 100.682 291.807C97.1082 291.743 96.8529 291.654 98.8671 291.176C100.156 290.87 101.946 290.106 102.845 289.48C104.952 288.01 104.84 287.976 104.84 290.072ZM93.4631 291.632C92.9735 291.83 91.9972 291.842 91.2935 291.658C90.5897 291.475 90.9904 291.313 92.1838 291.298C93.3771 291.284 93.9528 291.433 93.4631 291.632Z"/>
</mask>
<path fill-rule="evenodd" clip-rule="evenodd" d="M179.663 1.36728C173.706 4.20669 169.188 9.98965 162.888 22.8379C147.811 53.5847 144.528 60.7027 142.039 68.0399C137.582 81.1796 134.429 87.7473 127.11 99.1389C111.729 123.077 101.372 129.435 96.5506 117.898C95.4253 115.203 92.1722 104.468 89.2228 93.7146C85.5806 80.4354 77.39 68.5114 68.6396 63.749C63.3586 60.8748 57.0802 60.4727 53.2044 62.7603C46.9456 66.4553 46.4639 71.2286 50.9508 85.1082C53.242 92.1944 53.6427 94.4892 53.9645 102.358C54.2994 110.554 54.622 112.275 57.2936 120.113C60.1438 128.475 60.2711 129.241 60.7702 141.086C61.3791 155.539 61.9772 158.155 68.4162 174.545C81.4134 207.631 80.7155 204.518 76.58 210.963C73.4094 215.904 66.6963 221.084 56.8199 226.21C46.4769 231.579 42.403 234.679 38.8685 239.873C36.3603 243.558 34.6839 247.763 35.7217 247.763C35.9799 247.763 37.5074 247.091 39.1166 246.27C42.2446 244.675 47.347 244.223 48.5584 245.434C50.9118 247.788 45.3313 251.59 32.9496 256.073C23.8492 259.367 19.8996 261.421 15.0243 265.391C11.147 268.55 6.48073 274.55 6.48073 276.377C6.48073 277.87 8.56002 278.161 11.3842 277.066C15.8936 275.317 20.7465 275.332 21.4234 277.097C22.3955 279.629 16.0939 284.052 5.5521 288.237C3.25077 289.152 1.05432 290.486 0.670279 291.203C-0.378407 293.163 -0.171563 295.287 1.11579 295.781C1.745 296.022 35.7152 296.22 76.6046 296.22C135.231 296.22 151.096 296.029 151.641 295.316C152.02 294.819 153.565 291.483 155.075 287.903C160.42 275.22 169.075 258.198 172.095 254.428C173.78 252.325 178.294 248.366 182.127 245.628C185.96 242.891 191.717 238.097 194.92 234.975C204.456 225.679 207.253 221.871 229.091 188.458C235.417 178.779 237.098 176.829 250.917 163.145C265.618 148.586 272.711 140.307 277.869 131.684C280.983 126.48 286.166 114.711 286.776 111.462C287.471 107.757 285.949 103.53 282.98 100.924C280.507 98.7527 280.063 98.6239 276.237 98.9704C273.985 99.1751 271.174 99.8419 269.993 100.454C266.717 102.148 262.37 106.828 257.587 113.811C251.389 122.862 244.975 129.468 236.509 135.527C228.429 141.308 227.067 142.055 227.067 140.702C227.067 139.329 234.219 129.016 241.493 119.904C245.076 115.413 249.266 109.555 250.802 106.885C260.956 89.2386 266.953 78.4045 268.3 75.2722C273.432 63.3454 274.704 54.3534 271.911 49.7718C268.904 44.84 262.465 43.1325 256.828 45.7716C252.674 47.7163 247.329 53.8363 242.667 61.9886C240.308 66.1125 236.55 72.4155 234.317 75.9955C229.351 83.9553 207.743 111.072 206.365 111.072C205.817 111.072 205.37 110.981 205.37 110.87C205.37 110.365 218.12 86.3333 220.636 82.0959C222.187 79.485 225.574 72.6599 228.162 66.9305C230.751 61.2003 235.246 52.1085 238.152 46.727C246.485 31.2888 248.534 25.1768 247.906 17.6111C246.753 3.70621 230.159 3.29541 219.46 16.9066C217.804 19.0149 214.229 25.0358 211.517 30.2864C208.804 35.5378 203.745 44.3902 200.275 49.9591C196.804 55.528 191.114 65.4543 187.629 72.0177C184.145 78.581 180.01 85.9855 178.441 88.4712C173.638 96.0803 171.203 93.792 173.962 84.2634C178.005 70.2978 186.474 45.8367 189.583 39.141C196.909 23.3651 198.91 13.9457 196.358 7.26234C193.889 0.797368 186.404 -1.84532 179.663 1.36728ZM190.191 6.57527C191.473 7.94001 191.975 9.44867 192.205 12.6287C192.636 18.5809 191.533 22.8697 186.845 33.4795C184.598 38.5653 181.866 45.3304 180.774 48.5126C173.525 69.6317 168.318 86.3644 167.983 89.6132C167.638 92.9502 167.816 93.6684 169.476 95.6421C172.199 98.8778 174.575 99.1006 177.641 96.4094C181.25 93.2402 183.955 89.0274 190.656 76.1394C193.924 69.8545 199.782 59.5217 203.673 53.1782C209.363 43.9027 211 41.7244 212.036 42.0534C213.399 42.4859 213.829 41.0452 212.708 39.7977C212.352 39.4013 213.953 35.595 216.495 30.7934C224.075 16.4814 232.196 9.74375 239.117 12.0277C243.806 13.5754 244.81 19.464 241.883 28.2621C241.222 30.251 237.322 38.2246 233.216 45.9813C229.111 53.738 224.689 62.688 223.389 65.8702C222.089 69.0524 217.437 78.3214 213.051 86.4686C203.305 104.568 200.655 110.758 201.682 113.012C202.754 115.365 205.761 117.098 207.856 116.572C208.875 116.316 211.101 114.205 213.086 111.611C214.986 109.127 220.156 102.538 224.574 96.9692C233.712 85.4495 239.908 76.4236 244.432 68.0399C250.719 56.3901 256.363 49.9801 260.697 49.5685C263.984 49.2561 265.556 49.6893 267.239 51.373C268.65 52.7833 269.014 53.8891 269.014 56.7589C269.014 61.2827 265.82 70.2465 261.227 78.6157C246.86 104.791 244.436 108.793 238.639 115.902C229.98 126.521 221.281 139.436 221.281 141.67C221.281 143.385 224.823 145.787 227.35 145.787C230.767 145.787 242.822 137.401 250.752 129.507C256.385 123.9 257.442 123.118 257.442 124.555C257.442 125.627 258.584 127.338 260.512 129.154C265.297 133.662 266.05 133.048 262.24 127.744C257.868 121.659 257.886 121.776 260.682 117.462C265.402 110.183 267.358 107.798 270.254 105.791C276.272 101.621 281.015 102.795 281.801 108.649C282.122 111.043 281.689 112.82 279.616 117.615C273.498 131.765 263.486 145.034 247.991 159.528C242.25 164.898 236.273 170.756 234.708 172.546C233.143 174.337 226.493 183.938 219.93 193.882C204.814 216.787 198.942 224.479 190.396 232.567C178.492 243.832 171.885 247.085 163.021 246.044C157.333 245.375 153.655 243.807 146.109 238.834C136.578 232.551 133.757 230.9 133.312 231.345C131.679 232.978 144.63 243.922 152.574 247.621C156.509 249.455 159.344 250.245 162.902 250.501C167.722 250.848 167.785 250.878 166.522 252.274C165.356 253.562 164.498 253.665 157.278 253.378C152.901 253.205 148.75 252.812 148.053 252.505C145.351 251.315 146.929 253.571 150.097 255.427C152.518 256.846 154.743 257.462 158.395 257.723L163.385 258.08L162.048 259.973C161.314 261.014 159.69 263.901 158.441 266.386C156.245 270.755 156.076 270.907 153.385 270.907C146.815 270.907 137.344 267.764 131.611 263.682L129.546 262.211L132.019 258.104C133.38 255.845 134.484 253.651 134.473 253.23C134.453 252.446 131.081 255.858 128.139 259.641L126.494 261.755L124.544 260.299C122.272 258.603 121.646 256.78 121.547 251.578L121.475 247.799L123.452 248.551C124.863 249.087 126.31 249.056 128.501 248.443C132.052 247.449 133.237 246.349 132.333 244.887C131.823 244.06 131.345 244.031 129.81 244.731C127.483 245.791 123.304 245.849 121.435 244.849C119.643 243.89 117.825 240.396 116.741 235.83C116.144 233.317 115.577 232.311 114.882 232.533C114.331 232.708 112.253 232.966 110.265 233.105C103.913 233.55 99.6236 230.185 98.4513 223.834L97.8394 220.518L102.967 222.681C107.095 224.422 109.435 224.906 114.966 225.164C121.471 225.467 125.814 224.735 125.814 223.335C125.814 223.006 122.305 222.417 118.015 222.025C111.364 221.418 109.423 220.928 104.816 218.693C101.846 217.251 98.4932 215.302 97.365 214.361L95.3139 212.651L96.2302 208.218C97.3722 202.687 96.4335 197.827 92.8621 190.78C91.5097 188.111 90.3966 185.546 90.3894 185.08C90.3677 183.752 83.9396 177.656 82.065 177.185L80.3784 176.762L82.1229 174.192C83.2236 172.569 83.8666 170.588 83.8666 168.819C83.8666 166.475 83.5086 165.798 81.6788 164.686C80.45 163.939 78.6752 161.719 77.6316 159.625C75.6883 155.725 75.6991 155.997 77.0284 145.01C77.4255 141.724 77.2425 140.442 76.0412 138.088C74.9773 136.001 74.6765 134.386 74.9593 132.279C75.9067 125.214 71.6996 117.941 63.3304 112.177L59.4886 109.531L59.0597 101.804C58.735 95.9429 57.9134 91.4777 55.6598 83.3211C54.0253 77.405 52.7878 71.7204 52.9086 70.6877C53.1726 68.4398 57.167 65.5014 59.9261 65.5245C69.7267 65.6069 83.5592 83.3666 84.4336 96.9894C84.7337 101.673 84.6079 102.261 82.8606 104.337C81.8162 105.579 79.5012 107.195 77.7155 107.929C73.9294 109.486 73.5612 110.349 76.682 110.349C79.4896 110.349 81.3881 109.372 84.6694 106.237L87.281 103.744L88.8533 110.013C90.8892 118.13 92.8253 121.842 99.0465 129.555C101.849 133.03 104.334 136.638 104.568 137.571C104.803 138.504 105.287 139.088 105.643 138.867C106.457 138.365 105.764 135.387 104.027 131.919L102.696 129.26L106.48 129.643C114.371 130.441 131.324 123.573 128.481 120.73C128.259 120.508 126.022 120.981 123.51 121.783C120.998 122.584 118.078 123.429 117.022 123.662C115.964 123.894 114.5 124.301 113.767 124.566C113.034 124.83 113.939 123.701 115.779 122.055C120.286 118.025 126.013 110.393 132.704 99.5005C140.109 87.4442 140.433 86.7665 145.799 72.082C151.447 56.6273 170.281 17.3876 174.849 11.5547C178.674 6.67291 181.677 4.76358 185.536 4.75996C187.751 4.75779 188.907 5.20836 190.191 6.57527ZM165.592 33.5793C165.592 34.7408 168.189 36.2611 173.745 38.3519C179.375 40.471 180.056 40.5636 180.056 39.2075C180.056 38.6644 177.74 37.1839 174.909 35.9175C168.957 33.2568 165.592 32.412 165.592 33.5793ZM214.772 41.9384C214.772 43.1976 219.269 46.7183 222.685 48.1336C225.012 49.097 227.465 48.658 226.697 47.4148C226.341 46.8383 218.933 42.6935 215.314 41.0452C215.015 40.9093 214.772 41.3114 214.772 41.9384ZM157.343 56.7191C157.106 57.1032 158.295 57.898 159.986 58.486C161.677 59.0747 164.77 60.2391 166.857 61.0752C169.786 62.2468 170.654 62.3705 170.654 61.6147C170.654 59.7849 158.265 55.2286 157.343 56.7191ZM154.874 60.5573C155.343 62.0985 161.387 64.7839 165.475 65.2677C171.246 65.9512 170.026 64.4982 162.88 62.1766C154.369 59.4125 154.534 59.4457 154.874 60.5573ZM199.584 64.7644C199.584 65.5361 211.963 72.0177 213.437 72.0177C213.912 72.0177 213.58 71.2503 212.699 70.3123C209.949 67.3854 199.584 63.0004 199.584 64.7644ZM198.137 69.7988C198.137 71.3914 207.492 76.3571 210.492 76.3571C213.146 76.3571 211.84 75.2144 205.72 72.179C199.37 69.0293 198.137 68.6423 198.137 69.7988ZM241.834 75.73C240.942 77.1729 248.342 83.5894 250.897 83.5894C252.518 83.5894 251.478 82.2941 246.977 78.7068C244.226 76.514 242.107 75.2874 241.834 75.73ZM142.629 90.0732C139.372 91.4777 140.919 92.308 146.607 92.2067C149.689 92.1525 154.408 92.3535 157.094 92.6544C162.59 93.2691 163.874 92.1771 159.264 90.8073C155.532 89.6993 144.614 89.2169 142.629 90.0732ZM228.513 94.9998C228.513 95.7071 238.127 105.286 238.837 105.286C239.999 105.286 239.223 103.587 236.649 100.496C233.33 96.5107 228.513 93.2561 228.513 94.9998ZM181.503 98.6637C181.503 98.9986 182.722 99.8932 184.211 100.653C185.7 101.411 188.608 103.122 190.673 104.454C194.058 106.637 195.968 106.956 195.968 105.34C195.968 104.311 190.133 100.852 186.001 99.4304C181.387 97.8436 181.503 97.8631 181.503 98.6637ZM227.067 99.0919C227.067 99.2647 227.375 100.219 227.753 101.212C228.485 103.137 236.278 109.334 237.027 108.586C237.272 108.341 235.384 106.033 232.833 103.459C228.729 99.3175 227.067 98.0591 227.067 99.0919ZM63.4006 116.277C64.7125 117.548 65.7858 119.136 65.7858 119.805C65.7858 120.949 63.8309 123.181 63.3666 122.567C62.7381 121.736 60.2314 113.965 60.5915 113.965C60.8251 113.965 62.0893 115.005 63.4006 116.277ZM135.216 116.773C135.216 117.177 136.437 118.408 137.928 119.509C142.343 122.767 146.176 126.304 149.914 130.568C157.069 138.733 169.852 158.468 179.028 175.518C185.251 187.081 184.995 186.654 185.442 186.207C185.86 185.789 180.251 172.09 177.211 166.104C170.287 152.469 156.031 131.749 148.448 124.3C143.351 119.292 135.216 114.665 135.216 116.773ZM211.257 121.74C214.414 126.374 219.197 132.046 219.948 132.046C221.597 132.046 220.081 129.41 215.394 124.126C209.632 117.63 207.696 116.512 211.257 121.74ZM170.438 122.463C171.609 130.092 178.279 144.125 185.133 153.381C189.98 159.927 193.133 163.189 202.838 171.701C207.214 175.538 211.668 179.651 212.738 180.841C213.807 182.03 214.888 182.797 215.14 182.545C216.167 181.519 211.531 175.965 202.833 167.802C193.407 158.955 186.124 150.041 181.005 141.086C177.66 135.234 171.378 121.872 171.378 120.609C171.378 120.137 171.072 119.751 170.7 119.751C170.325 119.751 170.208 120.962 170.438 122.463ZM70.468 124.054C71.5919 126.228 72.0157 132.792 71.0292 132.742C70.7312 132.727 69.2038 131.617 67.6358 130.275L64.7848 127.835L66.7419 124.878C67.8188 123.251 68.8487 121.921 69.0324 121.921C69.2153 121.921 69.8612 122.881 70.468 124.054ZM141.44 136.908C146.373 151.622 147.026 155.437 147.047 169.654C147.063 181.297 146.854 183.832 145.43 189.181C143.689 195.72 140.831 202.288 137.75 206.829C136.715 208.353 136.051 209.785 136.276 210.01C137.169 210.902 141.854 205.254 144.512 200.082C149.082 191.188 150.042 185.966 150.042 170.016C150.042 157.233 149.903 155.769 148.043 149.042C146.005 141.674 141.996 132.643 140.58 132.233C140.139 132.105 140.514 134.146 141.44 136.908ZM68.5471 137.465C68.7959 140.407 67.6199 144.037 66.2486 144.564C65.6375 144.798 65.4017 143.192 65.4111 138.862C65.4234 132.999 65.4639 132.86 66.8706 133.788C67.7956 134.398 68.4003 135.724 68.5471 137.465ZM242.978 138.658C242.978 139.829 247.517 147.697 249.152 149.36C251.649 151.902 250.7 149.091 247.303 143.888C242.983 137.271 242.978 137.263 242.978 138.658ZM245.871 138.618C245.871 139.67 250.295 145.787 251.056 145.787C252.01 145.787 251.8 145.268 249.306 141.452C247.022 137.96 245.871 137.01 245.871 138.618ZM73.7189 143.618C73.7189 147.268 72.8619 148.336 71.3105 146.621C70.3631 145.575 70.2344 144.845 70.7623 143.531C71.1428 142.584 71.6606 141.168 71.913 140.383C72.582 138.308 73.7189 140.344 73.7189 143.618ZM70.4579 149.939C72.7411 152.401 72.8474 155.593 70.7226 157.855C69.8576 158.775 68.9195 159.529 68.6382 159.529C67.9135 159.529 66.509 153.593 66.509 150.53C66.509 147.354 67.8716 147.15 70.4579 149.939ZM226.701 156.008C226.982 156.95 228.285 160.65 229.598 164.23C230.91 167.81 232.167 171.39 232.39 172.185C232.613 172.981 232.695 171.351 232.572 168.563C232.403 164.763 231.823 162.419 230.25 159.19C228.11 154.8 225.697 152.636 226.701 156.008ZM75.8539 160.146C76.478 161.312 76.3385 161.441 74.7784 161.143C73.3501 160.87 73.1541 160.598 73.8137 159.803C74.8775 158.521 74.9954 158.541 75.8539 160.146ZM77.4385 165.754C79.6371 167.86 80.0002 169.763 78.804 172.909C78.2283 174.422 77.6764 174.766 76.1135 174.584C74.3857 174.383 73.9041 173.697 72.1423 168.931C71.0393 165.947 70.1346 163.297 70.131 163.04C70.1165 161.921 75.5393 163.934 77.4385 165.754ZM78.7157 178.987C79.883 179.725 79.1865 181.226 77.6764 181.226C77.1029 181.226 76.6343 181.09 76.6343 180.923C76.6343 180.757 76.4368 180.106 76.1953 179.477C75.7114 178.216 77.079 177.95 78.7157 178.987ZM86.7595 179.013C86.7595 179.388 87.085 179.895 87.4827 180.141C87.8805 180.387 88.206 180.08 88.206 179.46C88.206 178.841 87.8805 178.333 87.4827 178.333C87.085 178.333 86.7595 178.639 86.7595 179.013ZM85.0049 183.04C87.1211 185.814 87.4082 188.039 86.0674 191.276C85.2697 193.202 82.8801 194.614 81.6766 193.869C81.4054 193.702 80.4558 191.569 79.567 189.131L77.9498 184.696L79.959 182.599C81.0633 181.446 82.2154 180.503 82.5185 180.503C82.8215 180.503 83.9403 181.645 85.0049 183.04ZM91.2869 194.953L92.4174 197.831L90.2534 196.712C88.8214 195.972 88.2313 195.222 88.509 194.498C88.7404 193.895 88.9292 193.103 88.9292 192.738C88.9292 191.088 90.2592 192.337 91.2869 194.953ZM84.5898 196.818C84.5898 197.438 84.2593 197.741 83.855 197.491C83.4507 197.241 83.3068 196.734 83.5361 196.364C84.1559 195.361 84.5898 195.547 84.5898 196.818ZM90.712 200.828C93.3293 203.126 93.9267 205.685 92.6235 209.01C92.1324 210.264 91.9024 210.16 90.2281 207.925C84.511 200.295 84.827 195.661 90.712 200.828ZM93.6606 220.074C90.9854 221.665 86.9982 221.2 84.5869 219.015L82.3919 217.026L83.2706 212.906L84.1494 208.785L89.643 213.99C94.8308 218.905 95.055 219.245 93.6606 220.074ZM74.3705 222.845C72.2638 227.063 71.0473 228.016 61.7306 232.743C57.6002 234.838 54.2191 236.761 54.2177 237.017C54.2133 237.542 65.5182 233.88 67.9996 232.551C69.3839 231.811 69.5574 231.849 69.1864 232.816C68.3561 234.981 59.7837 248.79 57.188 252.145C53.5342 256.866 51.5092 258.09 40.4408 262.262C35.0882 264.28 30.3995 266.237 30.0219 266.611C29.0911 267.532 29.661 267.468 33.045 266.274C34.6289 265.716 38.6378 264.705 41.9531 264.029C45.2691 263.352 48.4231 262.63 48.9627 262.423C50.0858 261.992 40.1154 275.295 31.9117 285.174L26.3696 291.846L17.6908 291.833L9.01204 291.819L12.9898 290.165C23.3017 285.877 28.2826 280.311 26.0991 275.519C25.2218 273.593 20.2279 270.949 17.4218 270.922C15.9515 270.909 15.8394 270.745 16.6392 269.782C18.6007 267.418 27.8913 262.609 36.283 259.614C46.0922 256.113 49.9976 253.846 52.0697 250.446C55.2222 245.276 52.3944 240.531 46.1594 240.531H43.7952L46.6541 237.579C48.4333 235.742 52.1087 233.377 56.3838 231.321C63.3637 227.964 72.616 222.146 74.4081 219.987C76.1345 217.907 76.1157 219.35 74.3705 222.845ZM80.3401 221.92C79.6255 222.629 79.5431 222.545 79.9351 221.515C80.207 220.802 80.6113 220.4 80.8341 220.623C81.0568 220.845 80.8348 221.429 80.3401 221.92ZM97.9696 231.349C99.5094 233.547 99.3908 233.821 96.1905 235.454C88.901 239.173 83.3487 234.717 84.9088 226.402C85.3651 223.97 85.5033 223.867 87.7503 224.288C89.1332 224.547 91.1401 224.312 92.5917 223.72L95.0702 222.708L95.9778 226.254C96.4769 228.205 97.3737 230.497 97.9696 231.349ZM83.1636 235.854C84.2839 237.205 83.4623 237.939 78.9848 239.589C76.3037 240.577 72.2949 239.614 72.2949 237.982C72.2949 236.201 77.9361 227.279 79.6429 226.361C81.3201 225.459 81.3389 225.493 81.7511 230.052C81.9797 232.582 82.6154 235.193 83.1636 235.854ZM122.53 236.144C123.296 237.383 143.287 252.103 144.204 252.103C146.312 252.103 136.83 243.456 128.815 238.069C125.259 235.679 121.538 234.539 122.53 236.144ZM114.32 239.381C114.74 240.936 115.605 243.004 116.243 243.978C117.344 245.659 117.315 245.815 115.642 247.102C114.673 247.847 112.851 248.805 111.592 249.23C106.828 250.841 101.947 246.505 101.947 240.662C101.947 236.681 102.275 236.461 108.138 236.509L113.557 236.553L114.32 239.381ZM98.8874 241.129C98.8874 243.048 99.4132 245.636 100.056 246.879C100.698 248.121 101.224 249.335 101.224 249.576C101.224 249.816 99.4313 250.834 97.2399 251.837C92.6582 253.934 90.0177 253.716 87.4936 251.029C85.6436 249.06 85.2009 245.917 86.212 241.934C86.8571 239.392 87.0488 239.23 88.679 239.85C90.6266 240.59 95.8274 239.708 97.1169 238.418C98.5178 237.017 98.8874 237.584 98.8874 241.129ZM82.5561 244.741C82.4114 246.261 82.8121 248.747 83.4464 250.266C84.8393 253.6 84.3381 254.42 79.8628 256.129C76.4954 257.415 72.3166 257.126 70.9793 255.515C69.4692 253.695 69.2898 250.689 70.4528 246.688L71.6353 242.622L74.6772 243.072C76.35 243.32 78.5327 243.196 79.5272 242.796C82.4982 241.601 82.8353 241.817 82.5561 244.741ZM66.2942 250.114C66.2139 251.804 66.3911 254.056 66.6884 255.117C67.1881 256.898 66.9849 257.14 64.0551 258.259C58.3849 260.424 58.1361 259.657 62.3548 253.007C64.4362 249.725 66.2074 247.04 66.2906 247.04C66.3738 247.04 66.3752 248.423 66.2942 250.114ZM119.936 260.3C120.999 262.938 120.617 263.466 116.142 265.55C111.83 267.557 110.558 267.666 107.838 266.26C105.357 264.977 104.114 262.343 104.127 258.397C104.145 252.697 104.358 252.464 109.525 252.464C113.095 252.464 114.597 252.118 116.178 250.934L118.22 249.403L118.666 253.827C118.911 256.26 119.482 259.172 119.936 260.3ZM100.619 257.867C100.453 260.788 100.746 262.932 101.523 264.488C102.154 265.754 102.671 266.896 102.671 267.025C102.671 267.476 97.2334 269.981 95.1844 270.474C92.2235 271.187 88.2544 269.681 87.4379 267.534C86.6734 265.524 86.6532 260.594 87.3988 257.922C87.848 256.312 88.2226 256.164 91.4851 256.318C93.9173 256.433 95.8932 256.043 97.608 255.108C99.0002 254.347 100.302 253.686 100.501 253.637C100.7 253.587 100.753 255.49 100.619 257.867ZM84.2282 262.409C84.2282 265.293 84.4958 268.39 84.8234 269.291C85.3478 270.737 85.0483 271.098 82.2921 272.349C73.8903 276.162 68.1356 271.856 69.8417 263.034C70.374 260.279 70.7392 259.733 71.9332 259.903C75.8987 260.467 78.7504 260.116 81.3577 258.743C82.9365 257.91 84.2282 257.215 84.2282 257.197C84.2282 257.18 84.2282 259.524 84.2282 262.409ZM66.1944 264.698C65.8639 266.9 66.0664 268.732 66.8446 270.595C67.4658 272.082 67.8889 273.37 67.7841 273.457C66.2443 274.74 62.2607 275.969 59.6412 275.969C53.4771 275.969 51.2871 271.707 54.1786 265.338L55.5578 262.299L60.1294 262.041C62.6441 261.899 65.145 261.721 65.6874 261.644C66.4526 261.536 66.5661 262.219 66.1944 264.698ZM121.979 269.944C121.016 271.866 119.515 275.61 118.642 278.265C116.793 283.884 116.068 284.651 112.476 284.785C107.803 284.961 105.054 280.055 106.016 273.257L106.451 270.183H110.375C114.342 270.183 117.741 268.871 121.475 265.901C124.001 263.89 124.202 265.504 121.979 269.944ZM132.597 267.958C138.8 271.497 143.987 273.23 149.81 273.706L155.365 274.161L151.568 282.84L147.772 291.519L140.937 291.723L134.102 291.929L126.674 288.296C119.972 285.019 119.319 284.527 119.993 283.266C120.405 282.497 121.598 279.483 122.643 276.568C125.081 269.773 127.078 265.844 128.092 265.844C128.532 265.844 130.559 266.795 132.597 267.958ZM50.8084 276.987C50.9827 278.582 44.9654 282.002 42.6546 281.621C41.4743 281.427 41.8728 280.599 45.3928 275.94L49.513 270.486L50.0851 273.047C50.4005 274.455 50.7259 276.229 50.8084 276.987ZM102.317 274.464C101.934 277.244 102.151 278.751 103.306 281.362L104.784 284.704L102.462 286.133C96.769 289.638 92.1505 289.585 89.463 285.986C87.7033 283.63 87.0944 278.976 88.1337 275.827L88.9516 273.347L93.0994 273.613C96.2143 273.813 97.8763 273.531 99.7777 272.481C101.17 271.713 102.421 271.044 102.558 270.996C102.694 270.946 102.586 272.507 102.317 274.464ZM84.7836 280.128C84.955 282.812 85.334 285.7 85.6262 286.544C86.0782 287.852 85.6624 288.316 82.7919 289.706C74.4877 293.725 68.2289 288.48 70.3371 279.268C70.9077 276.776 71.3807 276.034 72.2377 276.287C75.7729 277.33 77.3105 277.356 80.2504 276.422C82.0404 275.854 83.7227 275.357 83.9881 275.318C84.2535 275.278 84.6115 277.443 84.7836 280.128ZM66.6471 282.004C66.4381 285.288 66.6876 287.236 67.5266 288.858C68.6664 291.061 68.6527 291.136 67.0616 291.535C66.1611 291.761 62.6578 291.849 59.2767 291.732L53.1292 291.519L52.9101 288.121C52.79 286.253 53.0475 283.402 53.4821 281.787C54.2191 279.05 54.4072 278.886 56.2326 279.388C59.6557 280.33 64.5433 279.439 66.9046 277.445C66.9234 277.429 66.8077 279.48 66.6471 282.004ZM49.8761 287.36L49.8776 292.242L42.6026 292.012C34.2066 291.747 33.4935 291.179 36.5419 287.181C38.1496 285.074 38.8801 284.652 40.4032 284.953C41.8164 285.233 47.3925 283.805 49.6939 282.575C49.7937 282.522 49.8754 284.675 49.8761 287.36ZM111.013 287.89C111.998 288.199 111.989 288.443 110.93 290.059C109.192 292.711 107.733 292.397 107.733 289.371C107.733 287.474 107.997 286.946 108.818 287.202C109.415 287.388 110.403 287.698 111.013 287.89ZM124.308 291.647C124.473 291.775 122.254 291.88 119.377 291.88H114.144L115.69 289.709L117.235 287.539L120.621 289.476C122.483 290.542 124.142 291.519 124.308 291.647ZM104.84 290.072C104.84 291.8 104.655 291.877 100.682 291.807C97.1082 291.743 96.8529 291.654 98.8671 291.176C100.156 290.87 101.946 290.106 102.845 289.48C104.952 288.01 104.84 287.976 104.84 290.072ZM93.4631 291.632C92.9735 291.83 91.9972 291.842 91.2935 291.658C90.5897 291.475 90.9904 291.313 92.1838 291.298C93.3771 291.284 93.9528 291.433 93.4631 291.632Z" stroke="#286196" stroke-width="4" mask="url(#path-1-inside-1_74_817)"/>
</svg>
