<svg width="147" height="147" viewBox="0 0 147 147" fill="none" xmlns="http://www.w3.org/2000/svg">
<circle cx="73.4453" cy="73.4453" r="71.9453" stroke="#286196" stroke-width="3"/>
<path d="M15.916 96.2828C19.0891 104.262 23.1279 109.921 30.3619 117.344C37.9963 124.326 39.147 125.772 50.0396 130.695C58.3001 134.09 67.2632 135.387 73.4453 135.335C75.5779 135.336 77.3664 135.218 78.7236 135.071C83.9881 134.348 84.6793 134.819 91.9598 132.656C99.1474 130.215 103.284 128.089 108.859 124.478C114.982 121.462 128.497 105.555 130.53 98.1632C133.437 91.3117 135.32 82.9629 135.66 77.8508C135.79 76.252 135.847 75.0137 135.885 74.0444C135.901 73.6353 135.925 73.4454 135.95 73.4453C135.95 73.4453 135.95 73.4453 135.95 73.4453C135.98 73.4454 136.012 73.74 136.01 74.2668C135.997 76.8086 135.842 80.6372 135.116 85.0938C133.43 93.3173 133.24 94.3594 128.092 104.482C122.314 114.204 117.767 119.9 106.456 127.135C94.8734 133.199 91.7957 135.902 73.4453 136.587C73.2031 136.583 72.9587 136.578 72.7119 136.571C54.0073 134.722 51.2663 134.43 35.3371 124.228C19.0865 113.265 10.2003 89.1393 10.3284 77.7598C10.2316 76.3695 10.1765 74.9494 10.172 73.4453C10.0363 62.6411 13.2528 48.7643 21.6224 37.1214C30.683 23.6764 48.8119 11.8673 66.8575 10.525C68.9509 10.325 71.159 10.2199 73.4453 10.2378C90.8502 9.66723 110.012 20.4745 116.852 28.0385C124.816 36.4329 126.436 38.9484 131.238 48.9793C133.859 54.8306 135.952 63.5623 135.988 71.0241C135.982 74.7761 135.904 73.9072 135.71 70.1672C135.352 64.6798 134.434 60.2432 133.584 57.5527C131.772 52.2089 130.936 49.9704 127.779 43.6212C124.411 37.3541 121.888 35.0078 119.208 31.8985C116.096 29.3616 117.819 26.9385 99.1828 17.1343C88.8355 12.5511 80.1206 11.723 73.4453 11.7233C67.6476 11.7678 63.2491 12.5125 59.6773 13.3343C51.9044 14.713 36.2843 21.795 27.8366 31.8425C19.3475 39.8345 10.7658 61.0225 11.7966 73.4453C11.8052 75.0119 11.8727 76.3881 11.9647 77.5903C13.1835 88.0753 13.2142 88.1557 15.916 96.2828Z" fill="#286196"/>
<path d="M61.4993 61.3273C63.3913 63.1753 64.9313 64.7373 66.1193 66.0133C66.1193 61.6573 65.8993 58.0933 65.4593 55.3213L71.2013 58.0273H80.3753C80.3753 53.2753 80.1333 49.5133 79.6493 46.7413C82.3773 47.4893 84.2913 48.1053 85.3913 48.5893C86.4913 49.0293 87.0413 49.4033 87.0413 49.7113C87.0413 49.9313 86.8433 50.1513 86.4473 50.3713L85.3253 51.0973V58.0273H94.0373L95.1593 56.5093C95.2913 56.3333 95.5113 56.0473 95.8193 55.6513C96.1713 55.2113 96.4793 54.9913 96.7433 54.9913C97.0073 54.9913 97.5793 55.3213 98.4593 55.9813C99.3833 56.5973 100.241 57.2793 101.033 58.0273C101.825 58.7753 102.221 59.3033 102.221 59.6113C101.473 60.2273 100.593 60.6453 99.5813 60.8653V75.0553C99.6693 80.5113 99.8453 85.6813 100.109 90.5653C99.8453 91.0053 99.1853 91.4673 98.1293 91.9513C97.1173 92.3913 96.2153 92.6113 95.4233 92.6113C95.0713 92.6113 94.8073 92.4793 94.6313 92.2153C94.4993 91.9513 94.4333 91.6433 94.4333 91.2913C94.4333 91.2913 94.5213 90.6753 94.6973 89.4433V87.7933H85.3253V93.7993C85.4573 98.8153 85.6113 102.687 85.7873 105.415C85.5673 105.987 84.9953 106.515 84.0713 106.999C83.1473 107.527 82.2453 107.791 81.3653 107.791C80.8813 107.791 80.5073 107.659 80.2433 107.395C79.9793 107.131 79.8473 106.823 79.8473 106.471C80.1113 102.511 80.2873 98.5073 80.3753 94.4593V87.7933H70.9373V88.9813C70.9813 89.4213 71.0033 89.8393 71.0033 90.2353C71.0473 90.5873 71.0913 90.8513 71.1353 91.0273C71.0473 91.5113 70.5633 91.9733 69.6833 92.4133C68.8033 92.8533 67.8573 93.0733 66.8453 93.0733C66.4933 93.0733 66.2293 92.9413 66.0533 92.6773C65.9213 92.4133 65.8553 92.1053 65.8553 91.7533C65.9433 90.8733 65.9873 90.3013 65.9873 90.0373L66.1193 88.5853V86.3413C59.3873 90.7853 53.3373 94.5473 47.9693 97.6273C47.7493 98.5073 47.2873 99.0793 46.5833 99.3433L43.4813 92.8093C45.5493 92.2813 48.3873 91.4013 51.9953 90.1693V67.5973H49.5533C48.3213 67.6413 47.0013 67.9493 45.5933 68.5213L43.8773 65.1553C45.4173 65.4193 47.2653 65.5953 49.4213 65.6833H51.9953V61.4593C51.9953 55.9153 51.7093 51.4053 51.1373 47.9293C53.9093 48.6333 55.8453 49.2273 56.9453 49.7113C58.0893 50.1513 58.6613 50.5253 58.6613 50.8333C58.6613 51.0093 58.4633 51.2073 58.0673 51.4273L56.9453 52.1533V65.6833H58.5953L61.4993 61.3273ZM80.3753 71.8873V59.9413H70.9373V71.8873H80.3753ZM94.6973 71.8873V59.9413H85.3253V71.8873H94.6973ZM66.1193 67.2673C65.7673 67.4873 65.3493 67.5973 64.8653 67.5973H56.9453V88.5193C56.9453 88.5193 58.6613 87.9253 62.0933 86.7373L66.1193 85.3513V67.2673ZM70.9373 73.7353V85.8793H80.3753V73.7353H70.9373ZM85.3253 73.7353V85.8793H94.6973V73.7353H85.3253Z" fill="#286196"/>
</svg>
