<svg width="110" height="150" viewBox="0 0 110 150" fill="none" xmlns="http://www.w3.org/2000/svg">
<mask id="path-1-inside-1_113_2029" fill="white">
<path fill-rule="evenodd" clip-rule="evenodd" d="M49.0814 0.235992C40.641 1.26398 32.9221 4.05298 26.3386 8.45375C21.5634 11.6456 18.0461 15.078 14.565 19.9423C8.95859 27.7769 5.98509 38.817 7.59969 45.8027C7.75746 46.4851 7.82794 47.1019 7.75627 47.1736C7.68484 47.2453 6.73514 47.1753 5.64637 47.0182C3.04352 46.6428 2.03398 46.8479 0.898603 47.9833C0.404478 48.4776 0 49.0595 0 49.2764C0 49.6175 0.1871 49.6497 1.38729 49.5139C2.67689 49.368 2.93093 49.4276 4.99447 50.3595C6.54544 51.0599 7.65172 51.3979 8.66576 51.4809C10.0802 51.5971 10.1592 51.6406 11.7857 53.2039C13.7215 55.0642 15.5563 56.0478 18.4473 56.7742C23.0053 57.9195 28.2377 56.4482 32.0268 52.9555C33.0681 51.9959 33.0711 51.9947 34.1528 52.2672C35.5742 52.6251 36.6171 52.4058 38.0081 51.4566C39.5719 50.3896 39.771 50.3418 41.0519 50.7273C42.4569 51.1503 43.571 50.8889 44.6335 49.8869C45.0491 49.495 45.56 49.1742 45.7687 49.1742C46.6171 49.1742 47.7804 48.2766 47.7804 47.6219C47.7804 47.5701 47.3142 47.5913 46.7444 47.6696C45.7968 47.7995 45.5835 47.7233 44.2411 46.7779C42.8226 45.779 42.7157 45.7449 41.0363 45.7587L39.2987 45.7728L39.0498 44.7851C38.8873 44.1396 38.4575 43.4638 37.8099 42.8353L36.8188 41.8733L37.2018 39.9292C37.6396 37.7074 39.0714 34.5326 40.4745 32.6727C42.4351 30.0741 46.184 27.5933 49.9092 26.4296C51.4775 25.9397 52.1495 25.8754 55.7044 25.8754C59.2638 25.8754 59.9292 25.9392 61.4995 26.4312C69.0543 28.7978 73.7781 34.6618 74.1999 42.1964C74.6581 50.3853 71.2817 55.8311 60.5612 64.1943C52.5346 70.4562 49.0783 73.7066 46.2633 77.6407C42.0995 83.46 39.5127 91.2695 39.4354 98.2535C39.3952 101.867 39.6537 103.155 40.9778 105.943C42.5735 109.303 45.4995 111.806 49.3179 113.079C51.6769 113.865 55.9097 113.862 58.3063 113.072C62.0684 111.833 64.8489 109.45 66.455 106.089C67.3595 104.197 67.5381 103.534 68.216 99.5554C68.8343 95.9269 69.9732 93.677 72.7324 90.6313C74.2683 88.9365 75.6955 87.7531 82.0832 82.8786C87.5417 78.7129 87.9207 78.3842 91.8723 74.3822L94.9252 71.2904L96.5221 71.2587C98.4404 71.2206 99.8135 70.6499 102.631 68.7202C103.699 67.9891 104.827 67.327 105.137 67.249C105.796 67.0836 108.215 67.2411 108.981 67.4994C109.378 67.6331 109.551 67.5718 109.673 67.2542C109.794 66.9389 109.534 66.5542 108.657 65.7491C106.832 64.0746 104.385 63.4265 102.444 64.1035C102.027 64.2485 101.636 64.3161 101.573 64.2537C101.511 64.1912 101.402 63.6202 101.331 62.9847C101.228 62.048 101.382 61.2908 102.142 58.9905C106.523 45.7499 104.699 31.8257 97.0858 20.3934C96.1134 18.9333 95.2164 17.6761 95.0922 17.5994C94.9614 17.5185 95.0809 17.018 95.3765 16.4099C95.9348 15.2606 95.8591 14.9367 95.1235 15.3303C94.0191 15.9214 93.3705 15.6565 91.6516 13.9118C84.5328 6.68587 74.9128 2.09541 63.2021 0.33652C60.5574 -0.0608612 52.0175 -0.121415 49.0814 0.235992ZM56.5323 1.28551C56.5323 1.30727 56.0587 1.6247 55.4797 1.99062C54.9009 2.35654 53.3598 3.79823 52.0551 5.19427C48.5598 8.93486 47.3038 9.40652 42.622 8.73641C40.9686 8.49987 39.1615 8.28888 38.5555 8.26144C38.3511 8.25222 38.5049 8.05045 38.9183 7.7853C39.4174 7.4655 40.3626 7.25711 42.0203 7.101C43.6034 6.95221 44.7288 6.71118 45.3703 6.38382C46.4653 5.82535 47.5864 4.34298 48.0276 2.87077C48.2847 2.01286 48.4363 1.85414 49.1223 1.72546C50.6669 1.43547 56.5323 1.08729 56.5323 1.28551ZM58.4998 2.39912C56.8646 3.44343 56.3232 4.1554 54.6665 7.44184C52.936 10.8752 52.2441 11.7362 50.4483 12.6934C48.6892 13.6311 47.5368 13.8849 43.8891 14.1389C41.3733 14.3139 40.7404 14.4443 39.459 15.0498C37.5895 15.9335 36.0603 17.2874 35.0708 18.9345C34.2384 20.3203 33.3566 23.37 33.3434 24.9079C33.3081 29.0504 31.4256 33.2035 28.9166 34.6743C27.7133 35.3797 27.6405 35.6924 28.6801 35.6893C29.8523 35.6857 31.7191 34.6999 33.0241 33.3949C34.0516 32.3674 34.3094 31.8957 35.09 29.6155C36.105 26.6503 37.1467 24.9413 38.4694 24.0725C40.3704 22.8238 41.484 22.6895 44.959 23.2891C46.5667 23.5665 47.3816 23.6004 48.2083 23.4239C48.8153 23.2945 49.3437 23.2205 49.3825 23.2593C49.4213 23.2981 49.0501 23.5235 48.5577 23.76C47.9043 24.0737 46.8565 24.227 44.6837 24.3261C41.9032 24.4531 41.6361 24.5077 40.664 25.1511C38.6648 26.4743 37.8974 27.9858 37.5954 31.1975C37.298 34.3583 37.1774 34.9806 36.4368 37.1776C36.0763 38.2467 35.6484 39.686 35.4859 40.3763C35.2347 41.4438 35.1162 41.6202 34.6931 41.5589C34.3392 41.5076 34.1367 41.2377 33.9924 40.6249C33.8096 39.8481 33.873 39.6536 34.633 38.6581C35.6293 37.3529 36.0543 35.9476 36.4243 32.7349C36.8768 28.8054 37.6022 26.9327 39.2481 25.4458C39.7777 24.9673 40.2112 24.52 40.2112 24.4519C40.2112 24.384 39.8122 24.5335 39.3242 24.7845C37.1228 25.9168 36.0901 27.9841 35.4611 32.5173C35.0022 35.8239 34.4007 37.6556 33.4938 38.5076C32.9763 38.9939 32.9432 38.9956 31.9918 38.5899C31.4568 38.3619 30.8413 37.8744 30.6239 37.5066C30.0288 36.5004 28.9223 35.9306 27.5565 35.9268L26.3738 35.9237L27.5612 35.2427C29.6059 34.07 31.2198 32.0066 31.9287 29.66C32.086 29.1396 32.2863 26.6382 32.3741 24.1014C32.5304 19.5752 32.5474 19.4593 33.2772 17.9088C34.2332 15.8775 35.6588 14.343 37.339 13.5364C38.5687 12.9463 38.99 12.8829 42.6949 12.732C47.9526 12.5179 49.5873 11.9623 51.7261 9.66174C52.6715 8.64487 53.7421 7.04021 53.5819 6.88007C53.5306 6.82874 52.7441 7.53102 51.8342 8.44098C50.8182 9.4569 49.6486 10.3527 48.8027 10.7628C47.4774 11.4053 47.3187 11.4268 44.5872 11.3303C37.8444 11.0921 37.3922 11.1299 35.4386 12.0955C31.901 13.8439 30.1475 16.359 29.1716 21.0853C28.0419 26.5568 27.1501 27.9198 23.5567 29.6678C22.3622 30.2489 21.2523 30.7244 21.0906 30.7244C20.639 30.7244 18.9047 31.6547 17.9368 32.4163C16.7806 33.3261 15.7174 34.9738 15.3806 36.3774C15.1575 37.3074 14.9326 37.6346 14.1761 38.1299C13.3847 38.6481 13.2458 38.6793 13.2449 38.3387C13.242 37.3441 14.1759 35.5292 15.5258 33.9051C17.0243 32.1029 17.6031 30.9188 17.4547 29.9597C17.3864 29.5188 17.2785 29.6276 16.8485 30.5721C16.5606 31.2041 15.7361 32.3574 15.0161 33.1352C13.2037 35.0927 12.4896 36.5808 12.3515 38.6876C12.2557 40.1471 12.1729 40.4004 11.7559 40.5094C11.4895 40.5792 11.183 40.5813 11.0744 40.5142C10.6922 40.2781 10.2255 39.1091 10.0933 38.057C10.0195 37.4716 10.0147 37.1788 10.0826 37.4065C10.3149 38.1871 10.6441 37.8205 10.6441 36.7809C10.6441 35.15 11.4862 32.8099 12.6346 31.2502C13.3889 30.2255 14.2475 29.4636 15.7661 28.4721C16.9169 27.7206 18.2594 26.8397 18.7496 26.5147C20.78 25.1679 22.3127 22.7503 22.5952 20.4483C22.6758 19.7905 22.642 18.9863 22.5199 18.661C22.3274 18.1482 22.2595 18.2958 22.0104 19.7711C21.6788 21.7358 20.5858 23.7839 19.2151 25.0099C18.7292 25.4444 17.3053 26.4322 16.0509 27.205C14.7966 27.9777 13.273 29.1417 12.6649 29.7917C11.2984 31.2526 10.2153 33.5132 9.93359 35.492L9.72024 36.9926L9.80444 35.1003C9.93217 32.237 10.5914 30.7083 12.5081 28.8321C13.5379 27.8237 14.7194 26.9689 15.9407 26.3485C19.3336 24.6246 20.8912 22.5674 21.7611 18.6624C22.0334 17.4398 22.4272 16.079 22.6366 15.6383C23.0122 14.8464 24.5362 13.5722 26.3738 12.5137C27.2341 12.0181 27.1759 12.1113 25.7293 13.5428C23.7284 15.5231 23.2832 16.7583 23.5371 19.6247C23.8036 22.6365 23.4493 23.6588 21.4815 25.5549C19.7222 27.2501 19.2609 28.1842 19.73 29.1013C19.9436 29.519 20.1889 29.647 20.7022 29.6086C21.9617 29.5143 24.267 28.1757 25.5072 26.8189C26.8386 25.3621 27.3176 24.1588 28.2482 19.9355C29.0098 16.4785 29.9997 14.4128 31.7222 12.6863C33.3119 11.0933 35.296 10.0698 37.5885 9.65985C38.92 9.42189 39.6698 9.44271 42.2313 9.78758C47.6054 10.5111 48.6991 10.1095 52.8806 5.87692C56.0353 2.68391 57.4578 1.72168 59.1233 1.65403C59.5973 1.63463 59.4831 1.77135 58.4998 2.39912ZM46.593 2.46346C45.5749 3.54703 43.83 4.20697 41.2903 4.46882C38.2049 4.78672 37.488 4.99842 35.7984 6.09051C34.3806 7.00685 33.3233 8.15453 32.0623 10.1457C31.6914 10.7311 30.9951 11.6891 30.5146 12.2745C28.6744 14.5171 27.9962 16.0707 27.193 19.8856C26.24 24.4105 25.37 25.9918 22.9417 27.6135C20.2054 29.4407 19.7416 28.6618 22.1384 26.265C24.4359 23.9675 24.5998 23.5429 24.5998 19.8903C24.5998 16.2029 24.852 15.6005 27.2275 13.6107C29.0327 12.0988 29.6506 11.0114 29.7147 9.23385C29.7686 7.73586 29.8682 7.65449 33.8527 5.86107C37.5646 4.19018 40.9312 3.14776 45.8881 2.13515C46.4735 2.01546 46.9977 1.90618 47.0528 1.89222C47.1082 1.87827 46.9012 2.13538 46.593 2.46346ZM66.9399 2.35583L68.2408 2.66168L67.2112 2.84736C65.1585 3.21801 63.432 4.70039 62.9488 6.50729C62.8327 6.94133 62.5218 7.21051 61.8832 7.43002C60.7542 7.81817 59.9259 8.58408 59.5696 9.56902C59.3558 10.1606 59.0835 10.3933 58.347 10.614C56.3646 11.208 55.3827 13.0125 55.8766 15.1529C56.1323 16.2604 56.1157 16.3465 55.5364 16.9258C54.8628 17.5997 54.025 17.6782 51.9058 17.2669C49.5873 16.8167 47.5699 17.7818 46.8482 19.6862C46.4771 20.6657 46.7214 20.818 47.845 20.308C49.2725 19.6599 49.9151 19.7254 52.5681 20.7898C55.7718 22.0752 56.6065 22.0605 59.2397 20.6716C61.9795 19.2266 62.5396 19.2476 64.7372 20.8781C65.6723 21.5716 66.9127 22.2725 67.4936 22.4352C68.686 22.7689 70.4844 22.6687 71.572 22.2076C72.1955 21.9434 72.4138 21.9546 73.0742 22.284C74.9242 23.207 77.0755 22.9622 78.8213 21.63C79.5702 21.0586 79.9534 20.9074 80.3042 21.0446C80.9722 21.306 83.8272 21.3057 84.5145 21.0444C85.0874 20.8265 85.087 20.8305 84.3092 22.3758C82.4195 26.1323 82.7568 29.5881 85.3897 33.4446C88.3751 37.8169 88.4441 41.8234 85.6076 46.0711C84.8105 47.2644 82.0397 49.8839 81.5744 49.8839C81.4911 49.8839 81.775 49.2185 82.2048 48.4055C84.0516 44.9123 84.2371 40.8862 82.7164 37.2932C82.2287 36.1411 80.4371 34.2405 78.6061 32.9332C75.8805 30.9869 75.0663 29.6621 74.8222 26.7764C74.742 25.8255 74.5871 25.0475 74.4783 25.0475C74.3695 25.0475 74.0126 25.5762 73.6852 26.2224C73.2199 27.1406 73.0898 27.7542 73.0898 29.032C73.0898 31.4375 73.8082 32.8783 76.4099 35.6917C78.3239 37.7616 78.6378 38.5171 78.6208 41.0137C78.6047 43.3881 78.1207 45.0725 76.8545 47.1616C75.9302 48.6867 74.6278 50.2018 74.8194 49.529C74.8934 49.2689 75.0886 48.577 75.253 47.9916C75.7556 46.2019 75.6193 40.4302 75.0226 38.2257C73.2984 31.8579 68.4019 27.0233 61.7361 25.1073C58.9605 24.3097 54.4276 24.1234 51.4467 24.6842C47.0663 25.5083 43.2328 27.6293 40.2266 30.8919L38.5555 32.7054V31.7647C38.5555 30.353 39.2088 28.1227 39.8801 27.2426C40.9227 25.8756 42.0924 25.4522 45.323 25.2722C47.866 25.1308 48.3289 25.0362 49.4442 24.4297C50.958 23.6068 52.693 21.366 52.1991 20.8722C52.1339 20.8069 51.363 21.1342 50.4861 21.5995C48.6194 22.5901 47.1541 22.697 44.0987 22.065C41.8483 21.5997 40.8321 21.7185 38.8923 22.6734C36.7299 23.7378 35.4138 25.3867 34.2614 28.4744C34.018 29.1266 33.8775 29.3598 33.9489 28.9927C34.0204 28.6258 34.2309 27.0292 34.417 25.4447C34.6029 23.8603 34.9135 22.0395 35.1072 21.3987C35.8547 18.9243 38.1233 16.5944 40.6405 15.7159C41.2018 15.52 42.9998 15.2511 44.6361 15.1182C48.1298 14.8343 49.083 14.6099 50.915 13.6389C52.8437 12.6166 53.9408 11.2988 55.571 8.04714C57.5354 4.12844 58.3127 3.32753 61.25 2.1957C62.234 1.81677 64.9738 1.89364 66.9399 2.35583ZM73.17 4.10904C75.6612 4.92226 79.7727 6.79279 82.0612 8.15406C85.3621 10.1175 90.9807 14.6319 89.6736 14.2704C89.3628 14.1843 88.4555 14.1179 87.6574 14.1223L86.2063 14.1309L85.6206 12.9077C84.8904 11.3825 83.9814 10.8208 82.2185 10.8049C81.0311 10.7943 80.9194 10.7453 80.7768 10.1738C80.522 9.15319 79.5406 8.07411 78.5919 7.77134C78.0838 7.60931 77.3376 7.07285 76.8512 6.52006C76.0371 5.59449 75.9302 5.54837 74.3676 5.4476C72.8233 5.34826 72.692 5.29338 71.9388 4.43263C71.501 3.93211 71.1947 3.52267 71.2581 3.52267C71.3217 3.52267 72.182 3.78664 73.17 4.10904ZM70.4238 4.55302C70.8437 4.77064 71.4291 5.37641 71.7248 5.89915C72.1539 6.6582 72.3573 6.81833 72.735 6.69486C72.9952 6.60971 73.6582 6.48931 74.2082 6.4271C75.0824 6.32847 75.2981 6.4044 75.9231 7.02909C76.3162 7.42221 76.6379 7.91184 76.6379 8.11692C76.6379 8.322 76.771 8.49775 76.9335 8.50744C77.9327 8.56681 78.4869 8.80974 79.0624 9.44034C79.5716 9.99833 79.7129 10.3863 79.7129 11.2255C79.7129 13.0759 78.9271 14.0528 76.9662 14.6404C74.3894 15.4124 71.9412 12.9631 73.6682 11.3407C74.7295 10.3437 76.1087 11.1716 75.4469 12.4084C75.0881 13.0788 75.2347 13.3226 75.8746 13.1194C77.1053 12.7289 76.8505 10.7238 75.4992 10.1639C74.111 9.58889 72.3547 10.5388 72.0242 12.0437C71.7733 13.1864 72.6257 14.7508 73.8363 15.3684C76.1019 16.5241 78.8154 15.7251 80.1959 13.4955C81.1706 11.9219 81.3057 11.8015 82.0993 11.8015C84.2596 11.8015 85.7095 14.3925 84.5443 16.1708C83.755 17.3757 81.8417 17.1233 81.8417 15.8143C81.8417 15.1891 81.9204 15.113 82.5686 15.113C83.1332 15.113 83.2782 15.0205 83.2171 14.699C83.0941 14.0504 81.9008 14.0289 81.2257 14.6631C79.9416 15.8694 81.0864 17.9514 83.0341 17.9514C83.8681 17.9514 84.1699 17.8076 84.9285 17.0493C85.763 16.2148 85.8403 16.1835 85.9617 16.6353C86.2391 17.6678 86.0882 18.3462 85.4489 18.9446C83.8629 20.4284 82.157 20.6943 80.4575 19.7226C79.1792 18.9919 79.0901 18.9926 78.9037 19.7351C78.6702 20.6657 76.8065 21.736 75.42 21.736C74.8012 21.736 74.0289 21.6149 73.7041 21.4668L73.1135 21.1976L73.5411 20.3433C74.1937 19.0397 74.3203 18.2241 74.0173 17.277C73.4822 15.605 72.1505 14.6399 70.3779 14.6399C69.4784 14.6399 69.1508 14.775 68.4147 15.4496C67.6426 16.1573 67.5312 16.3948 67.5312 17.3352C67.5312 18.6217 68.1039 19.3205 69.3194 19.5178C70.7599 19.7517 72.0465 18.1853 71.1502 17.2891C70.6999 16.8387 70.5137 16.9546 70.5617 17.6557C70.5993 18.2059 70.5038 18.318 69.9415 18.3824C68.562 18.5406 68.1273 17.2155 69.2049 16.1379C69.7213 15.6215 69.9614 15.5484 70.7786 15.6579C72.2208 15.8514 72.9716 16.7134 72.9716 18.1759C72.9716 20.1744 71.4842 21.4983 69.2385 21.499C67.8155 21.4995 66.8195 21.0843 64.8408 19.6661C63.4171 18.6456 63.1543 18.5437 61.9726 18.5529C60.8663 18.5617 60.424 18.7147 59.0159 19.5748C57.4039 20.5597 57.3164 20.5836 55.7044 20.4812C54.4893 20.4041 53.6394 20.1793 52.5111 19.637C51.6655 19.2306 50.6276 18.8978 50.2049 18.8978C49.7822 18.8976 49.4362 18.7996 49.4362 18.6797C49.4362 18.3046 50.7312 18.1574 51.8212 18.4086C52.3957 18.5411 53.3634 18.652 53.9713 18.6553C55.3361 18.6624 56.3832 17.8752 57.0678 16.3276C57.4888 15.3758 57.4964 15.2601 57.1501 15.0664C56.3688 14.629 56.9192 12.354 57.9385 11.8085C58.1887 11.6744 58.8262 11.5649 59.3551 11.5649C60.2549 11.5649 60.3168 11.5214 60.3168 10.8903C60.3168 9.8434 61.2564 8.62193 62.1275 8.5363C62.7728 8.47291 62.9315 8.58834 63.4767 9.51887C64.7344 11.6647 67.153 12.1087 68.7709 10.4908C69.4424 9.81928 69.5595 9.54726 69.4975 8.80193C69.441 8.12496 69.2719 7.82882 68.7865 7.55751C68.0133 7.12559 67.6618 7.37703 68.2027 7.975C68.7728 8.60466 68.6853 9.33106 67.9724 9.89189C66.1645 11.3142 63.543 9.38334 63.942 6.92359C64.0825 6.05763 64.9646 4.90735 65.8755 4.40235C67.0702 3.73981 68.9762 3.80297 70.4238 4.55302ZM46.0672 4.52795C45.4087 5.52448 44.3506 5.92943 41.9039 6.12173C39.3034 6.3261 38.414 6.68043 37.4409 7.90002C37.0781 8.35464 36.6464 8.72648 36.481 8.72648C36.3159 8.72648 35.5415 8.98619 34.7602 9.30362L33.3396 9.88101L33.8302 9.19174C34.1001 8.81281 34.768 8.13797 35.3147 7.69234C36.9835 6.33154 38.1964 5.83316 40.413 5.59662C42.8581 5.33596 45.2234 4.78388 45.8143 4.33588C46.418 3.87818 46.4702 3.91792 46.0672 4.52795ZM28.5327 9.37813C28.3307 9.76842 27.4666 10.5216 26.5638 11.094C23.6227 12.9586 23.1666 13.2923 22.4608 14.0961C21.5433 15.1413 21.1154 16.1932 20.5588 18.7743C19.818 22.2079 18.776 23.4665 14.6653 25.8922C13.6896 26.4681 12.6422 27.1181 12.338 27.3372L11.7847 27.735L12.1639 26.8274C14.4389 21.3826 20.8434 13.8298 26.357 10.0892C27.649 9.21303 28.7477 8.53796 28.799 8.58928C28.8504 8.64061 28.7305 8.99565 28.5327 9.37813ZM36.71 12.8285C35.0408 13.7023 33.3772 15.5115 32.4351 17.4783L31.5852 19.2524L31.4357 23.9831C31.3111 27.9314 31.2044 28.9428 30.7907 30.0987C30.0276 32.2309 28.9336 33.4604 26.6915 34.7055L25.8263 35.1859L25.3906 34.7041C24.71 33.9517 23.3362 33.3488 21.9236 33.1827C20.1752 32.9772 18.3262 33.7944 17.2835 35.2335C16.4471 36.3883 16.3563 36.3038 17.025 34.9932C17.6901 33.6896 19.304 32.4653 21.4432 31.6414C25.467 30.0921 27.6767 28.4212 28.7562 26.1119C29.0602 25.4614 29.5869 23.6103 29.9269 21.9983C30.8489 17.625 31.2673 16.681 33.0936 14.8544C34.207 13.7406 35.0245 13.1528 35.9536 12.797C37.6524 12.1468 37.9859 12.1608 36.71 12.8285ZM60.9082 12.5111C60.6643 12.9056 61.0172 13.2207 61.7027 13.2207C62.972 13.2207 63.3914 14.5559 62.339 15.2454C61.6109 15.7225 61.0213 15.542 60.3526 14.6375C59.7757 13.8572 59.2264 13.7493 58.5289 14.2789C58.0929 14.6099 58.1045 14.625 58.7611 14.5786C59.1931 14.5484 59.4958 14.6605 59.5684 14.8783C59.6323 15.0699 59.9784 15.5205 60.3374 15.8793C61.7692 17.3113 63.8649 16.3536 63.8649 14.2678C63.8649 13.4553 63.7417 13.158 63.2416 12.7649C62.593 12.2544 61.1629 12.099 60.9082 12.5111ZM90.6631 15.9408C91.521 16.3962 92.5014 16.7687 92.8416 16.7687C93.1935 16.7687 93.397 16.8707 93.3137 17.0053C93.2333 17.1354 92.9875 17.2427 92.7675 17.2442C92.5476 17.2453 91.7831 17.5185 91.0685 17.8511C89.6041 18.5328 88.2324 18.4905 88.223 17.7634C88.2201 17.5415 88.0153 16.914 87.7676 16.3687C87.3532 15.4557 87.349 15.3691 87.7137 15.2726C88.6293 15.0304 89.1847 15.1563 90.6631 15.9408ZM87.0594 21.5371C86.2429 25.3446 87.6489 28.7044 91.4583 32.0488C95.769 35.8333 97.2651 41.4736 95.3252 46.626C95.0539 47.3468 94.266 48.5531 93.4589 49.4834C91.6814 51.5325 91.3081 52.7315 91.9874 54.2087L92.4459 55.2059L92.466 53.9547C92.4889 52.5042 93.0502 51.2645 94.1482 50.2387C95.6346 48.85 98.0087 45.722 98.6637 44.2895C99.4899 42.4821 99.8994 40.0375 99.6872 38.1753C99.3932 35.5916 98.711 33.9243 96.804 31.1284C94.8408 28.2495 94.1359 26.7113 94.152 25.3406L94.1624 24.4562L94.4827 25.3543C94.9449 26.65 95.7181 27.7189 97.9896 30.2028C99.0956 31.412 100.329 33.0176 100.73 33.7707C101.864 35.8984 102.467 38.8326 102.485 42.3147C102.498 44.9038 102.422 45.5091 101.871 47.1831C101.522 48.2439 100.651 50.0338 99.9147 51.2042C98.0629 54.147 97.6695 55.2454 97.6648 57.4883C97.6598 59.6739 97.3429 59.8981 96.554 58.2745C95.9423 57.0154 95.9059 56.1509 96.3873 54.3033C96.7825 52.7859 97.0649 52.2793 98.6526 50.2387C101.486 46.5972 102.55 42.1813 101.583 38.0776C101.221 36.5448 100.022 34.0158 99.8715 34.4685C99.8265 34.6033 100.018 35.4393 100.297 36.3263C100.602 37.2954 100.856 38.8825 100.933 40.3041C101.137 44.075 100.353 46.4564 97.7783 49.8839C96.1692 52.0259 95.3789 53.7124 95.1762 55.4368C95.0411 56.5852 94.978 56.7013 94.5986 56.4984C94.3644 56.373 93.7612 56.2703 93.2581 56.2703C92.4227 56.2703 92.2978 56.1833 91.8155 55.2651C91.525 54.712 91.1215 53.9937 90.9188 53.6684C90.5675 53.1048 90.595 52.9995 91.5063 51.4213C93.4367 48.0788 94.3282 44.2221 93.8972 41.0757C93.4332 37.6864 92.492 35.9183 89.2642 32.373C88.491 31.5236 87.6321 30.4592 87.3561 30.0077C86.6438 28.8432 86.0993 26.8291 86.0993 25.3593C86.0993 23.686 85.7041 23.7522 85.4903 25.4614C85.1882 27.8746 85.8515 30.0387 87.7556 32.8532C89.9639 36.1172 90.7868 38.9779 90.3731 41.9509C90.2456 42.8665 89.9892 44.0471 89.803 44.5743C88.728 47.6204 86.5551 50.5242 84.4713 51.6995C83.8707 52.0382 82.6873 52.7216 81.8417 53.2183C80.3849 54.0736 74.6453 56.0125 74.3737 55.7407C74.0024 55.3694 74.7931 54.0845 76.5057 52.2757C78.8509 49.7992 80.3522 47.6349 81.0358 45.7445C82.113 42.7665 82.0558 40.165 80.8674 38.084C80.0076 36.5789 79.7065 36.66 80.3293 38.2292C80.6637 39.0718 80.7735 39.9276 80.7626 41.6051C80.7378 45.366 79.7039 47.5041 75.9212 51.6184C73.5929 54.151 72.9945 55.2308 73.5494 55.8995C73.7566 56.149 73.619 56.3713 72.92 56.9173C71.0093 58.4093 67.6492 60.5181 67.6495 60.225C67.6495 60.1964 68.3458 59.4281 69.1969 58.5174C70.048 57.6068 71.4267 55.9037 72.2608 54.7329C73.095 53.562 74.5779 51.6993 75.5562 50.5935C77.5556 48.3338 79.0505 45.6666 79.4815 43.5901C79.6386 42.8341 79.7199 41.3598 79.6625 40.3136C79.5314 37.9276 79.0297 36.9044 76.8744 34.6272C75.1328 32.7872 74.4258 31.6095 74.1769 30.133L74.0173 29.1869L74.6349 30.2513C75.445 31.6481 76.149 32.3768 78.3109 34.0572C81.642 36.6463 82.623 38.4378 82.6376 41.9599C82.6499 44.8534 82.0113 46.8808 80.3711 49.1546C78.4864 51.7679 78.2889 52.1026 78.5051 52.3188C78.9647 52.7784 82.8602 50.5133 84.8549 48.6267C87.5179 46.1083 88.7994 43.0032 88.6643 39.3984C88.5733 36.9749 88.0536 35.5994 85.9584 32.2377C83.6505 28.535 83.632 26.3201 85.8699 21.6925C86.3827 20.6316 86.8837 19.3827 86.983 18.9167L87.1638 18.0697L87.2368 19.2192C87.2771 19.8515 87.1973 20.8946 87.0594 21.5371ZM95.386 20.3813C97.0288 22.623 99.9062 28.0302 100.575 30.133C101.339 32.5313 101.337 32.5424 100.416 31.3157C99.928 30.6653 98.8061 29.388 97.9231 28.4773C95.7306 26.2165 95.2405 25.1956 95.1682 22.741C95.1365 21.6676 95.0532 20.7924 94.9834 20.796C94.1674 20.8393 93.573 21.7653 93.1772 23.6098C92.7219 25.7335 93.6735 28.6722 95.6587 31.2732C98.457 34.9388 99.3307 38.8929 98.1587 42.5855C97.2596 45.418 97.0893 45.4154 97.1775 42.5706C97.3251 37.8096 96.0663 35.0161 91.9132 30.8874C88.7559 27.7488 88.1873 26.751 88.0553 24.1182C88.0061 23.1332 88.0512 21.6887 88.1563 20.9081L88.3467 19.4889L89.6583 19.3706C90.3795 19.3056 91.2355 19.0783 91.5603 18.8651C92.1549 18.4756 92.7768 18.2615 93.432 18.2208C93.6271 18.2088 94.5066 19.1812 95.386 20.3813ZM33.746 30.1725C33.6592 30.2591 33.5882 30.1882 33.5882 30.0148C33.5882 29.8414 33.6592 29.7704 33.746 29.857C33.8325 29.9438 33.8325 30.0857 33.746 30.1725ZM23.4949 34.5951C24.3886 34.9686 25.4802 36.1749 25.6936 37.025C25.8024 37.4591 25.9412 37.5672 26.2255 37.4397C26.92 37.1281 28.5609 37.0619 29.0536 37.3257C29.3192 37.468 29.6681 37.948 29.8289 38.3927C30.0683 39.055 30.3039 39.252 31.1332 39.4843C32.7447 39.9354 33.3171 40.9723 32.8627 42.6174C32.344 44.496 30.3902 45.8069 28.5675 45.4989C26.6851 45.1808 25.7432 43.5028 26.7374 42.2388C27.1371 41.7309 27.4212 41.5958 27.974 41.6512C28.3686 41.6909 28.8087 41.914 28.9519 42.1472C29.164 42.4923 29.1063 42.6517 28.6415 43.0051C28.0708 43.4394 28.0708 43.4394 28.5658 43.7043C28.9571 43.9137 29.1392 43.8914 29.432 43.5986C30.966 42.0647 29.0183 39.8547 26.9094 40.7358C24.5352 41.7278 24.6566 45.05 27.1095 46.214C27.7299 46.5085 28.382 46.5974 29.4297 46.5307C31.1656 46.4202 32.4937 45.5999 33.42 44.0669C34.8191 41.7503 38.0824 43.0531 38.0824 45.928C38.0824 46.7909 37.4317 47.575 36.4742 47.8657C35.7977 48.071 34.7709 47.4482 34.7709 46.8323C34.7709 46.2814 35.3667 45.7684 35.809 45.9382C36.2757 46.1172 36.4749 45.8511 36.1591 45.4706C35.7386 44.9637 34.61 45.0833 34.193 45.6789C33.3831 46.8351 33.9818 48.3719 35.411 48.8048C36.13 49.0229 37.7359 48.5025 38.4838 47.8094C39.9891 46.4143 41.9072 46.3729 43.4984 47.7013C44.203 48.2896 44.2667 48.4318 44.0256 48.8821C43.6169 49.6459 42.1035 50.0296 40.9104 49.6722C39.7793 49.3332 39.3583 49.4422 37.6985 50.5041C35.9888 51.5978 34.5788 51.6153 33.1445 50.5603L32.1347 49.8176L31.4208 50.6836C31.0284 51.1597 30.4028 51.7068 30.0307 51.8994C29.265 52.2953 27.5246 52.3602 26.6447 52.0257L26.0566 51.8022L26.511 50.9114C27.4801 49.0103 26.9155 46.6388 25.2524 45.625C24.3297 45.0623 22.339 44.9996 21.662 45.5117C20.9865 46.0229 20.3455 47.0906 20.3438 47.7077C20.3393 49.2357 21.9106 50.4116 23.2676 49.8957C23.9657 49.6303 24.5024 48.695 24.2836 48.125C24.0839 47.6048 23.8053 47.6649 23.5323 48.2872C23.0585 49.3675 21.5248 48.8708 21.5248 47.637C21.5248 46.9624 22.545 46.0993 23.3426 46.0993C24.6677 46.0993 26.019 47.413 26.019 48.7012C26.019 49.3746 25.4842 50.3539 24.733 51.0559C24.2391 51.5171 23.7968 51.6565 22.5793 51.734C20.6802 51.8549 20.0131 51.6013 17.7651 49.9037C16.1186 48.6607 15.9367 48.5829 14.6721 48.5829C13.5188 48.5829 13.1138 48.7158 11.8091 49.5234C9.68523 50.8376 8.47582 50.8302 5.55861 49.4851C4.38775 48.9453 3.2169 48.4249 2.95671 48.3286C2.0063 47.9774 3.84183 47.8395 5.46802 48.1399C7.96253 48.6006 9.10642 48.1768 10.2167 46.3803C10.6233 45.7222 10.6673 45.4812 10.4457 45.1262C10.2945 44.8842 10.1711 44.2545 10.1711 43.7263C10.1711 42.3249 10.9595 41.6051 12.4946 41.6051H13.6569L13.7913 40.6022C13.9448 39.4583 14.6194 38.7666 15.5819 38.7666C16.0623 38.7666 16.347 38.9928 16.7974 39.7322C17.6175 41.079 19.1297 41.9395 20.3805 41.7718C22.181 41.5303 23.4221 39.6499 22.6046 38.4021C22.2271 37.8259 21.5248 37.6015 21.5248 38.057C21.5248 38.1871 21.6313 38.2936 21.7614 38.2936C21.8915 38.2936 21.9979 38.6086 21.9979 38.9939C21.9979 40.9347 18.9693 41.2928 17.8975 39.4786C17.2069 38.3094 17.5434 36.3476 18.5951 35.4123C19.8691 34.2798 21.9208 33.9375 23.4949 34.5951ZM91.4626 36.5683C92.5062 38.3491 92.9863 40.31 92.9856 42.7878C92.9849 45.8518 92.1417 48.5238 90.1827 51.6702L89.5859 52.6289L88.3748 52.2102C87.7087 51.98 86.9686 51.7882 86.7299 51.784C86.4026 51.778 86.6249 51.4133 87.6354 50.2978C90.9256 46.6662 92.1632 41.2562 90.7333 36.7542C90.1049 34.7744 90.3714 34.7065 91.4626 36.5683ZM16.4788 36.7956C16.392 36.8821 16.321 36.8112 16.321 36.6378C16.321 36.4644 16.392 36.3935 16.4788 36.48C16.5654 36.5668 16.5654 36.7088 16.4788 36.7956ZM9.92011 40.7597C10.1283 41.0107 10.0476 41.2907 9.56483 41.9951C8.99738 42.8228 8.95102 43.0574 9.05793 44.5618L9.17549 46.2175L8.85641 44.68C8.50444 42.9831 8.43868 40.9761 8.67191 39.0342L8.82447 37.7644L9.2377 39.0999C9.46478 39.8344 9.77204 40.5813 9.92011 40.7597ZM14.2513 42.5803C13.682 43.162 13.9183 43.4974 14.8973 43.4974C15.7202 43.4974 15.8588 43.5768 15.9974 44.1287C16.12 44.6174 16.0351 44.8577 15.6209 45.1931C14.841 45.8244 14.4744 45.7357 13.5124 44.6834L12.6505 43.7405L11.8838 44.207C10.936 44.7832 10.9275 44.8624 11.8268 44.7304C12.2171 44.6732 12.5364 44.7335 12.5364 44.8648C12.5364 44.9958 12.8454 45.4337 13.2226 45.8377C14.1596 46.8406 15.3628 46.8574 16.3392 45.8809C17.1813 45.0389 17.3038 43.5813 16.5869 42.9325C15.9958 42.3975 14.6317 42.1919 14.2513 42.5803ZM102.804 49.45C102.489 52.8363 100.609 60.2915 100.07 60.2915C99.9606 60.2915 99.6195 60.0876 99.3125 59.8383C98.8087 59.4293 98.7555 59.2034 98.7694 57.532C98.7869 55.4604 99.1226 54.5103 100.692 52.0907C101.213 51.2879 101.881 49.9841 102.177 49.1932C102.473 48.4022 102.77 47.755 102.838 47.755C102.906 47.755 102.891 48.5179 102.804 49.45ZM15.1383 50.98C17.3987 54.6021 21.4449 55.8725 25.0729 54.0994C26.2317 53.5329 26.9463 53.3437 27.974 53.3307C29.1702 53.3158 29.2863 53.3531 28.9202 53.6363C27.5277 54.7123 23.964 55.7847 21.7519 55.7932C18.3214 55.8063 14.617 53.6748 13.3111 50.9367C12.9613 50.2029 12.9539 50.0639 13.2548 49.8734C13.9341 49.4437 14.3218 49.6714 15.1383 50.98ZM17.1629 50.7335C19.0913 52.3041 20.6206 52.9536 22.3965 52.9565C23.2012 52.9579 24.1147 52.8618 24.4267 52.7431C24.7389 52.6244 25.1252 52.6085 25.2853 52.7074C25.7976 53.0241 23.3346 53.905 21.9371 53.905C20.1357 53.905 18.6415 53.3217 17.2587 52.0784C16.0805 51.019 15.1424 49.6473 15.596 49.6473C15.7245 49.6473 16.4296 50.136 17.1629 50.7335ZM12.6538 51.8353L13.3068 52.8406L12.4487 52.0255C11.6052 51.2245 11.3897 50.83 11.7954 50.83C11.9082 50.83 12.2945 51.2823 12.6538 51.8353ZM88.4798 53.6093C90.9339 54.8537 91.9241 57.4769 90.6271 59.298C89.939 60.2645 88.5506 60.7189 87.5512 60.305C86.1575 59.7278 86.0603 57.8866 87.4055 57.5488C87.726 57.4684 87.9297 57.3076 87.8578 57.1912C87.6037 56.7801 86.5433 56.9878 85.9704 57.5607C85.1423 58.3885 85.1856 59.5826 86.0799 60.5834C86.7375 61.3195 86.8501 61.3559 88.4623 61.3559C90.141 61.3559 90.1616 61.3481 91.0673 60.3773C91.5721 59.8361 92.0972 58.9636 92.2422 58.4259C92.4863 57.519 92.5608 57.453 93.3409 57.453C94.3322 57.453 95.4515 58.4261 95.6866 59.4924C95.7692 59.8669 95.8733 60.2941 95.9175 60.4419C95.9681 60.6103 96.3797 60.6716 97.0214 60.6063C100.413 60.261 101.501 64.9855 98.3089 66.1952C97.1033 66.6519 95.7973 65.9087 95.7973 64.7658C95.7973 63.5079 96.9916 62.9561 97.5461 63.9578C97.6901 64.218 97.8403 64.481 97.8798 64.5423C97.9846 64.7043 98.3914 64.0098 98.3957 63.6621C98.4021 63.1287 97.4673 62.4203 96.7567 62.4203C96.3615 62.4203 95.7732 62.6672 95.3967 62.9913C94.8384 63.4717 94.7365 63.7359 94.7559 64.6553C94.8091 67.2057 97.8062 68.2644 99.8826 66.4665C101.493 65.0716 105.286 64.6303 106.896 65.6497L107.63 66.1145L106.482 66.1318C105.161 66.1517 103.56 66.7979 101.983 67.9467C99.8369 69.5107 98.444 70.0609 96.5845 70.0796C95.0416 70.095 94.7209 70.0091 93.0429 69.1304C92.0281 68.5991 91.0018 67.902 90.7624 67.5813C90.204 66.8334 90.4317 65.7954 91.2345 65.4295C91.8072 65.1686 91.8084 65.1627 91.3128 64.9794C90.6274 64.7261 89.94 65.2001 89.6296 66.1401C89.3106 67.1075 89.5123 67.7816 90.4024 68.7197C91.0299 69.3811 91.0718 69.5145 90.7925 69.9618C90.1146 71.0473 87.5801 71.6736 86.7276 70.9661C86.3839 70.6809 86.3936 70.5673 86.8357 69.7007C87.5533 68.294 87.5112 66.4563 86.7347 65.2826C85.2055 62.9721 81.5893 63.2103 80.9111 65.6665C80.3454 67.7156 83.0343 69.6098 83.9856 67.8325C84.3837 67.0883 83.891 66.699 83.2666 67.2643C82.8044 67.6823 82.7713 67.6825 82.3148 67.2693C81.2035 66.2635 82.0979 64.7857 83.8177 64.7857C85.5272 64.7857 86.6895 66.4194 86.2436 68.1956C86.0468 68.9802 85.0162 70.1614 84.1198 70.6302C83.2408 71.0898 80.9213 71.1454 79.6958 70.736C78.7575 70.4223 77.5871 69.3009 77.0655 68.2154C76.873 67.815 76.5769 67.5413 76.3855 67.5872C74.3792 68.0683 73.8579 67.9503 71.8156 66.5521C70.1565 65.416 69.0292 65.1584 67.5312 65.5736L66.8216 65.7704L67.4129 65.1372C67.7382 64.789 68.2917 64.3547 68.6429 64.1718C69.8743 63.5311 72.6738 63.9204 73.8297 64.8933C74.1971 65.2022 74.8191 65.5258 75.2123 65.6121C76.1272 65.8132 77.4811 65.3675 77.9381 64.7149C78.4767 63.946 78.3935 62.5317 77.7759 61.9564C77.0845 61.3121 75.7963 61.3098 75.4526 61.9522C75.1011 62.6088 75.3634 62.9546 75.9401 62.5946C76.588 62.1899 77.2292 62.637 77.2292 63.4932C77.2292 64.0167 77.0717 64.2239 76.4945 64.4595C75.8696 64.7145 75.6402 64.6993 74.9594 64.3585C73.978 63.867 73.6308 62.9972 73.9335 61.788C74.1992 60.726 75.2049 60.0523 76.6894 59.9416C77.5597 59.8768 77.7363 59.7685 77.9916 59.1431C78.353 58.257 79.0584 57.8488 79.9059 58.0349C80.5093 58.1674 80.5597 58.1094 80.8291 56.9752C81.1664 55.5553 81.8608 54.6162 83.1015 53.9021C85.0756 52.7661 86.6483 52.6804 88.4798 53.6093ZM80.0662 55.7381C79.9723 55.9659 79.8422 56.3382 79.7767 56.566C79.7036 56.8203 79.4262 56.98 79.0574 56.98C78.6645 56.98 78.1456 57.3071 77.5568 57.9261C76.9506 58.5636 76.4531 58.8722 76.0326 58.8722C74.3312 58.8722 72.6168 60.5746 72.6168 62.2639C72.6168 63.0403 72.5534 63.1559 72.2028 63.0202C71.9753 62.9319 71.2921 62.8004 70.685 62.7278C69.2225 62.5528 67.9303 63.1824 66.2395 64.8945C64.9934 66.1564 64.9657 66.212 65.413 66.5639C65.871 66.9247 66.5657 66.9199 68.5956 66.5427C69.3821 66.3967 69.3991 66.4071 68.9351 66.7527C68.0577 67.4063 65.6392 68.0735 62.3049 68.5821C60.5049 68.8567 58.2346 69.3347 57.2601 69.6441C56.2856 69.9538 55.4641 70.1827 55.4347 70.1534C55.3571 70.0758 57.8379 68.0638 61.4475 65.2767C63.7445 63.5029 65.1434 62.6135 66.6513 61.968C68.9239 60.9952 70.1849 60.2546 72.1437 58.7422C73.8172 57.4504 75.5995 56.553 77.8206 55.8838C80.0291 55.2187 80.2869 55.2019 80.0662 55.7381ZM71.3771 67.5366L72.1926 68.1587L71.5178 68.7325C69.8076 70.186 67.5016 70.8197 63.1397 71.0345C58.6635 71.2549 54.6558 72.5691 52.9842 74.3645C52.0572 75.3603 52.0721 75.3598 54.0486 74.3375C57.024 72.7986 59.3224 72.2557 63.9448 72C68.1339 71.7682 70.197 71.0882 72.3405 69.2328C72.9425 68.7117 73.2497 68.5949 73.6414 68.738C73.9234 68.8409 74.6044 68.9222 75.1546 68.9189C76.3377 68.9118 76.6372 69.3529 75.9477 70.0872C75.6908 70.3606 75.1006 71.4181 74.6361 72.4374C73.553 74.8141 71.6751 76.846 69.9396 77.5189C69.2655 77.7805 67.7027 78.2725 66.4668 78.6126C63.4933 79.4308 61.1809 80.552 59.6924 81.8972L58.4766 82.9959L58.3299 82.2142C58.1114 81.0487 58.5835 78.997 59.3125 77.9451C59.6666 77.434 60.5151 76.5259 61.1982 75.9272C61.8811 75.3283 62.4409 74.745 62.4426 74.6308C62.4476 74.2923 60.5434 74.6982 59.1117 75.3406C56.1264 76.6804 54.5208 79.291 54.0209 83.6185C53.8521 85.0812 53.5649 86.6343 53.3828 87.07C52.9584 88.0857 51.8803 89.1577 50.0573 90.3766C49.2604 90.9095 48.3689 91.5616 48.0761 91.8258C47.2567 92.5657 47.4457 92.0352 48.3635 91.0192C50.4573 88.7016 50.9956 86.288 50.151 83.0042C49.5033 80.4867 49.6299 79.5292 50.8857 77.4475C51.411 76.5763 51.7774 75.8 51.7001 75.7224C51.4798 75.5024 50.1304 76.2269 48.9997 77.1724C48.4347 77.645 47.9223 78.0317 47.8615 78.0317C47.5451 78.0317 49.5168 75.659 50.8516 74.4335C53.8171 71.7112 56.5493 70.6021 62.9509 69.5216C66.7897 68.8737 69.3738 68.0416 70.0404 67.2385C70.3976 66.8083 70.4323 66.8161 71.3771 67.5366ZM77.4225 70.7894C79.3502 72.2321 81.7102 72.6891 83.8291 72.0303L84.9886 71.6698L84.0656 72.6202C82.0799 74.6649 78.2674 76.5564 74.7839 77.2254C71.9646 77.7668 71.9112 77.7379 73.1922 76.3684C73.8046 75.7139 74.5715 74.5695 74.8963 73.8256C76.2095 70.819 76.4863 70.226 76.5759 70.226C76.6272 70.226 77.0083 70.4796 77.4225 70.7894ZM92.838 70.5498C93.2553 70.8547 93.2009 70.964 91.8964 72.4407C91.135 73.3026 90.4734 73.9692 90.4263 73.9221C90.2797 73.7755 91.974 70.226 92.1906 70.226C92.3032 70.226 92.5946 70.3717 92.838 70.5498ZM87.5186 72.6595C87.5186 73.0853 85.2239 75.2593 83.9918 76.0008C82.1513 77.1085 79.438 78.0355 78.102 78.013C77.492 78.0029 77.1523 77.9371 77.3475 77.8671C80.1902 76.8469 83.4903 74.7741 84.9261 73.1073C85.8803 71.9993 85.9316 71.974 86.7136 72.2186C87.1564 72.3572 87.5186 72.5557 87.5186 72.6595ZM89.7418 72.887C89.0721 74.2043 86.8537 76.7956 85.7386 77.5627C83.1746 79.3268 79.8955 80.4432 74.6273 81.3456C70.5426 82.045 69.2021 82.4233 66.9399 83.5142C65.3281 84.2917 64.5527 84.8643 63.0304 86.4025C60.4129 89.0472 59.7607 90.4255 59.7728 93.2883C59.7797 94.9315 59.8968 95.6781 60.2859 96.5603C60.5631 97.1891 60.7899 98.1049 60.7899 98.5955C60.7899 100.391 58.8919 101.405 57.7736 100.207C56.9987 99.3765 56.9195 98.6045 57.4633 97.1742C58.0986 95.5026 58.0792 95.3353 57.3296 96.0265C55.4458 97.7636 55.791 100.675 57.9846 101.553C58.9234 101.928 59.0488 101.929 60.0302 101.554C61.4986 100.993 61.9605 99.9206 61.9674 97.0568C61.9735 94.5169 62.4126 92.8569 63.3485 91.8346C64.1837 90.9225 64.8948 90.5509 67.1646 89.8408C68.1339 89.5378 69.4379 88.946 70.0622 88.5257C70.6866 88.1056 71.1975 87.8276 71.1975 87.9085C71.1975 88.4372 69.8866 89.7547 68.317 90.8037C65.9923 92.3568 65.4003 93.2512 65.4187 95.1806C65.4263 95.9612 65.6652 97.3296 65.9495 98.2213C66.5638 100.147 66.5955 101.234 66.0943 103.189C64.7732 108.342 60.2085 112.073 55.113 112.163C53.6579 112.19 53.1001 112.084 52.0097 111.58C50.1477 110.718 48.86 109.465 47.9602 107.639C47.2728 106.244 47.1805 105.816 47.1098 103.695C46.9622 99.2554 48.1113 97.1569 52.7477 93.3995C54.1305 92.2788 54.1158 92.311 51.9193 95.204C51.1383 96.2327 50.1803 97.7657 49.7905 98.6111C49.1604 99.9766 49.0814 100.398 49.0814 102.395C49.0814 104.374 49.1599 104.802 49.7392 105.982C50.5429 107.618 51.9744 109.09 53.5647 109.914C54.5695 110.435 55.0761 110.535 56.7688 110.544C58.5031 110.554 58.9837 110.461 60.2674 109.868C62.1386 109.004 63.8618 107.182 64.5958 105.292C65.3137 103.442 65.3198 100.393 64.6109 97.8391C63.9496 95.456 63.9687 94.2931 64.6951 92.7327C65.404 91.2096 65.4055 91.1962 64.8184 91.5103C63.5811 92.1726 62.5209 95.4623 62.8069 97.7518C63.1243 100.292 62.1422 102.75 60.2788 104.079C59.6368 104.537 59.1942 104.642 57.9143 104.642C56.511 104.642 56.2425 104.564 55.4473 103.92C54.2024 102.912 53.5848 101.622 53.5841 100.026C53.5834 98.4704 54.1494 97.4017 56.2432 95.007C58.0224 92.9716 58.7725 91.5737 59.1999 89.4957C59.6337 87.3877 60.0888 86.516 61.4853 85.1195C63.6716 82.9332 66.2676 82.0481 73.6279 80.9794C76.3793 80.5802 79.9984 79.5183 80.5123 78.9596C80.7148 78.7397 80.6782 78.7066 80.3569 78.8199C79.4326 79.1456 75.16 79.9025 72.1437 80.2748C65.4864 81.0968 62.0585 82.5271 60.0531 85.3194C59.2922 86.3791 59.2647 86.3938 59.1072 85.8282C58.6663 84.2477 59.2756 83.263 61.6838 81.6647C64.0766 80.0763 66.6345 79.3585 72.6168 78.5959C76.1218 78.149 76.3415 78.1415 78.4289 78.391C81.5593 78.7655 85.9562 76.5668 88.1312 73.5392C88.86 72.5251 89.2105 72.2562 89.9492 72.1457C90.05 72.1306 89.9568 72.4641 89.7418 72.887ZM58.0156 77.9444C57.1224 79.5425 57.0231 81.8196 57.7171 84.7822C58.2921 87.2368 58.2798 89.5551 57.684 90.9315C57.2383 91.9616 56.1971 93.4582 54.8741 94.9699C53.1857 96.8991 52.51 98.3798 52.5163 100.135C52.532 104.424 56.6415 107.116 60.3057 105.237C62.0973 104.318 63.0091 103.06 63.599 100.694L64.03 98.9652L64.1956 100.621C64.4981 103.644 63.7062 105.909 61.719 107.704C60.2423 109.038 58.8491 109.581 56.8786 109.589C53.8748 109.602 51.45 107.9 50.3608 105.016C49.3179 102.254 50.2392 98.6842 52.8132 95.5141C56.3778 91.1245 56.849 90.162 56.8556 87.2566C56.8589 85.8987 56.7366 84.9774 56.479 84.4182L56.0977 83.5903L56.0734 85.6009C56.0348 88.757 55.202 90.1911 51.8656 92.8453C49.5007 94.7267 47.7605 96.5932 47.1051 97.9514C45.0451 102.219 45.7377 107.354 48.7975 110.496C49.3993 111.114 49.8402 111.62 49.7775 111.62C49.4676 111.62 47.66 110.317 46.8603 109.517C44.9372 107.594 43.8362 104.001 44.116 100.562C44.2179 99.3106 44.1898 98.6104 44.0379 98.6104C43.9076 98.6104 43.7326 99.0629 43.6491 99.6157C43.5658 100.168 43.4355 100.94 43.36 101.331L43.2223 102.04L42.9879 101.449C42.5943 100.456 42.6897 97.4341 43.1594 96.0085C43.8589 93.8861 44.5659 92.6771 46.3255 90.5937C48.1317 88.4554 48.7266 87.1493 48.7266 85.3222C48.7266 83.8619 48.3642 83.8437 48.1652 85.2939C47.9488 86.8742 47.292 88.0642 45.5153 90.0946C42.038 94.0691 40.843 98.8843 42.3796 102.731C42.6435 103.392 43.2223 104.881 43.6661 106.039C44.1096 107.198 44.5912 108.289 44.7362 108.464C44.9029 108.665 44.9112 108.781 44.7589 108.781C44.3447 108.781 43.0776 107.167 42.3318 105.69C41.2712 103.589 40.843 101.663 40.8362 98.9652C40.826 94.9148 41.8668 92.451 44.9327 89.2672C47.0795 87.0381 47.3135 86.5113 47.6678 83.1064C47.9181 80.701 48.437 78.7413 48.8238 78.7413C48.8704 78.7413 48.8555 79.4067 48.7904 80.2197C48.7114 81.2063 48.7992 82.1255 49.0542 82.9829C49.2642 83.6894 49.4362 84.9412 49.4362 85.7646C49.4362 87.5696 48.9174 88.7948 47.4005 90.5719C45.8524 92.3855 45.1137 93.9686 45.0846 95.5354C45.0685 96.3962 45.1553 96.8364 45.3415 96.8364C45.4959 96.8364 46.0374 96.1977 46.5445 95.4172C47.7026 93.6346 48.6088 92.7412 50.8958 91.1264C54.1785 88.8088 54.815 87.7425 55.1383 84.0196C55.3995 81.0102 56.0275 79.266 57.345 77.8912C57.894 77.3181 58.4075 76.849 58.4856 76.849C58.5639 76.849 58.3524 77.342 58.0156 77.9444ZM47.6073 78.5639C47.0978 79.2156 46.7803 80.6374 46.6074 83.0442C46.4612 85.0789 46.3153 85.7565 45.8611 86.5118C45.1655 87.6689 41.867 91.1581 41.867 90.7368C41.867 89.9529 43.4475 85.5063 44.4062 83.5929C45.5305 81.3494 47.4284 78.2683 47.6863 78.2683C47.77 78.2683 47.7343 78.4014 47.6073 78.5639ZM83.1308 80.3725C83.0073 80.4891 81.5224 81.6233 79.8311 82.893C71.7418 88.9661 68.8572 92.0851 67.5778 96.1436L67.0191 97.9155L66.7431 96.9937C66.3142 95.5624 66.3982 94.1673 66.9609 93.377C67.2327 92.9953 68.2396 92.1534 69.1986 91.5065C71.0757 90.2398 71.8967 89.1454 72.4069 87.2299C72.9744 85.099 71.9301 82.853 71.3194 84.8913C70.6374 87.1677 69.5127 88.1049 66.4808 88.9228C63.5697 89.7083 62.0828 90.9849 61.2651 93.4007C60.8895 94.5098 60.836 94.5682 60.6984 94.0202C60.4595 93.0681 60.784 91.5252 61.562 89.9139C62.8722 87.2008 66.5309 84.373 70.0148 83.3803C70.7304 83.1766 73.2317 82.6477 75.5735 82.2054C77.9152 81.7628 80.5762 81.1322 81.4869 80.8039C83.4568 80.0938 83.4144 80.105 83.1308 80.3725ZM51.1404 118.439C49.4371 119.048 48.2906 120.035 47.4346 121.629C46.7732 122.86 46.65 122.967 45.8881 122.972C44.204 122.985 41.3939 124.888 41.3939 126.017C41.3939 126.17 40.9696 126.756 40.4506 127.319C39.3278 128.537 38.792 129.719 38.792 130.977V131.898L37.1441 132.016C35.2903 132.149 33.3914 132.968 32.1723 134.16C31.1377 135.171 31.3444 135.407 33.1821 135.31C36.2022 135.15 37.4544 136.125 39.0979 139.915C40.6138 143.411 42.0617 145.358 44.3729 147.007C47.3634 149.141 50.1498 150.035 53.6938 149.999C59.5337 149.939 65.2657 146.646 67.5404 142.043C68.3033 140.499 68.4539 139.934 68.5438 138.282C68.6252 136.787 68.7562 136.222 69.1103 135.834C69.6726 135.219 70.2514 133.378 70.2514 132.204C70.2514 130.79 69.6101 129.052 68.6938 127.982C67.8475 126.993 66.3599 126.049 65.6484 126.049C65.3962 126.049 65.2825 125.812 65.2789 125.28C65.2619 122.773 62.3709 120.304 60.0037 120.774C59.4639 120.881 59.1689 120.747 58.4662 120.073C56.5209 118.208 53.6051 117.557 51.1404 118.439ZM55.1516 119.456C56.1756 119.676 56.6122 119.944 57.6173 120.974L58.8385 122.225L60.2281 122.111C62.5244 121.924 63.8065 123.053 64.0742 125.498C64.2183 126.813 64.2289 126.828 65.2037 127.115C67.5587 127.809 68.8906 129.613 68.8764 132.087C68.8601 134.913 67.3143 136.693 64.8761 136.693C63.7667 136.693 63.4961 136.597 62.8873 135.988C62.2754 135.376 62.1923 135.139 62.255 134.182C62.3191 133.205 62.4178 133.031 63.1205 132.656C64.1076 132.128 64.4089 132.238 64.8148 133.273C64.9915 133.723 65.212 134.091 65.3052 134.091C65.5374 134.091 65.9937 132.728 65.9937 132.033C65.9937 129.934 63.0768 128.174 60.7523 128.87C59.3492 129.291 57.8193 130.855 57.446 132.252C57.1863 133.222 57.0737 133.347 56.3494 133.464C55.3595 133.625 54.0515 134.59 53.5753 135.511C52.7295 137.146 53.379 139.477 54.8961 140.251C55.9404 140.784 56.1604 140.602 55.7831 139.519C55.5386 138.818 55.5667 138.7 56.0743 138.289C56.6314 137.838 56.6396 137.838 57.0574 138.354C57.6042 139.03 57.5889 139.627 56.9921 140.86C55.9998 142.909 52.908 144.108 50.0374 143.556C49.2514 143.405 48.0574 143.033 47.3842 142.729C46.1689 142.18 44.1709 140.537 43.7406 139.733C43.5287 139.337 43.5729 139.334 44.5209 139.668C45.7859 140.114 47.6378 140.169 48.7701 139.794C50.5458 139.205 52.0402 136.718 51.675 134.958C51.2738 133.026 49.558 131.607 47.6212 131.607C46.9289 131.607 46.3624 131.597 46.3619 131.585C46.3614 131.572 46.531 131.221 46.7389 130.805C47.1557 129.969 47.0355 129.033 46.4243 128.355C45.9574 127.837 44.7054 127.794 44.7054 128.296C44.7054 128.491 44.897 128.651 45.1312 128.651C46.1178 128.651 46.4132 129.661 45.6885 130.556C44.9914 131.417 43.8615 131.285 42.8952 130.231C42.2334 129.509 42.1035 129.186 42.1035 128.261C42.1035 126.721 42.9716 125.297 44.3038 124.652C46 123.831 46.8314 124.044 46.8357 125.299C46.8409 126.911 48.5139 129.329 50.0791 129.987C51.0616 130.399 53.2595 130.397 54.2336 129.982C55.5128 129.437 56.1252 128.575 56.243 127.154C56.369 125.635 55.9033 124.569 54.8843 124.042C53.0145 123.075 51.0065 124.345 51.6206 126.107C51.9127 126.944 52.2737 126.945 52.2781 126.108C52.2836 125.161 52.6107 124.787 53.4334 124.787C55.4515 124.787 55.8603 127.554 54.0217 128.769C53.0384 129.418 51.2038 129.377 50.0762 128.681C47.0313 126.799 47.4176 121.692 50.7357 119.96C52.2748 119.157 53.2416 119.046 55.1516 119.456ZM42.6088 131.563C42.9515 131.811 43.7153 132.069 44.3059 132.135L45.3798 132.256L44.9152 132.755C44.4854 133.216 44.3653 133.522 44.1824 134.619C44.1264 134.955 43.8998 134.857 42.9314 134.076C42.2809 133.551 41.3497 132.912 40.8617 132.656C40.0975 132.254 39.9747 132.076 39.9747 131.371C39.9747 130.921 40.15 130.115 40.364 129.58L40.7531 128.607L41.3693 129.86C41.708 130.549 42.2658 131.315 42.6088 131.563ZM64.3645 130.686C64.8084 131.112 65.0476 131.58 65.0476 132.023C65.0476 132.644 65.0138 132.672 64.676 132.334C64.0863 131.744 62.5322 131.854 61.8532 132.533C60.7102 133.676 60.7949 135.378 62.0705 136.905C63.0992 138.136 63.3097 139.458 62.7939 141.449C62.2619 143.502 61.6497 144.607 60.2932 145.964C57.1657 149.091 52.1805 149.613 47.4086 147.311C45.5768 146.428 45.2137 146.034 46.7751 146.624C51.2712 148.324 56.4088 147.236 58.8222 144.072C61.1731 140.989 60.0732 136.693 56.9334 136.693C56.1361 136.693 54.8765 137.555 54.8765 138.101C54.8765 138.6 54.4503 138.331 54.3012 137.737C53.9339 136.273 55.7675 134.327 57.5134 134.327C58.4205 134.327 58.4246 134.323 58.4246 133.369C58.4246 132.111 58.93 131.181 59.9597 130.544C61.6824 129.48 63.1543 129.527 64.3645 130.686ZM48.5567 132.759C49.7834 133.282 50.4374 134.164 50.5476 135.443C50.8005 138.378 47.7125 139.958 44.5779 138.499C43.7763 138.125 42.9241 137.416 41.976 136.332C40.5313 134.682 38.7953 133.381 38.036 133.381C37.8014 133.381 37.6093 133.275 37.6093 133.145C37.6093 132.349 40.4352 133.464 42.701 135.153C44.7272 136.664 45.8574 137.121 46.8139 136.817C47.4405 136.619 47.8502 135.866 47.6593 135.265C47.4696 134.667 47.16 134.671 47.0022 135.274C46.7113 136.386 45.0609 135.494 45.3292 134.37C45.5314 133.522 45.8668 133.133 46.716 132.763C47.6158 132.371 47.6444 132.371 48.5567 132.759ZM37.553 134.214C39.2457 134.717 41.1262 136.477 41.9625 138.34C44.0883 143.077 50.0902 145.857 54.4034 144.104C56.7797 143.137 58.188 141.389 58.188 139.406C58.188 138.346 58.2145 138.293 58.5353 138.717C59.4 139.86 59.1734 141.872 58.0123 143.363C54.6754 147.646 47.1226 147.292 42.7814 142.649C41.9091 141.716 40.8903 140.287 40.3598 139.251C38.9006 136.402 36.7985 134.327 35.3717 134.327C35.1713 134.327 35.0074 134.221 35.0074 134.091C35.0074 133.746 36.1634 133.802 37.553 134.214ZM67.3415 138.561C67.1792 139.931 65.9381 142.595 65.1034 143.364L64.5144 143.907L64.8993 143.15C65.5242 141.921 65.8045 140.204 65.5587 139.111L65.3392 138.133L66.3168 137.787C66.8547 137.596 67.3361 137.431 67.3867 137.421C67.4373 137.411 67.417 137.924 67.3415 138.561ZM64.7862 138.109C65.0499 138.111 65.0864 138.429 64.9679 139.697C64.8042 141.451 64.0657 143.19 62.9287 144.499L62.2091 145.326L62.8596 144.035C63.4441 142.875 63.5101 142.496 63.5101 140.298C63.5101 137.967 63.5323 137.857 63.9832 137.978C64.2434 138.048 64.6048 138.107 64.7862 138.109Z"/>
</mask>
<path fill-rule="evenodd" clip-rule="evenodd" d="M49.0814 0.235992C40.641 1.26398 32.9221 4.05298 26.3386 8.45375C21.5634 11.6456 18.0461 15.078 14.565 19.9423C8.95859 27.7769 5.98509 38.817 7.59969 45.8027C7.75746 46.4851 7.82794 47.1019 7.75627 47.1736C7.68484 47.2453 6.73514 47.1753 5.64637 47.0182C3.04352 46.6428 2.03398 46.8479 0.898603 47.9833C0.404478 48.4776 0 49.0595 0 49.2764C0 49.6175 0.1871 49.6497 1.38729 49.5139C2.67689 49.368 2.93093 49.4276 4.99447 50.3595C6.54544 51.0599 7.65172 51.3979 8.66576 51.4809C10.0802 51.5971 10.1592 51.6406 11.7857 53.2039C13.7215 55.0642 15.5563 56.0478 18.4473 56.7742C23.0053 57.9195 28.2377 56.4482 32.0268 52.9555C33.0681 51.9959 33.0711 51.9947 34.1528 52.2672C35.5742 52.6251 36.6171 52.4058 38.0081 51.4566C39.5719 50.3896 39.771 50.3418 41.0519 50.7273C42.4569 51.1503 43.571 50.8889 44.6335 49.8869C45.0491 49.495 45.56 49.1742 45.7687 49.1742C46.6171 49.1742 47.7804 48.2766 47.7804 47.6219C47.7804 47.5701 47.3142 47.5913 46.7444 47.6696C45.7968 47.7995 45.5835 47.7233 44.2411 46.7779C42.8226 45.779 42.7157 45.7449 41.0363 45.7587L39.2987 45.7728L39.0498 44.7851C38.8873 44.1396 38.4575 43.4638 37.8099 42.8353L36.8188 41.8733L37.2018 39.9292C37.6396 37.7074 39.0714 34.5326 40.4745 32.6727C42.4351 30.0741 46.184 27.5933 49.9092 26.4296C51.4775 25.9397 52.1495 25.8754 55.7044 25.8754C59.2638 25.8754 59.9292 25.9392 61.4995 26.4312C69.0543 28.7978 73.7781 34.6618 74.1999 42.1964C74.6581 50.3853 71.2817 55.8311 60.5612 64.1943C52.5346 70.4562 49.0783 73.7066 46.2633 77.6407C42.0995 83.46 39.5127 91.2695 39.4354 98.2535C39.3952 101.867 39.6537 103.155 40.9778 105.943C42.5735 109.303 45.4995 111.806 49.3179 113.079C51.6769 113.865 55.9097 113.862 58.3063 113.072C62.0684 111.833 64.8489 109.45 66.455 106.089C67.3595 104.197 67.5381 103.534 68.216 99.5554C68.8343 95.9269 69.9732 93.677 72.7324 90.6313C74.2683 88.9365 75.6955 87.7531 82.0832 82.8786C87.5417 78.7129 87.9207 78.3842 91.8723 74.3822L94.9252 71.2904L96.5221 71.2587C98.4404 71.2206 99.8135 70.6499 102.631 68.7202C103.699 67.9891 104.827 67.327 105.137 67.249C105.796 67.0836 108.215 67.2411 108.981 67.4994C109.378 67.6331 109.551 67.5718 109.673 67.2542C109.794 66.9389 109.534 66.5542 108.657 65.7491C106.832 64.0746 104.385 63.4265 102.444 64.1035C102.027 64.2485 101.636 64.3161 101.573 64.2537C101.511 64.1912 101.402 63.6202 101.331 62.9847C101.228 62.048 101.382 61.2908 102.142 58.9905C106.523 45.7499 104.699 31.8257 97.0858 20.3934C96.1134 18.9333 95.2164 17.6761 95.0922 17.5994C94.9614 17.5185 95.0809 17.018 95.3765 16.4099C95.9348 15.2606 95.8591 14.9367 95.1235 15.3303C94.0191 15.9214 93.3705 15.6565 91.6516 13.9118C84.5328 6.68587 74.9128 2.09541 63.2021 0.33652C60.5574 -0.0608612 52.0175 -0.121415 49.0814 0.235992ZM56.5323 1.28551C56.5323 1.30727 56.0587 1.6247 55.4797 1.99062C54.9009 2.35654 53.3598 3.79823 52.0551 5.19427C48.5598 8.93486 47.3038 9.40652 42.622 8.73641C40.9686 8.49987 39.1615 8.28888 38.5555 8.26144C38.3511 8.25222 38.5049 8.05045 38.9183 7.7853C39.4174 7.4655 40.3626 7.25711 42.0203 7.101C43.6034 6.95221 44.7288 6.71118 45.3703 6.38382C46.4653 5.82535 47.5864 4.34298 48.0276 2.87077C48.2847 2.01286 48.4363 1.85414 49.1223 1.72546C50.6669 1.43547 56.5323 1.08729 56.5323 1.28551ZM58.4998 2.39912C56.8646 3.44343 56.3232 4.1554 54.6665 7.44184C52.936 10.8752 52.2441 11.7362 50.4483 12.6934C48.6892 13.6311 47.5368 13.8849 43.8891 14.1389C41.3733 14.3139 40.7404 14.4443 39.459 15.0498C37.5895 15.9335 36.0603 17.2874 35.0708 18.9345C34.2384 20.3203 33.3566 23.37 33.3434 24.9079C33.3081 29.0504 31.4256 33.2035 28.9166 34.6743C27.7133 35.3797 27.6405 35.6924 28.6801 35.6893C29.8523 35.6857 31.7191 34.6999 33.0241 33.3949C34.0516 32.3674 34.3094 31.8957 35.09 29.6155C36.105 26.6503 37.1467 24.9413 38.4694 24.0725C40.3704 22.8238 41.484 22.6895 44.959 23.2891C46.5667 23.5665 47.3816 23.6004 48.2083 23.4239C48.8153 23.2945 49.3437 23.2205 49.3825 23.2593C49.4213 23.2981 49.0501 23.5235 48.5577 23.76C47.9043 24.0737 46.8565 24.227 44.6837 24.3261C41.9032 24.4531 41.6361 24.5077 40.664 25.1511C38.6648 26.4743 37.8974 27.9858 37.5954 31.1975C37.298 34.3583 37.1774 34.9806 36.4368 37.1776C36.0763 38.2467 35.6484 39.686 35.4859 40.3763C35.2347 41.4438 35.1162 41.6202 34.6931 41.5589C34.3392 41.5076 34.1367 41.2377 33.9924 40.6249C33.8096 39.8481 33.873 39.6536 34.633 38.6581C35.6293 37.3529 36.0543 35.9476 36.4243 32.7349C36.8768 28.8054 37.6022 26.9327 39.2481 25.4458C39.7777 24.9673 40.2112 24.52 40.2112 24.4519C40.2112 24.384 39.8122 24.5335 39.3242 24.7845C37.1228 25.9168 36.0901 27.9841 35.4611 32.5173C35.0022 35.8239 34.4007 37.6556 33.4938 38.5076C32.9763 38.9939 32.9432 38.9956 31.9918 38.5899C31.4568 38.3619 30.8413 37.8744 30.6239 37.5066C30.0288 36.5004 28.9223 35.9306 27.5565 35.9268L26.3738 35.9237L27.5612 35.2427C29.6059 34.07 31.2198 32.0066 31.9287 29.66C32.086 29.1396 32.2863 26.6382 32.3741 24.1014C32.5304 19.5752 32.5474 19.4593 33.2772 17.9088C34.2332 15.8775 35.6588 14.343 37.339 13.5364C38.5687 12.9463 38.99 12.8829 42.6949 12.732C47.9526 12.5179 49.5873 11.9623 51.7261 9.66174C52.6715 8.64487 53.7421 7.04021 53.5819 6.88007C53.5306 6.82874 52.7441 7.53102 51.8342 8.44098C50.8182 9.4569 49.6486 10.3527 48.8027 10.7628C47.4774 11.4053 47.3187 11.4268 44.5872 11.3303C37.8444 11.0921 37.3922 11.1299 35.4386 12.0955C31.901 13.8439 30.1475 16.359 29.1716 21.0853C28.0419 26.5568 27.1501 27.9198 23.5567 29.6678C22.3622 30.2489 21.2523 30.7244 21.0906 30.7244C20.639 30.7244 18.9047 31.6547 17.9368 32.4163C16.7806 33.3261 15.7174 34.9738 15.3806 36.3774C15.1575 37.3074 14.9326 37.6346 14.1761 38.1299C13.3847 38.6481 13.2458 38.6793 13.2449 38.3387C13.242 37.3441 14.1759 35.5292 15.5258 33.9051C17.0243 32.1029 17.6031 30.9188 17.4547 29.9597C17.3864 29.5188 17.2785 29.6276 16.8485 30.5721C16.5606 31.2041 15.7361 32.3574 15.0161 33.1352C13.2037 35.0927 12.4896 36.5808 12.3515 38.6876C12.2557 40.1471 12.1729 40.4004 11.7559 40.5094C11.4895 40.5792 11.183 40.5813 11.0744 40.5142C10.6922 40.2781 10.2255 39.1091 10.0933 38.057C10.0195 37.4716 10.0147 37.1788 10.0826 37.4065C10.3149 38.1871 10.6441 37.8205 10.6441 36.7809C10.6441 35.15 11.4862 32.8099 12.6346 31.2502C13.3889 30.2255 14.2475 29.4636 15.7661 28.4721C16.9169 27.7206 18.2594 26.8397 18.7496 26.5147C20.78 25.1679 22.3127 22.7503 22.5952 20.4483C22.6758 19.7905 22.642 18.9863 22.5199 18.661C22.3274 18.1482 22.2595 18.2958 22.0104 19.7711C21.6788 21.7358 20.5858 23.7839 19.2151 25.0099C18.7292 25.4444 17.3053 26.4322 16.0509 27.205C14.7966 27.9777 13.273 29.1417 12.6649 29.7917C11.2984 31.2526 10.2153 33.5132 9.93359 35.492L9.72024 36.9926L9.80444 35.1003C9.93217 32.237 10.5914 30.7083 12.5081 28.8321C13.5379 27.8237 14.7194 26.9689 15.9407 26.3485C19.3336 24.6246 20.8912 22.5674 21.7611 18.6624C22.0334 17.4398 22.4272 16.079 22.6366 15.6383C23.0122 14.8464 24.5362 13.5722 26.3738 12.5137C27.2341 12.0181 27.1759 12.1113 25.7293 13.5428C23.7284 15.5231 23.2832 16.7583 23.5371 19.6247C23.8036 22.6365 23.4493 23.6588 21.4815 25.5549C19.7222 27.2501 19.2609 28.1842 19.73 29.1013C19.9436 29.519 20.1889 29.647 20.7022 29.6086C21.9617 29.5143 24.267 28.1757 25.5072 26.8189C26.8386 25.3621 27.3176 24.1588 28.2482 19.9355C29.0098 16.4785 29.9997 14.4128 31.7222 12.6863C33.3119 11.0933 35.296 10.0698 37.5885 9.65985C38.92 9.42189 39.6698 9.44271 42.2313 9.78758C47.6054 10.5111 48.6991 10.1095 52.8806 5.87692C56.0353 2.68391 57.4578 1.72168 59.1233 1.65403C59.5973 1.63463 59.4831 1.77135 58.4998 2.39912ZM46.593 2.46346C45.5749 3.54703 43.83 4.20697 41.2903 4.46882C38.2049 4.78672 37.488 4.99842 35.7984 6.09051C34.3806 7.00685 33.3233 8.15453 32.0623 10.1457C31.6914 10.7311 30.9951 11.6891 30.5146 12.2745C28.6744 14.5171 27.9962 16.0707 27.193 19.8856C26.24 24.4105 25.37 25.9918 22.9417 27.6135C20.2054 29.4407 19.7416 28.6618 22.1384 26.265C24.4359 23.9675 24.5998 23.5429 24.5998 19.8903C24.5998 16.2029 24.852 15.6005 27.2275 13.6107C29.0327 12.0988 29.6506 11.0114 29.7147 9.23385C29.7686 7.73586 29.8682 7.65449 33.8527 5.86107C37.5646 4.19018 40.9312 3.14776 45.8881 2.13515C46.4735 2.01546 46.9977 1.90618 47.0528 1.89222C47.1082 1.87827 46.9012 2.13538 46.593 2.46346ZM66.9399 2.35583L68.2408 2.66168L67.2112 2.84736C65.1585 3.21801 63.432 4.70039 62.9488 6.50729C62.8327 6.94133 62.5218 7.21051 61.8832 7.43002C60.7542 7.81817 59.9259 8.58408 59.5696 9.56902C59.3558 10.1606 59.0835 10.3933 58.347 10.614C56.3646 11.208 55.3827 13.0125 55.8766 15.1529C56.1323 16.2604 56.1157 16.3465 55.5364 16.9258C54.8628 17.5997 54.025 17.6782 51.9058 17.2669C49.5873 16.8167 47.5699 17.7818 46.8482 19.6862C46.4771 20.6657 46.7214 20.818 47.845 20.308C49.2725 19.6599 49.9151 19.7254 52.5681 20.7898C55.7718 22.0752 56.6065 22.0605 59.2397 20.6716C61.9795 19.2266 62.5396 19.2476 64.7372 20.8781C65.6723 21.5716 66.9127 22.2725 67.4936 22.4352C68.686 22.7689 70.4844 22.6687 71.572 22.2076C72.1955 21.9434 72.4138 21.9546 73.0742 22.284C74.9242 23.207 77.0755 22.9622 78.8213 21.63C79.5702 21.0586 79.9534 20.9074 80.3042 21.0446C80.9722 21.306 83.8272 21.3057 84.5145 21.0444C85.0874 20.8265 85.087 20.8305 84.3092 22.3758C82.4195 26.1323 82.7568 29.5881 85.3897 33.4446C88.3751 37.8169 88.4441 41.8234 85.6076 46.0711C84.8105 47.2644 82.0397 49.8839 81.5744 49.8839C81.4911 49.8839 81.775 49.2185 82.2048 48.4055C84.0516 44.9123 84.2371 40.8862 82.7164 37.2932C82.2287 36.1411 80.4371 34.2405 78.6061 32.9332C75.8805 30.9869 75.0663 29.6621 74.8222 26.7764C74.742 25.8255 74.5871 25.0475 74.4783 25.0475C74.3695 25.0475 74.0126 25.5762 73.6852 26.2224C73.2199 27.1406 73.0898 27.7542 73.0898 29.032C73.0898 31.4375 73.8082 32.8783 76.4099 35.6917C78.3239 37.7616 78.6378 38.5171 78.6208 41.0137C78.6047 43.3881 78.1207 45.0725 76.8545 47.1616C75.9302 48.6867 74.6278 50.2018 74.8194 49.529C74.8934 49.2689 75.0886 48.577 75.253 47.9916C75.7556 46.2019 75.6193 40.4302 75.0226 38.2257C73.2984 31.8579 68.4019 27.0233 61.7361 25.1073C58.9605 24.3097 54.4276 24.1234 51.4467 24.6842C47.0663 25.5083 43.2328 27.6293 40.2266 30.8919L38.5555 32.7054V31.7647C38.5555 30.353 39.2088 28.1227 39.8801 27.2426C40.9227 25.8756 42.0924 25.4522 45.323 25.2722C47.866 25.1308 48.3289 25.0362 49.4442 24.4297C50.958 23.6068 52.693 21.366 52.1991 20.8722C52.1339 20.8069 51.363 21.1342 50.4861 21.5995C48.6194 22.5901 47.1541 22.697 44.0987 22.065C41.8483 21.5997 40.8321 21.7185 38.8923 22.6734C36.7299 23.7378 35.4138 25.3867 34.2614 28.4744C34.018 29.1266 33.8775 29.3598 33.9489 28.9927C34.0204 28.6258 34.2309 27.0292 34.417 25.4447C34.6029 23.8603 34.9135 22.0395 35.1072 21.3987C35.8547 18.9243 38.1233 16.5944 40.6405 15.7159C41.2018 15.52 42.9998 15.2511 44.6361 15.1182C48.1298 14.8343 49.083 14.6099 50.915 13.6389C52.8437 12.6166 53.9408 11.2988 55.571 8.04714C57.5354 4.12844 58.3127 3.32753 61.25 2.1957C62.234 1.81677 64.9738 1.89364 66.9399 2.35583ZM73.17 4.10904C75.6612 4.92226 79.7727 6.79279 82.0612 8.15406C85.3621 10.1175 90.9807 14.6319 89.6736 14.2704C89.3628 14.1843 88.4555 14.1179 87.6574 14.1223L86.2063 14.1309L85.6206 12.9077C84.8904 11.3825 83.9814 10.8208 82.2185 10.8049C81.0311 10.7943 80.9194 10.7453 80.7768 10.1738C80.522 9.15319 79.5406 8.07411 78.5919 7.77134C78.0838 7.60931 77.3376 7.07285 76.8512 6.52006C76.0371 5.59449 75.9302 5.54837 74.3676 5.4476C72.8233 5.34826 72.692 5.29338 71.9388 4.43263C71.501 3.93211 71.1947 3.52267 71.2581 3.52267C71.3217 3.52267 72.182 3.78664 73.17 4.10904ZM70.4238 4.55302C70.8437 4.77064 71.4291 5.37641 71.7248 5.89915C72.1539 6.6582 72.3573 6.81833 72.735 6.69486C72.9952 6.60971 73.6582 6.48931 74.2082 6.4271C75.0824 6.32847 75.2981 6.4044 75.9231 7.02909C76.3162 7.42221 76.6379 7.91184 76.6379 8.11692C76.6379 8.322 76.771 8.49775 76.9335 8.50744C77.9327 8.56681 78.4869 8.80974 79.0624 9.44034C79.5716 9.99833 79.7129 10.3863 79.7129 11.2255C79.7129 13.0759 78.9271 14.0528 76.9662 14.6404C74.3894 15.4124 71.9412 12.9631 73.6682 11.3407C74.7295 10.3437 76.1087 11.1716 75.4469 12.4084C75.0881 13.0788 75.2347 13.3226 75.8746 13.1194C77.1053 12.7289 76.8505 10.7238 75.4992 10.1639C74.111 9.58889 72.3547 10.5388 72.0242 12.0437C71.7733 13.1864 72.6257 14.7508 73.8363 15.3684C76.1019 16.5241 78.8154 15.7251 80.1959 13.4955C81.1706 11.9219 81.3057 11.8015 82.0993 11.8015C84.2596 11.8015 85.7095 14.3925 84.5443 16.1708C83.755 17.3757 81.8417 17.1233 81.8417 15.8143C81.8417 15.1891 81.9204 15.113 82.5686 15.113C83.1332 15.113 83.2782 15.0205 83.2171 14.699C83.0941 14.0504 81.9008 14.0289 81.2257 14.6631C79.9416 15.8694 81.0864 17.9514 83.0341 17.9514C83.8681 17.9514 84.1699 17.8076 84.9285 17.0493C85.763 16.2148 85.8403 16.1835 85.9617 16.6353C86.2391 17.6678 86.0882 18.3462 85.4489 18.9446C83.8629 20.4284 82.157 20.6943 80.4575 19.7226C79.1792 18.9919 79.0901 18.9926 78.9037 19.7351C78.6702 20.6657 76.8065 21.736 75.42 21.736C74.8012 21.736 74.0289 21.6149 73.7041 21.4668L73.1135 21.1976L73.5411 20.3433C74.1937 19.0397 74.3203 18.2241 74.0173 17.277C73.4822 15.605 72.1505 14.6399 70.3779 14.6399C69.4784 14.6399 69.1508 14.775 68.4147 15.4496C67.6426 16.1573 67.5312 16.3948 67.5312 17.3352C67.5312 18.6217 68.1039 19.3205 69.3194 19.5178C70.7599 19.7517 72.0465 18.1853 71.1502 17.2891C70.6999 16.8387 70.5137 16.9546 70.5617 17.6557C70.5993 18.2059 70.5038 18.318 69.9415 18.3824C68.562 18.5406 68.1273 17.2155 69.2049 16.1379C69.7213 15.6215 69.9614 15.5484 70.7786 15.6579C72.2208 15.8514 72.9716 16.7134 72.9716 18.1759C72.9716 20.1744 71.4842 21.4983 69.2385 21.499C67.8155 21.4995 66.8195 21.0843 64.8408 19.6661C63.4171 18.6456 63.1543 18.5437 61.9726 18.5529C60.8663 18.5617 60.424 18.7147 59.0159 19.5748C57.4039 20.5597 57.3164 20.5836 55.7044 20.4812C54.4893 20.4041 53.6394 20.1793 52.5111 19.637C51.6655 19.2306 50.6276 18.8978 50.2049 18.8978C49.7822 18.8976 49.4362 18.7996 49.4362 18.6797C49.4362 18.3046 50.7312 18.1574 51.8212 18.4086C52.3957 18.5411 53.3634 18.652 53.9713 18.6553C55.3361 18.6624 56.3832 17.8752 57.0678 16.3276C57.4888 15.3758 57.4964 15.2601 57.1501 15.0664C56.3688 14.629 56.9192 12.354 57.9385 11.8085C58.1887 11.6744 58.8262 11.5649 59.3551 11.5649C60.2549 11.5649 60.3168 11.5214 60.3168 10.8903C60.3168 9.8434 61.2564 8.62193 62.1275 8.5363C62.7728 8.47291 62.9315 8.58834 63.4767 9.51887C64.7344 11.6647 67.153 12.1087 68.7709 10.4908C69.4424 9.81928 69.5595 9.54726 69.4975 8.80193C69.441 8.12496 69.2719 7.82882 68.7865 7.55751C68.0133 7.12559 67.6618 7.37703 68.2027 7.975C68.7728 8.60466 68.6853 9.33106 67.9724 9.89189C66.1645 11.3142 63.543 9.38334 63.942 6.92359C64.0825 6.05763 64.9646 4.90735 65.8755 4.40235C67.0702 3.73981 68.9762 3.80297 70.4238 4.55302ZM46.0672 4.52795C45.4087 5.52448 44.3506 5.92943 41.9039 6.12173C39.3034 6.3261 38.414 6.68043 37.4409 7.90002C37.0781 8.35464 36.6464 8.72648 36.481 8.72648C36.3159 8.72648 35.5415 8.98619 34.7602 9.30362L33.3396 9.88101L33.8302 9.19174C34.1001 8.81281 34.768 8.13797 35.3147 7.69234C36.9835 6.33154 38.1964 5.83316 40.413 5.59662C42.8581 5.33596 45.2234 4.78388 45.8143 4.33588C46.418 3.87818 46.4702 3.91792 46.0672 4.52795ZM28.5327 9.37813C28.3307 9.76842 27.4666 10.5216 26.5638 11.094C23.6227 12.9586 23.1666 13.2923 22.4608 14.0961C21.5433 15.1413 21.1154 16.1932 20.5588 18.7743C19.818 22.2079 18.776 23.4665 14.6653 25.8922C13.6896 26.4681 12.6422 27.1181 12.338 27.3372L11.7847 27.735L12.1639 26.8274C14.4389 21.3826 20.8434 13.8298 26.357 10.0892C27.649 9.21303 28.7477 8.53796 28.799 8.58928C28.8504 8.64061 28.7305 8.99565 28.5327 9.37813ZM36.71 12.8285C35.0408 13.7023 33.3772 15.5115 32.4351 17.4783L31.5852 19.2524L31.4357 23.9831C31.3111 27.9314 31.2044 28.9428 30.7907 30.0987C30.0276 32.2309 28.9336 33.4604 26.6915 34.7055L25.8263 35.1859L25.3906 34.7041C24.71 33.9517 23.3362 33.3488 21.9236 33.1827C20.1752 32.9772 18.3262 33.7944 17.2835 35.2335C16.4471 36.3883 16.3563 36.3038 17.025 34.9932C17.6901 33.6896 19.304 32.4653 21.4432 31.6414C25.467 30.0921 27.6767 28.4212 28.7562 26.1119C29.0602 25.4614 29.5869 23.6103 29.9269 21.9983C30.8489 17.625 31.2673 16.681 33.0936 14.8544C34.207 13.7406 35.0245 13.1528 35.9536 12.797C37.6524 12.1468 37.9859 12.1608 36.71 12.8285ZM60.9082 12.5111C60.6643 12.9056 61.0172 13.2207 61.7027 13.2207C62.972 13.2207 63.3914 14.5559 62.339 15.2454C61.6109 15.7225 61.0213 15.542 60.3526 14.6375C59.7757 13.8572 59.2264 13.7493 58.5289 14.2789C58.0929 14.6099 58.1045 14.625 58.7611 14.5786C59.1931 14.5484 59.4958 14.6605 59.5684 14.8783C59.6323 15.0699 59.9784 15.5205 60.3374 15.8793C61.7692 17.3113 63.8649 16.3536 63.8649 14.2678C63.8649 13.4553 63.7417 13.158 63.2416 12.7649C62.593 12.2544 61.1629 12.099 60.9082 12.5111ZM90.6631 15.9408C91.521 16.3962 92.5014 16.7687 92.8416 16.7687C93.1935 16.7687 93.397 16.8707 93.3137 17.0053C93.2333 17.1354 92.9875 17.2427 92.7675 17.2442C92.5476 17.2453 91.7831 17.5185 91.0685 17.8511C89.6041 18.5328 88.2324 18.4905 88.223 17.7634C88.2201 17.5415 88.0153 16.914 87.7676 16.3687C87.3532 15.4557 87.349 15.3691 87.7137 15.2726C88.6293 15.0304 89.1847 15.1563 90.6631 15.9408ZM87.0594 21.5371C86.2429 25.3446 87.6489 28.7044 91.4583 32.0488C95.769 35.8333 97.2651 41.4736 95.3252 46.626C95.0539 47.3468 94.266 48.5531 93.4589 49.4834C91.6814 51.5325 91.3081 52.7315 91.9874 54.2087L92.4459 55.2059L92.466 53.9547C92.4889 52.5042 93.0502 51.2645 94.1482 50.2387C95.6346 48.85 98.0087 45.722 98.6637 44.2895C99.4899 42.4821 99.8994 40.0375 99.6872 38.1753C99.3932 35.5916 98.711 33.9243 96.804 31.1284C94.8408 28.2495 94.1359 26.7113 94.152 25.3406L94.1624 24.4562L94.4827 25.3543C94.9449 26.65 95.7181 27.7189 97.9896 30.2028C99.0956 31.412 100.329 33.0176 100.73 33.7707C101.864 35.8984 102.467 38.8326 102.485 42.3147C102.498 44.9038 102.422 45.5091 101.871 47.1831C101.522 48.2439 100.651 50.0338 99.9147 51.2042C98.0629 54.147 97.6695 55.2454 97.6648 57.4883C97.6598 59.6739 97.3429 59.8981 96.554 58.2745C95.9423 57.0154 95.9059 56.1509 96.3873 54.3033C96.7825 52.7859 97.0649 52.2793 98.6526 50.2387C101.486 46.5972 102.55 42.1813 101.583 38.0776C101.221 36.5448 100.022 34.0158 99.8715 34.4685C99.8265 34.6033 100.018 35.4393 100.297 36.3263C100.602 37.2954 100.856 38.8825 100.933 40.3041C101.137 44.075 100.353 46.4564 97.7783 49.8839C96.1692 52.0259 95.3789 53.7124 95.1762 55.4368C95.0411 56.5852 94.978 56.7013 94.5986 56.4984C94.3644 56.373 93.7612 56.2703 93.2581 56.2703C92.4227 56.2703 92.2978 56.1833 91.8155 55.2651C91.525 54.712 91.1215 53.9937 90.9188 53.6684C90.5675 53.1048 90.595 52.9995 91.5063 51.4213C93.4367 48.0788 94.3282 44.2221 93.8972 41.0757C93.4332 37.6864 92.492 35.9183 89.2642 32.373C88.491 31.5236 87.6321 30.4592 87.3561 30.0077C86.6438 28.8432 86.0993 26.8291 86.0993 25.3593C86.0993 23.686 85.7041 23.7522 85.4903 25.4614C85.1882 27.8746 85.8515 30.0387 87.7556 32.8532C89.9639 36.1172 90.7868 38.9779 90.3731 41.9509C90.2456 42.8665 89.9892 44.0471 89.803 44.5743C88.728 47.6204 86.5551 50.5242 84.4713 51.6995C83.8707 52.0382 82.6873 52.7216 81.8417 53.2183C80.3849 54.0736 74.6453 56.0125 74.3737 55.7407C74.0024 55.3694 74.7931 54.0845 76.5057 52.2757C78.8509 49.7992 80.3522 47.6349 81.0358 45.7445C82.113 42.7665 82.0558 40.165 80.8674 38.084C80.0076 36.5789 79.7065 36.66 80.3293 38.2292C80.6637 39.0718 80.7735 39.9276 80.7626 41.6051C80.7378 45.366 79.7039 47.5041 75.9212 51.6184C73.5929 54.151 72.9945 55.2308 73.5494 55.8995C73.7566 56.149 73.619 56.3713 72.92 56.9173C71.0093 58.4093 67.6492 60.5181 67.6495 60.225C67.6495 60.1964 68.3458 59.4281 69.1969 58.5174C70.048 57.6068 71.4267 55.9037 72.2608 54.7329C73.095 53.562 74.5779 51.6993 75.5562 50.5935C77.5556 48.3338 79.0505 45.6666 79.4815 43.5901C79.6386 42.8341 79.7199 41.3598 79.6625 40.3136C79.5314 37.9276 79.0297 36.9044 76.8744 34.6272C75.1328 32.7872 74.4258 31.6095 74.1769 30.133L74.0173 29.1869L74.6349 30.2513C75.445 31.6481 76.149 32.3768 78.3109 34.0572C81.642 36.6463 82.623 38.4378 82.6376 41.9599C82.6499 44.8534 82.0113 46.8808 80.3711 49.1546C78.4864 51.7679 78.2889 52.1026 78.5051 52.3188C78.9647 52.7784 82.8602 50.5133 84.8549 48.6267C87.5179 46.1083 88.7994 43.0032 88.6643 39.3984C88.5733 36.9749 88.0536 35.5994 85.9584 32.2377C83.6505 28.535 83.632 26.3201 85.8699 21.6925C86.3827 20.6316 86.8837 19.3827 86.983 18.9167L87.1638 18.0697L87.2368 19.2192C87.2771 19.8515 87.1973 20.8946 87.0594 21.5371ZM95.386 20.3813C97.0288 22.623 99.9062 28.0302 100.575 30.133C101.339 32.5313 101.337 32.5424 100.416 31.3157C99.928 30.6653 98.8061 29.388 97.9231 28.4773C95.7306 26.2165 95.2405 25.1956 95.1682 22.741C95.1365 21.6676 95.0532 20.7924 94.9834 20.796C94.1674 20.8393 93.573 21.7653 93.1772 23.6098C92.7219 25.7335 93.6735 28.6722 95.6587 31.2732C98.457 34.9388 99.3307 38.8929 98.1587 42.5855C97.2596 45.418 97.0893 45.4154 97.1775 42.5706C97.3251 37.8096 96.0663 35.0161 91.9132 30.8874C88.7559 27.7488 88.1873 26.751 88.0553 24.1182C88.0061 23.1332 88.0512 21.6887 88.1563 20.9081L88.3467 19.4889L89.6583 19.3706C90.3795 19.3056 91.2355 19.0783 91.5603 18.8651C92.1549 18.4756 92.7768 18.2615 93.432 18.2208C93.6271 18.2088 94.5066 19.1812 95.386 20.3813ZM33.746 30.1725C33.6592 30.2591 33.5882 30.1882 33.5882 30.0148C33.5882 29.8414 33.6592 29.7704 33.746 29.857C33.8325 29.9438 33.8325 30.0857 33.746 30.1725ZM23.4949 34.5951C24.3886 34.9686 25.4802 36.1749 25.6936 37.025C25.8024 37.4591 25.9412 37.5672 26.2255 37.4397C26.92 37.1281 28.5609 37.0619 29.0536 37.3257C29.3192 37.468 29.6681 37.948 29.8289 38.3927C30.0683 39.055 30.3039 39.252 31.1332 39.4843C32.7447 39.9354 33.3171 40.9723 32.8627 42.6174C32.344 44.496 30.3902 45.8069 28.5675 45.4989C26.6851 45.1808 25.7432 43.5028 26.7374 42.2388C27.1371 41.7309 27.4212 41.5958 27.974 41.6512C28.3686 41.6909 28.8087 41.914 28.9519 42.1472C29.164 42.4923 29.1063 42.6517 28.6415 43.0051C28.0708 43.4394 28.0708 43.4394 28.5658 43.7043C28.9571 43.9137 29.1392 43.8914 29.432 43.5986C30.966 42.0647 29.0183 39.8547 26.9094 40.7358C24.5352 41.7278 24.6566 45.05 27.1095 46.214C27.7299 46.5085 28.382 46.5974 29.4297 46.5307C31.1656 46.4202 32.4937 45.5999 33.42 44.0669C34.8191 41.7503 38.0824 43.0531 38.0824 45.928C38.0824 46.7909 37.4317 47.575 36.4742 47.8657C35.7977 48.071 34.7709 47.4482 34.7709 46.8323C34.7709 46.2814 35.3667 45.7684 35.809 45.9382C36.2757 46.1172 36.4749 45.8511 36.1591 45.4706C35.7386 44.9637 34.61 45.0833 34.193 45.6789C33.3831 46.8351 33.9818 48.3719 35.411 48.8048C36.13 49.0229 37.7359 48.5025 38.4838 47.8094C39.9891 46.4143 41.9072 46.3729 43.4984 47.7013C44.203 48.2896 44.2667 48.4318 44.0256 48.8821C43.6169 49.6459 42.1035 50.0296 40.9104 49.6722C39.7793 49.3332 39.3583 49.4422 37.6985 50.5041C35.9888 51.5978 34.5788 51.6153 33.1445 50.5603L32.1347 49.8176L31.4208 50.6836C31.0284 51.1597 30.4028 51.7068 30.0307 51.8994C29.265 52.2953 27.5246 52.3602 26.6447 52.0257L26.0566 51.8022L26.511 50.9114C27.4801 49.0103 26.9155 46.6388 25.2524 45.625C24.3297 45.0623 22.339 44.9996 21.662 45.5117C20.9865 46.0229 20.3455 47.0906 20.3438 47.7077C20.3393 49.2357 21.9106 50.4116 23.2676 49.8957C23.9657 49.6303 24.5024 48.695 24.2836 48.125C24.0839 47.6048 23.8053 47.6649 23.5323 48.2872C23.0585 49.3675 21.5248 48.8708 21.5248 47.637C21.5248 46.9624 22.545 46.0993 23.3426 46.0993C24.6677 46.0993 26.019 47.413 26.019 48.7012C26.019 49.3746 25.4842 50.3539 24.733 51.0559C24.2391 51.5171 23.7968 51.6565 22.5793 51.734C20.6802 51.8549 20.0131 51.6013 17.7651 49.9037C16.1186 48.6607 15.9367 48.5829 14.6721 48.5829C13.5188 48.5829 13.1138 48.7158 11.8091 49.5234C9.68523 50.8376 8.47582 50.8302 5.55861 49.4851C4.38775 48.9453 3.2169 48.4249 2.95671 48.3286C2.0063 47.9774 3.84183 47.8395 5.46802 48.1399C7.96253 48.6006 9.10642 48.1768 10.2167 46.3803C10.6233 45.7222 10.6673 45.4812 10.4457 45.1262C10.2945 44.8842 10.1711 44.2545 10.1711 43.7263C10.1711 42.3249 10.9595 41.6051 12.4946 41.6051H13.6569L13.7913 40.6022C13.9448 39.4583 14.6194 38.7666 15.5819 38.7666C16.0623 38.7666 16.347 38.9928 16.7974 39.7322C17.6175 41.079 19.1297 41.9395 20.3805 41.7718C22.181 41.5303 23.4221 39.6499 22.6046 38.4021C22.2271 37.8259 21.5248 37.6015 21.5248 38.057C21.5248 38.1871 21.6313 38.2936 21.7614 38.2936C21.8915 38.2936 21.9979 38.6086 21.9979 38.9939C21.9979 40.9347 18.9693 41.2928 17.8975 39.4786C17.2069 38.3094 17.5434 36.3476 18.5951 35.4123C19.8691 34.2798 21.9208 33.9375 23.4949 34.5951ZM91.4626 36.5683C92.5062 38.3491 92.9863 40.31 92.9856 42.7878C92.9849 45.8518 92.1417 48.5238 90.1827 51.6702L89.5859 52.6289L88.3748 52.2102C87.7087 51.98 86.9686 51.7882 86.7299 51.784C86.4026 51.778 86.6249 51.4133 87.6354 50.2978C90.9256 46.6662 92.1632 41.2562 90.7333 36.7542C90.1049 34.7744 90.3714 34.7065 91.4626 36.5683ZM16.4788 36.7956C16.392 36.8821 16.321 36.8112 16.321 36.6378C16.321 36.4644 16.392 36.3935 16.4788 36.48C16.5654 36.5668 16.5654 36.7088 16.4788 36.7956ZM9.92011 40.7597C10.1283 41.0107 10.0476 41.2907 9.56483 41.9951C8.99738 42.8228 8.95102 43.0574 9.05793 44.5618L9.17549 46.2175L8.85641 44.68C8.50444 42.9831 8.43868 40.9761 8.67191 39.0342L8.82447 37.7644L9.2377 39.0999C9.46478 39.8344 9.77204 40.5813 9.92011 40.7597ZM14.2513 42.5803C13.682 43.162 13.9183 43.4974 14.8973 43.4974C15.7202 43.4974 15.8588 43.5768 15.9974 44.1287C16.12 44.6174 16.0351 44.8577 15.6209 45.1931C14.841 45.8244 14.4744 45.7357 13.5124 44.6834L12.6505 43.7405L11.8838 44.207C10.936 44.7832 10.9275 44.8624 11.8268 44.7304C12.2171 44.6732 12.5364 44.7335 12.5364 44.8648C12.5364 44.9958 12.8454 45.4337 13.2226 45.8377C14.1596 46.8406 15.3628 46.8574 16.3392 45.8809C17.1813 45.0389 17.3038 43.5813 16.5869 42.9325C15.9958 42.3975 14.6317 42.1919 14.2513 42.5803ZM102.804 49.45C102.489 52.8363 100.609 60.2915 100.07 60.2915C99.9606 60.2915 99.6195 60.0876 99.3125 59.8383C98.8087 59.4293 98.7555 59.2034 98.7694 57.532C98.7869 55.4604 99.1226 54.5103 100.692 52.0907C101.213 51.2879 101.881 49.9841 102.177 49.1932C102.473 48.4022 102.77 47.755 102.838 47.755C102.906 47.755 102.891 48.5179 102.804 49.45ZM15.1383 50.98C17.3987 54.6021 21.4449 55.8725 25.0729 54.0994C26.2317 53.5329 26.9463 53.3437 27.974 53.3307C29.1702 53.3158 29.2863 53.3531 28.9202 53.6363C27.5277 54.7123 23.964 55.7847 21.7519 55.7932C18.3214 55.8063 14.617 53.6748 13.3111 50.9367C12.9613 50.2029 12.9539 50.0639 13.2548 49.8734C13.9341 49.4437 14.3218 49.6714 15.1383 50.98ZM17.1629 50.7335C19.0913 52.3041 20.6206 52.9536 22.3965 52.9565C23.2012 52.9579 24.1147 52.8618 24.4267 52.7431C24.7389 52.6244 25.1252 52.6085 25.2853 52.7074C25.7976 53.0241 23.3346 53.905 21.9371 53.905C20.1357 53.905 18.6415 53.3217 17.2587 52.0784C16.0805 51.019 15.1424 49.6473 15.596 49.6473C15.7245 49.6473 16.4296 50.136 17.1629 50.7335ZM12.6538 51.8353L13.3068 52.8406L12.4487 52.0255C11.6052 51.2245 11.3897 50.83 11.7954 50.83C11.9082 50.83 12.2945 51.2823 12.6538 51.8353ZM88.4798 53.6093C90.9339 54.8537 91.9241 57.4769 90.6271 59.298C89.939 60.2645 88.5506 60.7189 87.5512 60.305C86.1575 59.7278 86.0603 57.8866 87.4055 57.5488C87.726 57.4684 87.9297 57.3076 87.8578 57.1912C87.6037 56.7801 86.5433 56.9878 85.9704 57.5607C85.1423 58.3885 85.1856 59.5826 86.0799 60.5834C86.7375 61.3195 86.8501 61.3559 88.4623 61.3559C90.141 61.3559 90.1616 61.3481 91.0673 60.3773C91.5721 59.8361 92.0972 58.9636 92.2422 58.4259C92.4863 57.519 92.5608 57.453 93.3409 57.453C94.3322 57.453 95.4515 58.4261 95.6866 59.4924C95.7692 59.8669 95.8733 60.2941 95.9175 60.4419C95.9681 60.6103 96.3797 60.6716 97.0214 60.6063C100.413 60.261 101.501 64.9855 98.3089 66.1952C97.1033 66.6519 95.7973 65.9087 95.7973 64.7658C95.7973 63.5079 96.9916 62.9561 97.5461 63.9578C97.6901 64.218 97.8403 64.481 97.8798 64.5423C97.9846 64.7043 98.3914 64.0098 98.3957 63.6621C98.4021 63.1287 97.4673 62.4203 96.7567 62.4203C96.3615 62.4203 95.7732 62.6672 95.3967 62.9913C94.8384 63.4717 94.7365 63.7359 94.7559 64.6553C94.8091 67.2057 97.8062 68.2644 99.8826 66.4665C101.493 65.0716 105.286 64.6303 106.896 65.6497L107.63 66.1145L106.482 66.1318C105.161 66.1517 103.56 66.7979 101.983 67.9467C99.8369 69.5107 98.444 70.0609 96.5845 70.0796C95.0416 70.095 94.7209 70.0091 93.0429 69.1304C92.0281 68.5991 91.0018 67.902 90.7624 67.5813C90.204 66.8334 90.4317 65.7954 91.2345 65.4295C91.8072 65.1686 91.8084 65.1627 91.3128 64.9794C90.6274 64.7261 89.94 65.2001 89.6296 66.1401C89.3106 67.1075 89.5123 67.7816 90.4024 68.7197C91.0299 69.3811 91.0718 69.5145 90.7925 69.9618C90.1146 71.0473 87.5801 71.6736 86.7276 70.9661C86.3839 70.6809 86.3936 70.5673 86.8357 69.7007C87.5533 68.294 87.5112 66.4563 86.7347 65.2826C85.2055 62.9721 81.5893 63.2103 80.9111 65.6665C80.3454 67.7156 83.0343 69.6098 83.9856 67.8325C84.3837 67.0883 83.891 66.699 83.2666 67.2643C82.8044 67.6823 82.7713 67.6825 82.3148 67.2693C81.2035 66.2635 82.0979 64.7857 83.8177 64.7857C85.5272 64.7857 86.6895 66.4194 86.2436 68.1956C86.0468 68.9802 85.0162 70.1614 84.1198 70.6302C83.2408 71.0898 80.9213 71.1454 79.6958 70.736C78.7575 70.4223 77.5871 69.3009 77.0655 68.2154C76.873 67.815 76.5769 67.5413 76.3855 67.5872C74.3792 68.0683 73.8579 67.9503 71.8156 66.5521C70.1565 65.416 69.0292 65.1584 67.5312 65.5736L66.8216 65.7704L67.4129 65.1372C67.7382 64.789 68.2917 64.3547 68.6429 64.1718C69.8743 63.5311 72.6738 63.9204 73.8297 64.8933C74.1971 65.2022 74.8191 65.5258 75.2123 65.6121C76.1272 65.8132 77.4811 65.3675 77.9381 64.7149C78.4767 63.946 78.3935 62.5317 77.7759 61.9564C77.0845 61.3121 75.7963 61.3098 75.4526 61.9522C75.1011 62.6088 75.3634 62.9546 75.9401 62.5946C76.588 62.1899 77.2292 62.637 77.2292 63.4932C77.2292 64.0167 77.0717 64.2239 76.4945 64.4595C75.8696 64.7145 75.6402 64.6993 74.9594 64.3585C73.978 63.867 73.6308 62.9972 73.9335 61.788C74.1992 60.726 75.2049 60.0523 76.6894 59.9416C77.5597 59.8768 77.7363 59.7685 77.9916 59.1431C78.353 58.257 79.0584 57.8488 79.9059 58.0349C80.5093 58.1674 80.5597 58.1094 80.8291 56.9752C81.1664 55.5553 81.8608 54.6162 83.1015 53.9021C85.0756 52.7661 86.6483 52.6804 88.4798 53.6093ZM80.0662 55.7381C79.9723 55.9659 79.8422 56.3382 79.7767 56.566C79.7036 56.8203 79.4262 56.98 79.0574 56.98C78.6645 56.98 78.1456 57.3071 77.5568 57.9261C76.9506 58.5636 76.4531 58.8722 76.0326 58.8722C74.3312 58.8722 72.6168 60.5746 72.6168 62.2639C72.6168 63.0403 72.5534 63.1559 72.2028 63.0202C71.9753 62.9319 71.2921 62.8004 70.685 62.7278C69.2225 62.5528 67.9303 63.1824 66.2395 64.8945C64.9934 66.1564 64.9657 66.212 65.413 66.5639C65.871 66.9247 66.5657 66.9199 68.5956 66.5427C69.3821 66.3967 69.3991 66.4071 68.9351 66.7527C68.0577 67.4063 65.6392 68.0735 62.3049 68.5821C60.5049 68.8567 58.2346 69.3347 57.2601 69.6441C56.2856 69.9538 55.4641 70.1827 55.4347 70.1534C55.3571 70.0758 57.8379 68.0638 61.4475 65.2767C63.7445 63.5029 65.1434 62.6135 66.6513 61.968C68.9239 60.9952 70.1849 60.2546 72.1437 58.7422C73.8172 57.4504 75.5995 56.553 77.8206 55.8838C80.0291 55.2187 80.2869 55.2019 80.0662 55.7381ZM71.3771 67.5366L72.1926 68.1587L71.5178 68.7325C69.8076 70.186 67.5016 70.8197 63.1397 71.0345C58.6635 71.2549 54.6558 72.5691 52.9842 74.3645C52.0572 75.3603 52.0721 75.3598 54.0486 74.3375C57.024 72.7986 59.3224 72.2557 63.9448 72C68.1339 71.7682 70.197 71.0882 72.3405 69.2328C72.9425 68.7117 73.2497 68.5949 73.6414 68.738C73.9234 68.8409 74.6044 68.9222 75.1546 68.9189C76.3377 68.9118 76.6372 69.3529 75.9477 70.0872C75.6908 70.3606 75.1006 71.4181 74.6361 72.4374C73.553 74.8141 71.6751 76.846 69.9396 77.5189C69.2655 77.7805 67.7027 78.2725 66.4668 78.6126C63.4933 79.4308 61.1809 80.552 59.6924 81.8972L58.4766 82.9959L58.3299 82.2142C58.1114 81.0487 58.5835 78.997 59.3125 77.9451C59.6666 77.434 60.5151 76.5259 61.1982 75.9272C61.8811 75.3283 62.4409 74.745 62.4426 74.6308C62.4476 74.2923 60.5434 74.6982 59.1117 75.3406C56.1264 76.6804 54.5208 79.291 54.0209 83.6185C53.8521 85.0812 53.5649 86.6343 53.3828 87.07C52.9584 88.0857 51.8803 89.1577 50.0573 90.3766C49.2604 90.9095 48.3689 91.5616 48.0761 91.8258C47.2567 92.5657 47.4457 92.0352 48.3635 91.0192C50.4573 88.7016 50.9956 86.288 50.151 83.0042C49.5033 80.4867 49.6299 79.5292 50.8857 77.4475C51.411 76.5763 51.7774 75.8 51.7001 75.7224C51.4798 75.5024 50.1304 76.2269 48.9997 77.1724C48.4347 77.645 47.9223 78.0317 47.8615 78.0317C47.5451 78.0317 49.5168 75.659 50.8516 74.4335C53.8171 71.7112 56.5493 70.6021 62.9509 69.5216C66.7897 68.8737 69.3738 68.0416 70.0404 67.2385C70.3976 66.8083 70.4323 66.8161 71.3771 67.5366ZM77.4225 70.7894C79.3502 72.2321 81.7102 72.6891 83.8291 72.0303L84.9886 71.6698L84.0656 72.6202C82.0799 74.6649 78.2674 76.5564 74.7839 77.2254C71.9646 77.7668 71.9112 77.7379 73.1922 76.3684C73.8046 75.7139 74.5715 74.5695 74.8963 73.8256C76.2095 70.819 76.4863 70.226 76.5759 70.226C76.6272 70.226 77.0083 70.4796 77.4225 70.7894ZM92.838 70.5498C93.2553 70.8547 93.2009 70.964 91.8964 72.4407C91.135 73.3026 90.4734 73.9692 90.4263 73.9221C90.2797 73.7755 91.974 70.226 92.1906 70.226C92.3032 70.226 92.5946 70.3717 92.838 70.5498ZM87.5186 72.6595C87.5186 73.0853 85.2239 75.2593 83.9918 76.0008C82.1513 77.1085 79.438 78.0355 78.102 78.013C77.492 78.0029 77.1523 77.9371 77.3475 77.8671C80.1902 76.8469 83.4903 74.7741 84.9261 73.1073C85.8803 71.9993 85.9316 71.974 86.7136 72.2186C87.1564 72.3572 87.5186 72.5557 87.5186 72.6595ZM89.7418 72.887C89.0721 74.2043 86.8537 76.7956 85.7386 77.5627C83.1746 79.3268 79.8955 80.4432 74.6273 81.3456C70.5426 82.045 69.2021 82.4233 66.9399 83.5142C65.3281 84.2917 64.5527 84.8643 63.0304 86.4025C60.4129 89.0472 59.7607 90.4255 59.7728 93.2883C59.7797 94.9315 59.8968 95.6781 60.2859 96.5603C60.5631 97.1891 60.7899 98.1049 60.7899 98.5955C60.7899 100.391 58.8919 101.405 57.7736 100.207C56.9987 99.3765 56.9195 98.6045 57.4633 97.1742C58.0986 95.5026 58.0792 95.3353 57.3296 96.0265C55.4458 97.7636 55.791 100.675 57.9846 101.553C58.9234 101.928 59.0488 101.929 60.0302 101.554C61.4986 100.993 61.9605 99.9206 61.9674 97.0568C61.9735 94.5169 62.4126 92.8569 63.3485 91.8346C64.1837 90.9225 64.8948 90.5509 67.1646 89.8408C68.1339 89.5378 69.4379 88.946 70.0622 88.5257C70.6866 88.1056 71.1975 87.8276 71.1975 87.9085C71.1975 88.4372 69.8866 89.7547 68.317 90.8037C65.9923 92.3568 65.4003 93.2512 65.4187 95.1806C65.4263 95.9612 65.6652 97.3296 65.9495 98.2213C66.5638 100.147 66.5955 101.234 66.0943 103.189C64.7732 108.342 60.2085 112.073 55.113 112.163C53.6579 112.19 53.1001 112.084 52.0097 111.58C50.1477 110.718 48.86 109.465 47.9602 107.639C47.2728 106.244 47.1805 105.816 47.1098 103.695C46.9622 99.2554 48.1113 97.1569 52.7477 93.3995C54.1305 92.2788 54.1158 92.311 51.9193 95.204C51.1383 96.2327 50.1803 97.7657 49.7905 98.6111C49.1604 99.9766 49.0814 100.398 49.0814 102.395C49.0814 104.374 49.1599 104.802 49.7392 105.982C50.5429 107.618 51.9744 109.09 53.5647 109.914C54.5695 110.435 55.0761 110.535 56.7688 110.544C58.5031 110.554 58.9837 110.461 60.2674 109.868C62.1386 109.004 63.8618 107.182 64.5958 105.292C65.3137 103.442 65.3198 100.393 64.6109 97.8391C63.9496 95.456 63.9687 94.2931 64.6951 92.7327C65.404 91.2096 65.4055 91.1962 64.8184 91.5103C63.5811 92.1726 62.5209 95.4623 62.8069 97.7518C63.1243 100.292 62.1422 102.75 60.2788 104.079C59.6368 104.537 59.1942 104.642 57.9143 104.642C56.511 104.642 56.2425 104.564 55.4473 103.92C54.2024 102.912 53.5848 101.622 53.5841 100.026C53.5834 98.4704 54.1494 97.4017 56.2432 95.007C58.0224 92.9716 58.7725 91.5737 59.1999 89.4957C59.6337 87.3877 60.0888 86.516 61.4853 85.1195C63.6716 82.9332 66.2676 82.0481 73.6279 80.9794C76.3793 80.5802 79.9984 79.5183 80.5123 78.9596C80.7148 78.7397 80.6782 78.7066 80.3569 78.8199C79.4326 79.1456 75.16 79.9025 72.1437 80.2748C65.4864 81.0968 62.0585 82.5271 60.0531 85.3194C59.2922 86.3791 59.2647 86.3938 59.1072 85.8282C58.6663 84.2477 59.2756 83.263 61.6838 81.6647C64.0766 80.0763 66.6345 79.3585 72.6168 78.5959C76.1218 78.149 76.3415 78.1415 78.4289 78.391C81.5593 78.7655 85.9562 76.5668 88.1312 73.5392C88.86 72.5251 89.2105 72.2562 89.9492 72.1457C90.05 72.1306 89.9568 72.4641 89.7418 72.887ZM58.0156 77.9444C57.1224 79.5425 57.0231 81.8196 57.7171 84.7822C58.2921 87.2368 58.2798 89.5551 57.684 90.9315C57.2383 91.9616 56.1971 93.4582 54.8741 94.9699C53.1857 96.8991 52.51 98.3798 52.5163 100.135C52.532 104.424 56.6415 107.116 60.3057 105.237C62.0973 104.318 63.0091 103.06 63.599 100.694L64.03 98.9652L64.1956 100.621C64.4981 103.644 63.7062 105.909 61.719 107.704C60.2423 109.038 58.8491 109.581 56.8786 109.589C53.8748 109.602 51.45 107.9 50.3608 105.016C49.3179 102.254 50.2392 98.6842 52.8132 95.5141C56.3778 91.1245 56.849 90.162 56.8556 87.2566C56.8589 85.8987 56.7366 84.9774 56.479 84.4182L56.0977 83.5903L56.0734 85.6009C56.0348 88.757 55.202 90.1911 51.8656 92.8453C49.5007 94.7267 47.7605 96.5932 47.1051 97.9514C45.0451 102.219 45.7377 107.354 48.7975 110.496C49.3993 111.114 49.8402 111.62 49.7775 111.62C49.4676 111.62 47.66 110.317 46.8603 109.517C44.9372 107.594 43.8362 104.001 44.116 100.562C44.2179 99.3106 44.1898 98.6104 44.0379 98.6104C43.9076 98.6104 43.7326 99.0629 43.6491 99.6157C43.5658 100.168 43.4355 100.94 43.36 101.331L43.2223 102.04L42.9879 101.449C42.5943 100.456 42.6897 97.4341 43.1594 96.0085C43.8589 93.8861 44.5659 92.6771 46.3255 90.5937C48.1317 88.4554 48.7266 87.1493 48.7266 85.3222C48.7266 83.8619 48.3642 83.8437 48.1652 85.2939C47.9488 86.8742 47.292 88.0642 45.5153 90.0946C42.038 94.0691 40.843 98.8843 42.3796 102.731C42.6435 103.392 43.2223 104.881 43.6661 106.039C44.1096 107.198 44.5912 108.289 44.7362 108.464C44.9029 108.665 44.9112 108.781 44.7589 108.781C44.3447 108.781 43.0776 107.167 42.3318 105.69C41.2712 103.589 40.843 101.663 40.8362 98.9652C40.826 94.9148 41.8668 92.451 44.9327 89.2672C47.0795 87.0381 47.3135 86.5113 47.6678 83.1064C47.9181 80.701 48.437 78.7413 48.8238 78.7413C48.8704 78.7413 48.8555 79.4067 48.7904 80.2197C48.7114 81.2063 48.7992 82.1255 49.0542 82.9829C49.2642 83.6894 49.4362 84.9412 49.4362 85.7646C49.4362 87.5696 48.9174 88.7948 47.4005 90.5719C45.8524 92.3855 45.1137 93.9686 45.0846 95.5354C45.0685 96.3962 45.1553 96.8364 45.3415 96.8364C45.4959 96.8364 46.0374 96.1977 46.5445 95.4172C47.7026 93.6346 48.6088 92.7412 50.8958 91.1264C54.1785 88.8088 54.815 87.7425 55.1383 84.0196C55.3995 81.0102 56.0275 79.266 57.345 77.8912C57.894 77.3181 58.4075 76.849 58.4856 76.849C58.5639 76.849 58.3524 77.342 58.0156 77.9444ZM47.6073 78.5639C47.0978 79.2156 46.7803 80.6374 46.6074 83.0442C46.4612 85.0789 46.3153 85.7565 45.8611 86.5118C45.1655 87.6689 41.867 91.1581 41.867 90.7368C41.867 89.9529 43.4475 85.5063 44.4062 83.5929C45.5305 81.3494 47.4284 78.2683 47.6863 78.2683C47.77 78.2683 47.7343 78.4014 47.6073 78.5639ZM83.1308 80.3725C83.0073 80.4891 81.5224 81.6233 79.8311 82.893C71.7418 88.9661 68.8572 92.0851 67.5778 96.1436L67.0191 97.9155L66.7431 96.9937C66.3142 95.5624 66.3982 94.1673 66.9609 93.377C67.2327 92.9953 68.2396 92.1534 69.1986 91.5065C71.0757 90.2398 71.8967 89.1454 72.4069 87.2299C72.9744 85.099 71.9301 82.853 71.3194 84.8913C70.6374 87.1677 69.5127 88.1049 66.4808 88.9228C63.5697 89.7083 62.0828 90.9849 61.2651 93.4007C60.8895 94.5098 60.836 94.5682 60.6984 94.0202C60.4595 93.0681 60.784 91.5252 61.562 89.9139C62.8722 87.2008 66.5309 84.373 70.0148 83.3803C70.7304 83.1766 73.2317 82.6477 75.5735 82.2054C77.9152 81.7628 80.5762 81.1322 81.4869 80.8039C83.4568 80.0938 83.4144 80.105 83.1308 80.3725ZM51.1404 118.439C49.4371 119.048 48.2906 120.035 47.4346 121.629C46.7732 122.86 46.65 122.967 45.8881 122.972C44.204 122.985 41.3939 124.888 41.3939 126.017C41.3939 126.17 40.9696 126.756 40.4506 127.319C39.3278 128.537 38.792 129.719 38.792 130.977V131.898L37.1441 132.016C35.2903 132.149 33.3914 132.968 32.1723 134.16C31.1377 135.171 31.3444 135.407 33.1821 135.31C36.2022 135.15 37.4544 136.125 39.0979 139.915C40.6138 143.411 42.0617 145.358 44.3729 147.007C47.3634 149.141 50.1498 150.035 53.6938 149.999C59.5337 149.939 65.2657 146.646 67.5404 142.043C68.3033 140.499 68.4539 139.934 68.5438 138.282C68.6252 136.787 68.7562 136.222 69.1103 135.834C69.6726 135.219 70.2514 133.378 70.2514 132.204C70.2514 130.79 69.6101 129.052 68.6938 127.982C67.8475 126.993 66.3599 126.049 65.6484 126.049C65.3962 126.049 65.2825 125.812 65.2789 125.28C65.2619 122.773 62.3709 120.304 60.0037 120.774C59.4639 120.881 59.1689 120.747 58.4662 120.073C56.5209 118.208 53.6051 117.557 51.1404 118.439ZM55.1516 119.456C56.1756 119.676 56.6122 119.944 57.6173 120.974L58.8385 122.225L60.2281 122.111C62.5244 121.924 63.8065 123.053 64.0742 125.498C64.2183 126.813 64.2289 126.828 65.2037 127.115C67.5587 127.809 68.8906 129.613 68.8764 132.087C68.8601 134.913 67.3143 136.693 64.8761 136.693C63.7667 136.693 63.4961 136.597 62.8873 135.988C62.2754 135.376 62.1923 135.139 62.255 134.182C62.3191 133.205 62.4178 133.031 63.1205 132.656C64.1076 132.128 64.4089 132.238 64.8148 133.273C64.9915 133.723 65.212 134.091 65.3052 134.091C65.5374 134.091 65.9937 132.728 65.9937 132.033C65.9937 129.934 63.0768 128.174 60.7523 128.87C59.3492 129.291 57.8193 130.855 57.446 132.252C57.1863 133.222 57.0737 133.347 56.3494 133.464C55.3595 133.625 54.0515 134.59 53.5753 135.511C52.7295 137.146 53.379 139.477 54.8961 140.251C55.9404 140.784 56.1604 140.602 55.7831 139.519C55.5386 138.818 55.5667 138.7 56.0743 138.289C56.6314 137.838 56.6396 137.838 57.0574 138.354C57.6042 139.03 57.5889 139.627 56.9921 140.86C55.9998 142.909 52.908 144.108 50.0374 143.556C49.2514 143.405 48.0574 143.033 47.3842 142.729C46.1689 142.18 44.1709 140.537 43.7406 139.733C43.5287 139.337 43.5729 139.334 44.5209 139.668C45.7859 140.114 47.6378 140.169 48.7701 139.794C50.5458 139.205 52.0402 136.718 51.675 134.958C51.2738 133.026 49.558 131.607 47.6212 131.607C46.9289 131.607 46.3624 131.597 46.3619 131.585C46.3614 131.572 46.531 131.221 46.7389 130.805C47.1557 129.969 47.0355 129.033 46.4243 128.355C45.9574 127.837 44.7054 127.794 44.7054 128.296C44.7054 128.491 44.897 128.651 45.1312 128.651C46.1178 128.651 46.4132 129.661 45.6885 130.556C44.9914 131.417 43.8615 131.285 42.8952 130.231C42.2334 129.509 42.1035 129.186 42.1035 128.261C42.1035 126.721 42.9716 125.297 44.3038 124.652C46 123.831 46.8314 124.044 46.8357 125.299C46.8409 126.911 48.5139 129.329 50.0791 129.987C51.0616 130.399 53.2595 130.397 54.2336 129.982C55.5128 129.437 56.1252 128.575 56.243 127.154C56.369 125.635 55.9033 124.569 54.8843 124.042C53.0145 123.075 51.0065 124.345 51.6206 126.107C51.9127 126.944 52.2737 126.945 52.2781 126.108C52.2836 125.161 52.6107 124.787 53.4334 124.787C55.4515 124.787 55.8603 127.554 54.0217 128.769C53.0384 129.418 51.2038 129.377 50.0762 128.681C47.0313 126.799 47.4176 121.692 50.7357 119.96C52.2748 119.157 53.2416 119.046 55.1516 119.456ZM42.6088 131.563C42.9515 131.811 43.7153 132.069 44.3059 132.135L45.3798 132.256L44.9152 132.755C44.4854 133.216 44.3653 133.522 44.1824 134.619C44.1264 134.955 43.8998 134.857 42.9314 134.076C42.2809 133.551 41.3497 132.912 40.8617 132.656C40.0975 132.254 39.9747 132.076 39.9747 131.371C39.9747 130.921 40.15 130.115 40.364 129.58L40.7531 128.607L41.3693 129.86C41.708 130.549 42.2658 131.315 42.6088 131.563ZM64.3645 130.686C64.8084 131.112 65.0476 131.58 65.0476 132.023C65.0476 132.644 65.0138 132.672 64.676 132.334C64.0863 131.744 62.5322 131.854 61.8532 132.533C60.7102 133.676 60.7949 135.378 62.0705 136.905C63.0992 138.136 63.3097 139.458 62.7939 141.449C62.2619 143.502 61.6497 144.607 60.2932 145.964C57.1657 149.091 52.1805 149.613 47.4086 147.311C45.5768 146.428 45.2137 146.034 46.7751 146.624C51.2712 148.324 56.4088 147.236 58.8222 144.072C61.1731 140.989 60.0732 136.693 56.9334 136.693C56.1361 136.693 54.8765 137.555 54.8765 138.101C54.8765 138.6 54.4503 138.331 54.3012 137.737C53.9339 136.273 55.7675 134.327 57.5134 134.327C58.4205 134.327 58.4246 134.323 58.4246 133.369C58.4246 132.111 58.93 131.181 59.9597 130.544C61.6824 129.48 63.1543 129.527 64.3645 130.686ZM48.5567 132.759C49.7834 133.282 50.4374 134.164 50.5476 135.443C50.8005 138.378 47.7125 139.958 44.5779 138.499C43.7763 138.125 42.9241 137.416 41.976 136.332C40.5313 134.682 38.7953 133.381 38.036 133.381C37.8014 133.381 37.6093 133.275 37.6093 133.145C37.6093 132.349 40.4352 133.464 42.701 135.153C44.7272 136.664 45.8574 137.121 46.8139 136.817C47.4405 136.619 47.8502 135.866 47.6593 135.265C47.4696 134.667 47.16 134.671 47.0022 135.274C46.7113 136.386 45.0609 135.494 45.3292 134.37C45.5314 133.522 45.8668 133.133 46.716 132.763C47.6158 132.371 47.6444 132.371 48.5567 132.759ZM37.553 134.214C39.2457 134.717 41.1262 136.477 41.9625 138.34C44.0883 143.077 50.0902 145.857 54.4034 144.104C56.7797 143.137 58.188 141.389 58.188 139.406C58.188 138.346 58.2145 138.293 58.5353 138.717C59.4 139.86 59.1734 141.872 58.0123 143.363C54.6754 147.646 47.1226 147.292 42.7814 142.649C41.9091 141.716 40.8903 140.287 40.3598 139.251C38.9006 136.402 36.7985 134.327 35.3717 134.327C35.1713 134.327 35.0074 134.221 35.0074 134.091C35.0074 133.746 36.1634 133.802 37.553 134.214ZM67.3415 138.561C67.1792 139.931 65.9381 142.595 65.1034 143.364L64.5144 143.907L64.8993 143.15C65.5242 141.921 65.8045 140.204 65.5587 139.111L65.3392 138.133L66.3168 137.787C66.8547 137.596 67.3361 137.431 67.3867 137.421C67.4373 137.411 67.417 137.924 67.3415 138.561ZM64.7862 138.109C65.0499 138.111 65.0864 138.429 64.9679 139.697C64.8042 141.451 64.0657 143.19 62.9287 144.499L62.2091 145.326L62.8596 144.035C63.4441 142.875 63.5101 142.496 63.5101 140.298C63.5101 137.967 63.5323 137.857 63.9832 137.978C64.2434 138.048 64.6048 138.107 64.7862 138.109Z" stroke="#286196" stroke-width="2" mask="url(#path-1-inside-1_113_2029)"/>
</svg>
