<svg width="160" height="10" viewBox="0 0 204 13" fill="none" xmlns="http://www.w3.org/2000/svg">
<path d="M125.939 0.105026C134.21 0.0716639 143.265 -0.128825 151.569 0.132007C152.588 0.163874 152.519 0.600447 152.805 0.658071C153.587 0.817073 154.057 0.302102 154.627 0.339893C157.398 0.521861 159.989 0.595943 162.707 0.761221C165.507 0.931065 164.183 2.28812 165.155 2.61871C167.056 3.26614 165.439 1.49654 166.187 1.09924C168.366 1.20538 170.564 1.39709 172.747 1.59118C172.214 1.75641 171.681 1.91812 171.142 2.07122C172.094 2.10764 173.455 2.38078 171.862 2.84326C172.214 2.97064 172.543 3.11961 172.905 3.24396C173.004 2.59953 174.688 2.54769 174.842 2.16565C174.996 1.7835 174.049 1.87131 174.055 1.83795C174.118 1.36197 178.003 2.0126 178.283 2.06567C179.024 2.20689 178.374 3.00579 179.004 2.95435C180.088 2.86639 179.366 1.2409 180.833 3.40186C181.417 2.69985 181.468 3.06442 182.207 3.11304C182.304 3.1191 182.228 2.71264 182.271 2.70203C183.39 2.40034 182.53 3.1562 182.536 3.19715C182.637 3.8927 183.838 3.5835 184.091 3.65021C187.264 4.48118 189.589 5.04376 192.937 5.23634C193.661 5.27727 195.865 4.99507 196.566 5.11335C197.257 5.23008 196.886 5.73125 197.248 5.97188C197.827 4.76625 198.38 4.63329 199.681 5.42756C200.165 4.54811 200.103 5.25752 201.031 5.08162C201.804 4.93589 203.15 3.88092 204 4.7801C203.025 4.69821 203.126 5.13023 202.029 5.39106C201.664 5.47745 197.854 5.4959 198.138 6.39479C198.286 6.86335 199.548 6.433 199.597 6.51936C199.881 7.02283 199.176 7.64156 198.552 7.4247C198.707 7.3231 198.895 7.22003 199.062 7.11843C197.66 6.4891 198.624 8.90617 197.558 6.7939C197.426 6.5348 197.477 6.26465 197.26 5.98933C197.215 6.1032 197.481 6.38549 197.252 6.43605C197.019 6.48701 196.575 5.95104 196.509 6.40273C196.41 7.05957 197.378 6.80073 197.451 6.83913C197.451 6.83516 197.452 6.83119 197.453 6.82723C198.097 7.17597 196.752 7.21574 196.688 7.27791C196.272 7.68717 196.556 8.00231 195.932 8.34036C195.576 8.53295 194.669 8.41942 194.334 8.48159C194.002 8.54532 194.519 8.85604 194.295 8.92275C194.071 8.98947 193.793 8.75338 193.53 8.83071C193.418 8.8648 193.423 9.21136 193.369 9.22348C192.785 9.35682 193.168 8.63598 192.639 8.67996C192.296 8.70919 191.146 9.38115 191.939 9.58133C191.557 9.65105 191.186 9.7021 190.806 9.75668C191.046 9.85976 191.293 9.92981 191.526 10.0511C190.812 9.88598 190.49 10.479 190.042 10.5232C189.595 10.5671 189.194 9.85547 188.701 10.2026C187.651 10.9411 190.252 10.5999 190.575 10.7318C190.701 10.7837 190.218 11.3412 190.143 11.3571C189.813 11.4268 189.422 11.0282 189.167 11.0461C188.254 11.1128 187.696 11.6389 186.826 11.7451C183.865 12.106 180.191 12.3987 177.386 12.514C176.341 12.5564 175.712 11.9649 175.243 11.9815C174.146 12.021 174.012 12.5365 173.055 12.5639C171.631 12.6064 169.624 12.1564 168.436 12.0593C167.613 11.9926 166.867 12.4915 166.653 12.5036C163.679 12.6826 160.06 12.6713 157.594 12.6774C156.435 12.6804 155.884 12.1198 155.645 12.1363C154.616 12.206 154.892 12.6853 154.058 12.6369C153.607 12.6112 153.522 12.1511 153.462 12.1331C152.931 11.9814 152.825 12.5823 152.411 12.602C150.028 12.7157 147.732 12.3224 145.372 12.2648C145.201 12.2603 145.216 11.9941 145.105 12.0077C144.629 12.0731 144.85 12.4922 144.353 12.5227C143.318 12.5879 142.255 12.5186 141.157 12.4655C141.049 12.4603 141 12.1181 140.751 12.118C140.502 12.118 140.313 12.4424 139.922 12.4243C138.901 12.3773 137.893 11.9893 136.811 11.968C136.632 11.965 136.41 12.3772 136.142 12.3727C135.299 12.3591 134.052 11.9849 133.33 11.9712C130.949 11.9288 128.752 12.1634 126.509 12.1664C125.981 12.1662 125.514 11.7843 125.24 11.7752C124.622 11.7556 125.088 12.1165 124.462 12.118C119.345 12.1271 114.208 11.963 109.031 11.9918C106.998 12.0025 104.523 12.3758 102.558 12.2727C101.741 12.2287 101.593 11.7298 101.015 11.7252C99.9839 11.7193 99.797 12.3589 98.7097 12.4227C97.8419 12.4727 96.8475 11.8342 95.9447 11.8736C95.042 11.913 94.6254 12.5333 93.5883 12.6076C92.7342 12.6682 91.5417 12.3867 90.6117 12.4322C82.0899 12.8508 73.6985 13.1055 65.1242 12.6203C62.0987 12.4489 58.742 12.538 55.6154 11.9284C55.3217 11.8707 55.7709 11.2717 54.8294 11.3975C54.3235 11.4658 53.6173 11.9819 52.4481 12.0077C45.4963 12.1594 38.0811 11.0554 31.0126 11.2738C20.4245 11.6029 9.45126 15.8651 0.250385 9.62812C-0.200931 9.32184 0.0438055 7.82094 0.314198 7.39453C0.565127 7.69928 0.797117 8.06123 1.05971 8.4054C1.39039 6.53003 1.33208 7.01833 2.55775 7.18664C3.31234 7.29117 2.70959 6.48912 3.11182 6.26147C3.63326 5.96728 6.08147 5.04091 5.61062 6.28289C5.76237 6.06757 5.90244 5.86128 6.0503 5.65051C7.82271 5.46246 9.54474 5.15151 11.2782 4.79516C11.5777 4.73286 11.5915 4.34316 11.9008 4.28099C12.7315 4.11122 13.3911 4.36723 14.2471 4.32781C14.7121 4.30658 14.7766 3.85624 15.3856 3.88506C15.9942 3.91405 15.9809 4.52197 16.8112 3.86125C16.2704 3.09849 18.6831 3.65195 19.5412 3.60497C19.6657 3.5989 20.687 2.91365 21.2299 2.99242C21.7746 3.06974 22.6015 3.5075 23.4438 3.25902C23.8388 3.14225 24.0784 2.60859 24.5045 2.57823C24.8041 2.557 25.164 3.03136 25.5434 3.05113C25.9226 3.07084 26.7432 2.68145 26.8936 2.67503C27.4363 2.64926 26.8376 2.98276 27.2088 2.99956C29.0006 3.07538 31.0825 3.2541 32.8491 3.02971C33.0663 3.0025 32.7658 2.60958 32.7947 2.59648C34.2691 2.11437 33.4821 2.62632 33.8803 2.97813C34.2659 3.31832 37.0882 3.13275 37.109 2.44969C37.1957 3.30505 37.8231 2.65174 37.986 2.62663C38.6202 2.52967 38.4958 3.26972 39.1105 3.04082C39.3361 2.95745 38.8969 2.45725 39.1393 2.47191C39.7386 2.5083 40.2778 3.31189 41.0755 3.39232C41.2681 3.41204 41.3307 3.05408 41.6731 3.06621C42.016 3.07853 43.453 3.51645 42.7899 2.76152C43.6614 3.36649 43.8369 3.03445 44.8505 3.05113C45.1073 3.05622 45.4379 3.63307 45.9844 3.45421C46.1692 3.39351 46.1637 2.83748 46.4419 2.83293C47.0781 2.82096 47.6774 3.39656 48.4847 3.4193C49.9945 3.46326 51.6017 3.05863 53.1757 3.20269C53.6035 3.24222 53.4967 3.80126 54.1189 3.81206C54.2103 3.81206 54.9597 3.32862 55.3897 3.37407C55.6485 3.40137 56.9892 3.74113 57.2597 3.76842C57.7069 3.81218 57.7867 3.2715 58.0317 3.37725C58.7399 3.68205 58.1717 4.47792 59.0239 3.38915C59.304 3.99269 59.8021 3.93231 59.9616 4.67535C60.2515 3.86108 60.6274 4.64342 61.1896 4.37066C61.7519 4.0977 62.2129 2.5206 62.3491 4.21752C62.6118 4.01128 63.7308 3.65932 63.9195 3.63354C64.4757 3.56081 64.1783 4.0302 64.5981 3.96679C64.672 3.95618 64.5946 3.63521 65.0689 3.66686C65.3802 3.68809 67.6611 3.70778 67.7973 3.75176C69.3512 4.25426 66.9505 4.07008 66.6144 4.41747C66.5551 4.32623 66.4964 4.23469 66.4331 4.14452C65.7464 3.99297 66.1374 4.71809 66.4487 4.88641C66.76 5.05468 67.3416 4.73165 67.6004 4.96972C67.7293 5.08926 67.6494 5.95863 67.2595 5.85364C67.6767 6.12142 67.107 6.40417 67.272 6.65583C67.4534 6.93171 69.3282 7.01664 69.3381 6.5376C68.9879 6.52092 68.5521 6.53747 68.1981 6.51776C67.735 5.68523 69.1415 2.84207 70.4315 3.9779C71.3672 4.79977 69.8246 5.45331 72.0385 4.76342C71.698 4.73005 71.41 4.6523 71.1007 4.61743C71.0678 3.99307 71.5696 4.67958 71.8283 4.48095C71.9526 4.38383 71.1867 3.94172 71.8517 3.79461C72.4236 4.68744 72.8637 3.78935 73.8229 3.77874C73.5563 3.93797 73.2894 4.09638 73.0229 4.25561C74.6436 4.90312 70.8792 5.11671 74.0307 5.47913C73.6514 5.50791 73.2741 5.50025 72.8929 5.54419C73.0777 5.8718 72.782 6.83349 72.9474 7.03669C73.3812 7.57002 74.023 7.24853 74.552 7.29536C74.7836 7.31507 74.64 7.57472 74.6594 7.57624C74.9765 7.60501 74.9065 7.2244 75.1847 7.20014C75.5348 7.16984 76.546 7.53985 76.71 7.49769C77.1341 7.39002 76.4279 6.63894 76.4688 6.58283C76.7392 6.21904 77.2915 6.52073 77.2625 6.04486C75.9335 6.37234 72.1033 5.95193 75.5684 5.16492C74.6131 4.39608 74.889 3.33611 76.2625 3.25268C77.3988 3.18292 76.6656 3.60763 77.2571 4.0747C77.3335 4.13317 78.8554 4.35649 78.9333 4.0263C78.8723 4.78677 79.3676 5.46021 79.0352 6.24481C78.9866 6.36007 78.3621 6.31459 78.58 6.94544C78.689 7.26232 79.0016 7.95202 78.9512 8.35542C79.0796 8.07492 79.2139 7.75936 79.3442 7.46674C80.2801 7.38485 80.413 7.68704 80.9247 8.21022C80.9014 7.99184 80.4286 7.07425 81.1465 7.35328C81.1833 7.36995 81.2152 7.69929 81.58 7.86268C82.3173 8.19019 82.4712 8.29205 81.9052 9.25917C83.4322 8.70752 83.7611 9.78543 85.327 9.47023C85.0157 8.22695 84.4652 8.53478 83.0313 8.77437C82.969 8.47868 82.9399 8.186 82.8757 7.88728C84.7841 8.55748 83.8411 8.48921 84.9223 7.88886C85.1869 7.74177 86.5978 7.89917 86.127 7.06208C86.0159 6.86512 85.1393 6.88779 85.2398 6.57727C85.2593 6.51815 86.3249 6.36773 86.4188 6.44794C87.5978 7.43817 85.4909 8.12833 88.7378 7.76747C88.8273 7.75686 88.8587 7.39492 89.0336 7.34455C89.3623 7.25055 89.3664 7.66986 89.66 7.57307C89.9538 7.47603 90.3608 6.91209 90.8024 7.43342C91.6098 8.38272 89.7052 8.92871 88.8569 8.42524C88.5125 9.66571 94.5731 9.69302 94.9486 9.58687C96.5884 9.12444 93.8597 9.39139 93.7191 9.04732C93.6607 8.90175 93.6898 7.05649 92.9993 8.25386C92.795 8.60868 93.6488 9.07621 93.1393 9.27187C92.6296 9.46749 92.8316 8.92416 92.7946 8.88624C92.6678 8.75631 92.1257 8.95775 92.0553 8.88069C90.9735 7.7115 91.0727 5.94475 92.5067 8.55458C93.1312 7.96467 91.6976 7.02444 92.474 6.62409C93.4175 6.1375 94.1062 6.97894 94.2249 7.01685C95.6468 7.46553 94.0073 6.23719 95.744 6.62964C96.711 6.84801 94.2968 7.44713 96.505 7.36677C98.3534 7.29853 97.3552 6.87092 97.4895 5.89887C97.5212 5.67144 98.5339 5.39256 97.1548 5.49262C97.1159 5.74582 97.0424 6.07953 96.9548 6.31305C96.6166 6.12819 96.0526 4.8609 95.8731 4.81659C94.9957 4.60581 95.0381 5.26358 94.5206 4.48889C94.8902 5.33639 94.2887 4.82571 94.063 5.00464C93.225 5.66411 94.3239 5.9093 92.4428 5.06177C92.688 5.45908 92.9098 5.84902 93.1471 6.24482C92.9215 6.25846 92.6957 6.27243 92.4701 6.28608C92.1335 5.41111 90.9348 5.523 92.0203 4.64203C90.7149 4.39186 90.1873 4.5826 89.9012 5.26331C89.8469 5.39326 89.6508 5.4452 89.4203 5.4577C89.4639 5.64912 89.5197 6.24052 89.4834 6.31305C89.1585 6.95092 88.6548 5.84896 88.8266 5.42835C88.6654 5.40822 88.5377 5.38461 88.4927 5.37439C88.2071 5.30906 88.767 4.92873 88.5355 4.79834C88.4592 4.75596 87.6546 4.83871 87.639 4.68408C87.542 3.69279 88.8662 4.40798 86.2071 3.8319C86.1429 4.7342 87.378 4.5358 87.0608 5.4942C86.7203 6.52379 86.0258 5.1427 85.8741 6.40589C85.8177 6.19821 85.7927 6.02501 85.7441 5.78858C84.6684 6.33896 84.6541 5.28688 84.3254 5.05463C83.6873 4.6012 80.7533 4.6693 83.3877 5.58069C83.0025 5.67168 82.6092 5.71376 82.2259 5.79413C82.1384 3.90807 82.3718 4.65876 80.5255 4.37066C80.1189 4.30698 79.9866 3.47746 79.5878 4.4627C79.642 3.49626 78.4393 4.08011 78.3271 3.96282C77.6073 3.20009 80.2801 2.13838 80.6228 3.84698C81.074 3.18174 81.0723 4.06114 81.5761 3.94457C82.3037 3.77625 82.4048 3.60498 83.2687 4.25402C84.1189 3.3396 79.9401 3.85171 82.4733 2.63854C85.0073 1.42547 99.7618 0.748797 103.204 0.566817C109.44 0.237749 112.718 0.0226658 118.32 0.0772542C118.872 0.0818033 123.043 -0.00587363 122.176 1.05083C122.052 1.20247 120.258 1.60436 121.797 2.43383C121.483 1.94408 122.388 1.62607 122.464 1.57451C124.205 0.403841 123.197 0.117157 125.939 0.105026ZM134.066 9.52974C130.488 9.28865 133.116 9.99507 132.373 11.5904C132.832 11.5949 133.29 11.5993 133.749 11.6038C133.628 11.5038 133.509 11.404 133.389 11.3039C133.388 11.3039 133.388 11.3039 133.387 11.3039C133.613 10.7126 133.84 10.1211 134.066 9.52974ZM192.554 10.5977C192.415 10.8078 192.277 11.0183 192.125 11.2238C191.653 11.1586 191.182 11.0946 190.709 11.0294C190.766 10.8869 190.82 10.7426 190.876 10.6001C191.436 10.6062 191.993 10.6128 192.554 10.5977ZM88.3565 8.65614C87.6873 8.07239 87.7476 9.11412 86.8585 8.63948C86.9674 9.40824 87.0885 10.1603 87.2032 10.9215C87.88 10.8077 88.0338 10.5154 88.769 10.7033C88.6834 10.4562 88.5958 10.2076 88.5122 9.959C88.3897 10.012 88.2595 10.0723 88.141 10.1193C87.9523 9.42787 89.1271 9.3247 88.3589 8.65455C88.3581 8.65508 88.3573 8.65561 88.3565 8.65614ZM81.4983 8.96559C81.1383 8.8655 79.7123 8.48924 79.5177 8.80769C78.8582 9.88741 82.8813 9.20221 79.9162 10.1621C79.9298 10.3136 79.9162 10.462 79.9162 10.612C80.4571 10.6651 80.9963 10.7108 81.5411 10.7533C81.5119 10.1559 81.5313 9.56602 81.4983 8.96559ZM121.125 9.59639C120.572 9.51322 117.935 10.0211 118.794 10.7049C119.047 10.905 120.225 9.92686 120.672 9.96932C120.962 9.99669 120.637 10.533 121.209 10.3359C121.184 10.0995 121.168 9.8374 121.123 9.59798C121.124 9.59745 121.124 9.59692 121.125 9.59639ZM122.162 6.47572C121.59 6.57125 121.011 6.6923 120.435 6.79389C120.855 7.4049 121.682 7.01242 121.73 7.87221C121.573 7.93739 121.417 8.00221 121.26 8.0674C121.139 7.87941 121.02 7.69124 120.902 7.50325C120.407 7.97032 120.707 8.20236 119.786 8.0674C120.343 9.367 120.446 10.0645 122.022 8.74977C121.725 9.45489 122.005 11.7525 122.878 10.1106C123.042 9.80575 122.359 9.60207 122.351 9.55355C122.246 8.9502 122.625 8.56515 122.512 7.99519C122.462 7.73739 122.046 7.74132 121.983 7.38343C121.955 7.20886 122.35 6.71074 122.162 6.47572ZM123.302 9.5353C123.125 9.90075 123.73 10.768 124.256 10.5922C125.075 10.3192 123.783 9.49435 123.302 9.5353ZM192.557 10.597C192.556 10.5972 192.555 10.5975 192.554 10.5977C192.555 10.597 192.555 10.5962 192.556 10.5954C192.556 10.5959 192.557 10.5964 192.557 10.597ZM83.3543 9.3885C82.9302 9.69918 82.3024 9.6539 82.3488 10.1478C82.1426 10.0508 81.9341 9.95529 81.7278 9.85823C81.7298 10.0067 81.7337 10.1556 81.7356 10.3026C82.3562 10.3951 82.9749 10.4879 83.5955 10.5819C83.5177 10.1846 83.4457 9.78578 83.3543 9.3885ZM76.5933 9.04255C75.8132 8.99257 76.4672 9.66464 76.296 9.98915C76.1248 10.3137 75.4298 10.0497 75.5116 10.5152C75.9707 10.5334 76.4496 10.5517 76.9147 10.5684C76.7921 10.0619 76.7065 9.54602 76.5917 9.04255C76.5922 9.04255 76.5927 9.04255 76.5933 9.04255ZM148.668 10.059C148.139 9.91338 148.355 9.40057 147.31 10.0011C147.311 10.0011 147.311 10.0011 147.312 10.0011C148.306 10.421 149.586 10.7953 150.683 10.3891C150.012 9.84805 149.5 10.2864 148.668 10.059ZM90.2071 10.1693C90.4305 9.76292 89.39 9.42355 89.1604 9.8011C88.7889 10.4122 89.8666 10.7864 90.2071 10.1693ZM170.041 6.45985C170.846 5.20888 169.321 3.80468 167.723 4.41114C167.585 4.46421 168.616 4.86206 168.311 5.10621C168.28 5.13025 167.714 5.10045 167.574 5.27442C167.434 5.44882 167.581 5.85361 167.351 6.02345C166.949 6.32029 166.038 5.77027 165.737 6.15992C165.697 6.21214 166.262 6.7535 166.297 6.77406C166.877 7.10158 167.435 6.39393 167.525 6.38923C167.986 6.36497 167.916 6.91977 168.033 7.05019C168.253 7.29545 168.64 7.05024 168.667 7.06844C169.367 7.55501 167.768 7.41577 167.552 7.61592C166.971 8.15576 167.509 8.65763 166.114 8.96242C165.982 8.99112 164.396 8.95853 166.394 9.57974C162.471 10.8747 168.366 10.3163 169.006 10.0312C169.301 9.89904 168.854 9.37022 169.033 9.13223C169.442 8.58791 170.138 8.49191 170.076 7.72463C169.942 6.11148 169.027 7.16848 168.397 6.89705C168.463 6.54675 168.488 6.2051 168.611 5.86238C168.422 6.32338 169.983 6.55401 170.041 6.46303C170.041 6.46197 170.041 6.46091 170.041 6.45985ZM160.108 8.30306C159.227 7.81627 159.289 8.8346 158.482 8.25228C157.77 9.16664 159.174 9.10528 159.338 9.15682C160.085 9.38729 160.067 10.3816 160.832 10.0756C160.569 9.48734 160.355 8.89288 160.108 8.30306ZM167.774 8.7228C167.185 9.23837 168.239 9.22964 168.282 9.32821C168.748 10.374 165.589 10.1708 167.774 8.7228ZM117.692 7.54768C117.392 7.51282 117.582 8.00647 117.318 8.1523C117.053 8.29934 116.149 7.87687 116.172 8.18403C116.195 8.49188 117.852 9.29022 116.189 9.46309C116.245 9.63588 116.226 9.76478 116.253 9.92092C116.711 9.92547 117.172 9.93303 117.629 9.93758C117.378 9.44024 117.121 8.91703 116.88 8.43636C117.137 8.04056 117.281 8.54823 117.295 8.54823C117.295 8.5477 117.295 8.54718 117.295 8.54665C117.773 8.50682 118.364 7.62524 117.692 7.54768ZM141.27 9.09731C141.36 7.86139 140.653 9.24169 140.364 9.39486C140.074 9.54748 139.675 9.08994 139.825 9.62179C140.294 9.98875 141.26 9.23524 141.27 9.09572C141.27 9.09625 141.27 9.09678 141.27 9.09731ZM155.32 8.30544C154.581 8.60544 154.698 8.92675 153.794 8.56014C153.83 8.85888 153.865 9.16414 153.9 9.45834C154.617 9.4644 154.567 8.59717 155.398 8.94576C155.534 9.00338 155.242 9.69608 155.857 9.47341C155.678 9.10371 155.497 8.69335 155.32 8.30544ZM151.658 9.41311C152.507 9.36749 153.179 6.95012 151.617 8.04042C151.386 8.20339 151.02 9.44797 151.658 9.41311ZM125.516 7.48658C124.073 7.4169 125.713 7.807 126.088 8.17848C122.729 8.47563 126.468 8.07682 126.803 9.31234C127.213 8.96051 127.981 8.1559 127.128 7.94044C126.772 7.85097 126.902 8.21888 126.88 8.21736C126.225 8.12635 126.304 7.5245 125.516 7.48658ZM161.64 8.24355C161.585 8.26175 161.67 8.67907 161.497 8.76247C161.324 8.84527 160.931 8.55319 160.892 8.80929C160.854 9.06697 161.641 9.26682 161.882 9.07906C162.124 8.88951 162.132 8.08286 161.64 8.24355ZM156.102 7.21522C155.381 7.51552 156.56 9.05291 156.717 9.04574C158.094 8.96536 156.061 7.70201 156.102 7.21522ZM128.867 4.87531C127.128 5.65628 128.4 7.01336 129.49 7.82619C129.634 7.66099 129.781 7.49554 129.923 7.33186C129.269 8.33576 128.124 9.32802 130.673 8.45302C129.278 8.21677 130.446 7.94707 130.455 7.89046C130.608 6.04644 128.542 6.90282 128.869 4.87531C128.868 4.87531 128.868 4.87531 128.867 4.87531ZM163.984 8.68313C164.741 8.67698 166.709 8.35844 165.791 7.55483C165.188 7.93083 164.587 8.30712 163.984 8.68313ZM100.391 4.98322C99.7719 4.52373 99.2016 4.53156 98.4389 4.56189C99.1256 5.2306 98.6743 5.30742 98.4428 5.47119C98.0915 5.71773 98.9423 5.69752 98.9447 5.74256C98.9291 6.3779 98.3866 6.47658 99.6217 6.46143C99.3164 6.68275 99.015 6.90576 98.7097 7.12556C99.6511 7.15442 99.8728 7.56892 100.47 8.07533C99.8902 6.83795 100.654 7.61269 101.346 6.99702C101.692 6.68877 100.705 5.21822 100.388 4.98322C100.389 4.98322 100.39 4.98322 100.391 4.98322ZM127.07 4.62695C126.891 4.84985 126.727 5.15138 126.554 5.40613C126.365 5.4304 126.176 5.45169 125.987 5.47596C125.964 5.27889 125.944 5.07274 125.917 4.88324C125.668 4.82588 125.765 5.10027 125.691 5.12604C125.691 5.12498 125.691 5.12393 125.691 5.12287C124.631 5.48663 124.197 5.44573 123.367 4.83643C123.367 5.44025 123.367 6.04407 123.367 6.6479C123.554 6.59032 123.742 6.53416 123.929 6.4781C124.028 6.15364 124.128 5.82898 124.227 5.50452C124.443 5.68346 124.657 5.86116 124.873 6.04011C125.046 5.92344 125.254 5.80067 125.403 5.68702C126.265 7.37474 124.307 6.22819 124.289 6.92878C124.277 7.37915 126.25 7.35946 126.534 7.04859C126.575 7.0031 126.149 5.74636 126.87 6.40113C126.983 6.50425 127.023 9.22316 127.801 7.02162C127.912 6.7093 127.525 5.02021 127.07 4.62695ZM119.907 3.75018C121.016 5.48951 116.923 3.65032 118.689 5.08161C118.185 5.88066 118.279 5.87027 118.786 6.57966C118.831 6.64324 118.48 6.86279 118.51 6.8907C118.985 7.28194 119.557 7.0745 119.561 7.78572C119.689 7.74783 119.81 7.71411 119.938 7.67622C119.403 7.00607 120.254 6.55569 120.583 5.99012C120.732 5.73395 120.388 5.65493 120.514 5.43073C120.561 5.34887 121.041 5.51229 121.061 5.27759C121.102 4.74683 120.8 4.02955 120.288 3.6383C120.288 3.63777 120.288 3.63724 120.288 3.63672C120.16 3.67158 120.035 3.71382 119.907 3.75018ZM143.609 5.19507C143.798 6.15651 144.555 6.4317 143.101 6.90181C143.173 7.09118 143.247 7.27897 143.319 7.46834C143.564 7.45166 143.802 7.4351 144.051 7.41994C144.798 4.58748 146.161 7.78396 145.288 5.77509C145.193 5.55672 144.611 5.80071 145.185 5.20777C145.184 5.20724 145.184 5.20671 145.183 5.20618C144.382 5.38817 144.281 5.72881 143.609 5.19507ZM138.245 5.86555C136.397 7.88851 140.799 6.9943 140.064 6.45747C139.998 6.40895 138.101 6.84366 138.245 5.86555ZM153.077 4.10486C152.248 4.06999 152.193 5.16147 152.277 5.55451C152.361 5.94875 152.934 5.55036 153.009 5.61243C153.25 5.81716 152.738 5.95238 153.051 6.23292C153.155 6.32403 154.598 6.71315 154.665 6.66615C155.032 6.40508 154.495 5.50447 154.6 5.40137C154.942 5.06339 155.407 5.5319 155.507 5.05305C155.72 4.03131 154.854 5.10387 154.707 5.12128C154.266 5.16981 154.304 4.59463 153.973 4.47937C153.643 4.36435 153.427 4.56139 153.135 4.52063C153.038 4.50702 153.119 4.1085 153.077 4.10486ZM150.337 6.40986C151.202 5.58362 149.095 4.68502 148.845 4.87848C148.11 5.45322 149.923 6.80414 150.337 6.40986ZM122.684 6.37495C123.475 5.77598 121.631 5.29119 121.104 5.53229C121.202 5.78119 122.411 6.58114 122.684 6.37495ZM129.35 4.87848C128.622 5.06501 129.587 6.41443 130.194 6.3932C130.55 5.50638 130.215 5.68215 129.818 5.64576C129.422 5.60902 129.917 4.73319 129.35 4.87848ZM162.065 5.09113C161.908 5.07705 159.378 5.81008 160.832 6.1147C160.943 6.13744 162.714 6.00838 162.848 5.8719C163.118 5.59589 162.47 5.13055 162.065 5.09113ZM132.84 3.56848C132.455 4.33562 132.076 4.32531 132.43 5.22602C132.43 5.22602 132.431 5.22602 132.431 5.22602C131.457 5.50187 131.414 3.65918 131.203 3.69861C130.468 3.8369 131.165 5.14845 130.704 5.57911C131.776 5.17427 131.468 6.05858 132.284 6.11469C132.466 6.12682 133.198 5.59873 133.305 5.26966C133.412 4.94044 133.038 3.95367 132.84 3.56848ZM165.639 4.89991C164.785 4.60597 164.003 5.84927 165.188 6.04646C165.766 6.14351 166.161 5.07885 165.639 4.89991ZM80.2664 4.58886C80.3967 4.91485 80.531 5.23948 80.671 5.56244C80.356 5.64127 80.0406 5.72172 79.7255 5.80206C79.9746 5.69895 80.2239 5.59739 80.4749 5.49579C79.8834 5.38205 79.613 4.78904 80.2648 4.58886C80.2653 4.58886 80.2658 4.58886 80.2664 4.58886ZM59.2091 4.34051C58.9445 4.0266 58.4231 4.99864 58.4892 5.07446C58.9872 5.63949 59.5763 4.77575 59.2091 4.34051ZM121.514 3.42248C120.53 3.2865 121.207 4.86696 121.81 4.97528C121.441 4.67303 122.072 3.4998 121.514 3.42248ZM66.6144 4.41747C66.7027 4.55335 66.7917 4.68923 66.8907 4.82531C66.5795 4.63637 66.5256 4.5093 66.6144 4.41747ZM161.663 3.69544C161.513 3.57417 160.402 3.47401 160.252 3.62402C159.941 3.93944 160.807 4.81202 161.317 4.54365C161.373 4.51483 161.812 3.81675 161.661 3.69544C161.661 3.69544 161.662 3.69544 161.663 3.69544ZM78.9356 3.98345C78.9374 3.99858 78.9365 4.01301 78.9333 4.0263C78.9344 4.0122 78.9341 3.99761 78.9356 3.98345ZM37.1004 2.37749C37.1065 2.402 37.1097 2.42634 37.109 2.44969C37.1067 2.42676 37.102 2.40263 37.1004 2.37749ZM153.83 2.35369C153.46 0.847849 152.608 1.64879 153.281 2.39337C153.319 2.4325 153.74 2.35073 153.83 2.35369Z" fill="#286196"/>
</svg>
