<svg width="147" height="147" viewBox="0 0 147 147" fill="none" xmlns="http://www.w3.org/2000/svg">
<circle cx="73.4453" cy="73.4453" r="71.9453" stroke="#286196" stroke-width="3"/>
<path d="M14.7632 50.1498C18.2211 42.1689 21.3425 35.7292 28.9723 28.1311C36.9807 21.0361 38.4834 20.1118 49.5341 14.9609C57.948 11.3893 67.1568 10.2711 73.4453 10.3349C75.619 10.3364 77.4422 10.4353 78.8335 10.5198C84.2517 11.0022 84.826 11.2956 92.2454 13.3204C99.6013 15.6337 103.804 17.9098 109.303 21.7741C115.375 25.0654 128.759 41.1523 131.098 48.481C134.332 55.3065 135.716 63.908 135.924 69.0214C136.015 70.6297 136.018 71.8736 136 72.8451C135.991 73.2553 135.965 73.4452 135.941 73.4453C135.941 73.4453 135.941 73.4453 135.941 73.4453C135.91 73.4452 135.881 73.151 135.871 72.6256C135.821 70.0911 135.564 66.2701 134.625 61.889C132.554 53.8413 132.802 52.6822 127.51 42.74C121.592 33.212 116.866 27.9698 105.913 20.6366C94.5777 14.4054 91.3013 12.8416 73.4453 11.5874C73.208 11.5834 72.9683 11.5807 72.7263 11.5792C54.2639 12.7455 51.7916 14.2579 36.5237 24.2413C20.9301 34.9193 11.694 58.0413 11.8485 69.2332C11.7606 70.5908 11.7146 71.9772 11.7186 73.4453C11.6529 84.0014 14.8576 97.4444 22.8992 108.873C31.6585 122.119 49.4971 133.282 67.0139 134.855C69.0538 135.083 71.2091 135.22 73.4453 135.238C90.4474 136.071 109.482 125.745 116.415 118.395C124.471 110.254 126.163 107.736 130.792 97.7223C133.314 91.8808 135.461 83.2887 135.811 75.8597C135.961 72.1233 136.102 72.9731 136.011 76.739C135.804 82.2689 134.781 86.7153 134.188 89.4972C132.889 95.0382 132.207 97.4712 128.709 103.781C125.021 109.974 123.048 112.782 120.232 115.922C116.975 118.473 118.49 120.585 99.6833 130.85C89.2062 135.687 80.2834 136.653 73.4453 136.723C67.5038 136.741 62.9791 136.015 59.301 135.206C51.2619 133.854 35.4255 126.262 26.7027 116.083C17.9084 107.965 9.16612 86.1902 10.094 73.4453C10.0858 71.8364 10.1345 70.4214 10.2042 69.1835C11.2375 58.3651 11.7575 58.3389 14.7632 50.1498Z" fill="#286196"/>
<path d="M95.2913 56.9053C95.5113 56.6413 95.7533 56.3113 96.0173 55.9153C96.2813 55.5193 96.5013 55.2333 96.6773 55.0573C96.8533 54.8373 97.0293 54.7273 97.2053 54.7273C97.4693 54.7273 98.0633 55.1013 98.9873 55.8493C99.9113 56.5973 100.769 57.3893 101.561 58.2253C102.397 59.0613 102.815 59.6333 102.815 59.9413C102.683 60.6453 102.133 60.9973 101.165 60.9973H81.1673C78.7473 65.0453 75.9093 68.3893 72.6533 71.0293L71.8613 70.3693C73.6653 67.5973 75.2493 64.3633 76.6133 60.6673C77.3613 58.5553 77.9993 56.0913 78.5273 53.2753C79.0993 50.4593 79.3633 48.1713 79.3193 46.4113L88.1633 49.1833C88.0753 49.6233 87.8113 49.9753 87.3713 50.2393C86.9753 50.5033 86.4473 50.6353 85.7873 50.6353C84.7753 53.7153 83.5873 56.5313 82.2233 59.0833H93.9053L95.2913 56.9053ZM65.5253 62.5813C65.7013 62.3613 65.9433 62.0313 66.2513 61.5913C66.6033 61.1513 66.9113 60.9313 67.1753 60.9313C67.4393 60.9313 67.9893 61.2613 68.8253 61.9213C69.7053 62.5813 70.4973 63.2853 71.2013 64.0333C71.9493 64.7813 72.3233 65.3093 72.3233 65.6173C71.8833 66.1893 71.0473 66.6073 69.8153 66.8713V73.0093C69.9473 78.1133 70.1013 82.0513 70.2773 84.8233C69.9693 85.2193 69.3313 85.6153 68.3633 86.0113C67.3953 86.4073 66.5373 86.6053 65.7893 86.6053H64.9973V84.2293H60.9713V92.0833H65.6573L66.9773 90.0373C67.1093 89.8173 67.3073 89.5313 67.5713 89.1793C67.8793 88.7833 68.1213 88.4973 68.2973 88.3213C68.4733 88.1013 68.6493 87.9913 68.8253 87.9913C69.0893 87.9913 69.6613 88.3433 70.5413 89.0473C71.4213 89.7073 72.2353 90.4333 72.9833 91.2253C73.7753 92.0173 74.1713 92.5673 74.1713 92.8753C73.9953 93.5793 73.4233 93.9313 72.4553 93.9313H60.9713V98.1553L61.0373 100.729C61.0813 102.665 61.1693 104.491 61.3013 106.207C61.0813 106.603 60.5533 106.977 59.7173 107.329C58.9253 107.681 57.9573 107.857 56.8133 107.857C56.4173 107.857 56.1093 107.725 55.8893 107.461C55.6693 107.197 55.5593 106.889 55.5593 106.537C55.7793 104.557 55.9333 101.917 56.0213 98.6173V93.9313H52.1273C49.9273 93.9753 47.6393 94.2833 45.2633 94.8553L43.6133 91.5553C45.9453 91.8193 48.7613 91.9953 52.0613 92.0833H56.0213V84.2293H52.0613V85.8133C52.0613 86.0773 51.6213 86.4073 50.7413 86.8033C49.9053 87.1993 49.0253 87.3973 48.1013 87.3973C47.7493 87.3973 47.4633 87.2653 47.2433 87.0013C47.0233 86.7373 46.9133 86.4293 46.9133 86.0773C47.0893 84.1853 47.2213 81.7873 47.3093 78.8833V74.5933C47.3093 69.3573 47.0453 65.0013 46.5173 61.5253L52.3253 64.1653H56.0213V57.6313H52.2593C50.1473 57.6753 47.9033 57.9833 45.5273 58.5553L43.8113 55.1893C46.1433 55.4533 48.9153 55.6293 52.1273 55.7173H56.0213C56.0213 51.8893 55.8453 48.8533 55.4933 46.6093C58.1773 47.3133 60.0253 47.8853 61.0373 48.3253C62.0493 48.7653 62.5553 49.1393 62.5553 49.4473C62.5553 49.6233 62.4013 49.8213 62.0933 50.0413L61.0373 50.7013V55.7173H65.0633L66.5153 53.6053C66.6913 53.3853 66.9113 53.0773 67.1753 52.6813C67.4833 52.2853 67.7253 51.9993 67.9013 51.8233C68.0773 51.6033 68.2533 51.4933 68.4293 51.4933C68.6933 51.4933 69.2873 51.8673 70.2113 52.6153C71.1353 53.3193 71.9933 54.0893 72.7853 54.9253C73.5773 55.7173 73.9733 56.2673 73.9733 56.5753C73.7973 57.2793 73.2253 57.6313 72.2573 57.6313H61.0373V64.1653H64.4033L65.5253 62.5813ZM64.9973 73.1413V66.0793H52.0613V73.1413H64.9973ZM91.8593 69.1153C91.9913 68.9393 92.1453 68.6973 92.3213 68.3893C92.5413 68.0813 92.7173 67.8613 92.8493 67.7293C93.0253 67.5973 93.2013 67.5313 93.3773 67.5313C93.6413 67.5313 94.1693 67.8833 94.9613 68.5873C95.7973 69.2913 96.5673 70.0613 97.2713 70.8973C97.9753 71.6893 98.3273 72.2393 98.3273 72.5473C97.7113 72.9873 96.7653 73.2733 95.4893 73.4053C89.3293 81.1933 84.9513 87.0013 82.3553 90.8293C79.7593 94.6573 78.4613 97.3413 78.4613 98.8813C78.4613 99.8053 78.9013 100.465 79.7813 100.861C80.7053 101.213 82.1793 101.389 84.2033 101.389H92.9813C94.8733 101.389 96.1273 101.323 96.7433 101.191C97.3593 101.015 97.7773 100.707 97.9973 100.267C98.7013 98.9473 99.4713 96.0873 100.307 91.6873H101.165L100.967 100.531C101.847 100.839 102.441 101.125 102.749 101.389C103.057 101.653 103.211 102.027 103.211 102.511C103.211 104.799 99.8453 105.943 93.1133 105.943H83.8733C80.1333 105.943 77.4493 105.415 75.8213 104.359C74.1933 103.347 73.3793 101.587 73.3793 99.0793C73.3793 97.4513 74.0173 95.5593 75.2933 93.4033C76.6133 91.2473 78.9453 87.9033 82.2893 83.3713C82.9493 82.4913 84.0493 80.9733 85.5893 78.8173C87.1733 76.6613 88.6693 74.5713 90.0773 72.5473H85.4573C82.7293 72.5913 79.8693 72.8993 76.8773 73.4713L75.1613 70.1053C77.5813 70.3693 80.5073 70.5453 83.9393 70.6333H90.8033L91.8593 69.1153ZM64.9973 75.0553H52.0613V82.2493H64.9973V75.0553Z" fill="#286196"/>
</svg>
