<svg width="566" height="445" viewBox="0 0 566 445" fill="none" xmlns="http://www.w3.org/2000/svg">
<path fill-rule="evenodd" clip-rule="evenodd" d="M274.958 2.78111C267.741 10.4091 265.902 20.0895 269.451 31.7588C273.392 44.715 272.283 48.6034 261.808 58.5621C258.182 62.0092 254.505 66.3338 253.638 68.1723C251.428 72.8546 251.059 79.8332 252.775 84.4679C257.601 97.4993 257.649 97.694 256.601 100.224C256.047 101.561 254.401 103.734 252.941 105.053C250.773 107.012 250.614 107.068 252.071 105.36C254.396 102.632 255.189 99.9219 254.97 95.4494C254.689 89.6699 252.632 85.7289 247.7 81.5146C242.548 77.1131 242.445 76.641 244.54 66.8929C245.797 61.044 245.797 60.215 244.54 56.0099C243.294 51.8416 237.686 42.8858 236.847 43.7248C236.651 43.9211 237.243 46.2702 238.163 48.9452C240.447 55.5796 240.272 59.2883 237.33 66.6338C233.476 76.2582 233.967 80.2527 240.115 89.3114C241.767 91.7457 243.362 95.0332 243.659 96.6177C244.37 100.409 242.417 110.167 240.824 110.778C238.892 111.519 238.804 110.906 239.901 104.375C241.201 96.6361 240.53 93.0143 237.156 89.5629C233.947 86.2813 230.149 84.264 223.596 82.3586C220.872 81.5664 217.838 80.0171 216.783 78.8772C214.787 76.7237 213.096 70.5941 213.096 65.5124C213.096 58.2203 209.72 52.6815 202.077 47.4335C194.564 42.2749 188.083 42.5197 195.069 47.6984C200.351 51.6135 201.823 54.7297 201.747 61.8413C201.711 65.3235 201.381 71.1882 201.015 74.8735C200.419 80.8653 200.549 82.0427 202.246 85.9871C203.464 88.8175 205.673 91.7641 208.411 94.2101C210.758 96.3068 211.71 97.4166 210.526 96.677C209.343 95.9366 206.793 95.2689 204.861 95.1937C201.722 95.07 201.158 94.7182 199.564 91.8811C197.359 87.9585 193.084 85.7456 187.817 85.8016C185.633 85.8242 183.847 85.5643 183.847 85.2233C183.847 84.8815 181.976 82.5558 179.69 80.053C175.5 75.4685 170.516 73.0676 166.575 73.7353C165.563 73.9067 163.401 72.6674 160.953 70.5122C151.759 62.4195 136.757 64.5154 130.414 74.7774C129.393 76.4304 128.493 77.7783 128.416 77.7733C128.339 77.7683 126.551 77.241 124.445 76.6017C116.356 74.1465 108.394 77.8761 104.521 85.9336C102.732 89.6532 102.124 90.2098 99.362 90.6518C95.9291 91.2009 91.4741 94.4708 90.6585 97.0397C90.2657 98.2765 89.3824 98.6743 87.0309 98.6743C83.2252 98.6743 77.1123 101.678 74.9947 104.588C71.4615 109.446 71.6621 116.676 75.4293 120.215C77.8385 122.477 82.8358 124.578 85.8384 124.588C87.1169 124.593 90.5181 123.77 93.3962 122.759L98.63 120.921L104.678 124.01C115.869 129.724 124.304 128.862 131.691 121.247C133.925 118.943 136.408 117.059 137.209 117.059C138.008 117.059 140.442 118.187 142.616 119.566C144.921 121.028 147.703 122.073 149.288 122.073C151.435 122.073 152.496 122.716 154.337 125.127C156.858 128.433 162.008 131.218 165.655 131.247C166.909 131.257 169.463 130.655 171.33 129.907C173.197 129.16 174.976 128.801 175.283 129.108C175.591 129.415 175.196 132.189 174.406 135.272C172.065 144.405 172.683 148.686 177.007 153.3L179.251 155.695L175.491 153.813C173.422 152.776 168.534 148.829 164.627 145.04C154.333 135.055 154.15 134.984 139.377 135.234C128.671 135.415 126.483 135.219 122.466 133.716C115.605 131.148 114.265 132.765 118.746 138.202C122.434 142.676 126.805 144.592 136.082 145.799C140.521 146.376 145.041 147.327 146.128 147.911C147.388 148.59 149.465 151.892 151.872 157.042C158.243 170.676 162.809 175.764 170.405 177.693L174.171 178.649L168.205 179.076C162.682 179.471 161.85 179.795 156.978 183.457C150.598 188.254 147.234 190.02 141.062 191.814C136.752 193.067 136.081 193.072 133.193 191.865C131.457 191.139 128.734 189.553 127.142 188.338C120.576 183.33 115.006 182.841 104.522 186.354C93.8165 189.94 92.2605 190.094 86.11 188.173C83.1425 187.245 80.5227 186.678 80.2895 186.911C79.4355 187.766 81.7419 190.243 85.6696 192.687C89.1785 194.871 90.4621 195.19 95.6165 195.162C98.8706 195.144 103.819 194.816 106.611 194.431C112.744 193.588 116.939 195.18 122.844 200.595C130.759 207.853 135.932 208.826 147.496 205.235C155.464 202.759 157.152 202.679 161.158 204.583C163.618 205.751 163.886 206.087 162.538 206.317C156.951 207.27 153.968 208.701 149.29 212.67C142.479 218.448 141.32 219.011 136.243 219.011C132.836 219.011 130.524 218.26 124.697 215.262C111.339 208.388 104.826 208.588 92.8897 216.241C81.8572 223.313 76.0151 224.579 66.9012 221.872C63.7792 220.945 62.2056 220.817 61.5822 221.441C60.2234 222.8 66.7809 228.382 71.896 230.221C77.2209 232.136 86.9314 231.657 95.2664 229.068C105.808 225.793 109.764 227.037 119.083 236.56C122.3 239.847 126.391 243.293 128.173 244.216C133.225 246.834 139.227 247.104 146.076 245.024C153.636 242.728 157.852 242.755 161.863 245.125L165.045 247.006L160.834 247.43C157.869 247.729 154.886 248.904 150.756 251.4C147.528 253.349 143.882 254.945 142.653 254.945C141.424 254.945 137.174 254.004 133.208 252.855C129.243 251.706 124.255 250.77 122.123 250.775C116.995 250.785 111.127 253.636 104.878 259.153C98.4169 264.858 94.1357 266.723 87.0726 266.912C82.7564 267.028 81.4778 267.344 81.4778 268.299C81.4778 270.529 88.3295 273.537 94.3238 273.939C99.718 274.3 100.097 274.188 108.864 269.641C113.816 267.073 118.811 264.973 119.964 264.973C122.899 264.973 126.54 266.668 133.012 271.049C140.683 276.242 145.476 277.7 153.765 277.363C159.47 277.131 160.393 277.277 159.942 278.343C159.651 279.033 158.908 281.206 158.292 283.174C155.63 291.669 153 293.647 142.408 295.12C134.778 296.181 131.095 297.885 126.899 302.298C123.779 305.58 120.174 312.058 119.187 316.157C118.283 319.908 120.369 318.945 125.313 313.329C131.582 306.207 135.151 304.729 144.248 305.487C154.869 306.372 158.146 304.99 167.142 295.838C174.871 287.977 176.534 287.166 183.867 287.687C187.546 287.949 187.612 288.006 187.871 291.151C188.259 295.863 186.434 298.027 180.738 299.605C171.017 302.299 166.597 305.41 163.333 311.851C161.507 315.452 161.283 316.966 161.266 325.74C161.244 337.332 160.188 340.445 154.516 345.641C151.223 348.657 149.164 349.817 144.362 351.36C142.024 352.111 142.668 354.205 145.425 354.811C148.954 355.586 154.233 354.571 159.491 352.105C168.058 348.088 172.559 342.494 175.5 332.211C178.749 320.851 180.725 319.739 191.215 323.371C205.374 328.274 212.181 326.633 216.515 317.272L218.869 312.188L219 315.948C219.305 324.717 218.419 326.083 209.341 330.837C197.815 336.874 193.41 343.914 195.452 353.036C195.993 355.456 197.009 358.255 197.71 359.255C199.055 361.176 201.758 361.682 202.682 360.187C202.983 359.699 204.091 358.973 205.142 358.574C206.843 357.927 207.007 357.431 206.629 354.081C206.396 352.01 206.446 349.032 206.74 347.463C207.473 343.558 212.449 338.796 217.646 337.026C219.969 336.235 225.349 333.874 229.6 331.779C233.851 329.683 237.33 328.274 237.33 328.646C237.33 329.018 233.787 331.951 229.457 335.164C220.697 341.661 217.829 345.945 216.796 354.073C216.196 358.787 216.341 358.996 220.779 359.829C223.823 360.399 223.858 360.374 224.436 357.188C225.73 350.045 227.395 348.418 237.866 344.068L244.438 341.338L242.416 345.423C239.328 351.662 239.63 357.301 243.511 365.896C248.115 376.093 247.795 378.487 240.184 390.741C238.33 393.726 238.133 394.844 238.346 401.187C238.534 406.782 239.028 409.169 240.673 412.431C243.186 417.411 245.176 418.605 243.973 414.41C243.537 412.889 243.183 409.949 243.185 407.878C243.193 400.999 244.571 398.112 250.826 391.869C259.879 382.834 261.293 378.399 258.282 368.475C255.9 360.62 255.919 360.418 259.78 352.718C262.194 347.903 263.144 346.557 262.728 348.54C261.758 353.161 262.202 360.821 263.611 363.792C264.322 365.288 266.62 368.579 268.719 371.105C274.783 378.405 276.049 381.421 275.539 387.354C275.281 390.356 274.151 394.451 272.759 397.426C270.037 403.249 269.196 411.08 270.778 415.874C271.35 417.608 273.084 421.123 274.63 423.686C278.988 430.912 280.183 435.271 279.115 440.042C278.118 444.49 278.436 445.409 280.408 443.772C284.95 440.002 286.06 431.979 283.292 422.914C281.297 416.379 281.167 411.175 282.914 407.794C283.626 406.419 286.225 402.916 288.689 400.011C295.692 391.755 296.879 388.849 296.534 380.795C296.277 374.766 295.842 373.219 292.58 366.694C287.166 355.869 287.578 352.578 295.437 343.943L299.239 339.765L297.951 342.872C296.342 346.753 296.295 352.1 297.845 355.058C298.496 356.299 300.407 358.63 302.092 360.239C307.854 365.739 308.857 369.624 306.986 379.195C305.335 387.633 305.914 391.171 309.599 395.193C312.8 398.684 314.133 398.389 312.185 394.621C310.244 390.869 310.564 386.814 313.468 378.356C316.695 368.959 316.402 365.549 311.672 357.377C309.828 354.194 308.099 350.707 307.828 349.628C307.227 347.234 308.259 336.84 309.098 336.84C309.429 336.84 310.156 339.049 310.713 341.749C312.025 348.102 316.145 352.877 324.054 357.212C330.596 360.798 332.085 363.074 332.979 370.845C333.253 373.231 334.03 376.508 334.707 378.127C336.256 381.835 340.49 386.697 343.543 388.277C345.873 389.482 350.146 389.941 350.146 388.987C350.146 388.711 348.764 386.248 347.076 383.513C344.211 378.87 344.027 378.171 344.297 372.942C345.199 355.463 344.676 353.665 335.922 344.121C330.762 338.495 330.723 338.415 331.221 334.51C331.498 332.344 332.218 328.388 332.822 325.717L333.919 320.863L335.555 322.671C337.85 325.207 343.287 328.258 348.127 329.726C353.303 331.296 359.179 331.306 365.606 329.754C377.43 326.898 381.489 328.598 384.389 337.616C387.676 347.837 393.498 353.554 400.621 353.554C404.65 353.554 405.098 352.198 402.094 349.095C398.426 345.303 396.26 339.778 395.388 331.988C394.85 327.177 393.991 324.11 392.443 321.47C388.559 314.841 385.476 313.321 372.649 311.713C364.717 310.719 361.265 309.21 360.138 306.244C358.884 302.945 359.126 302.578 362.556 302.578C364.326 302.578 366.954 302.167 368.398 301.664C370.651 300.877 371.634 301.054 375.371 302.917C381.053 305.747 386.055 305.767 391.653 302.977C393.979 301.818 396.531 300.152 397.325 299.275C398.744 297.707 398.81 297.707 401.407 299.291C406.652 302.489 414.178 301.249 421 296.064C423.5 294.163 424.035 294.061 426.946 294.934C428.706 295.461 431.853 295.892 433.939 295.892C437.051 295.892 438.362 295.367 441.234 292.968C443.159 291.359 445.656 290.043 446.783 290.043C449.042 290.043 453.314 286.322 452.524 285.043C452.25 284.598 450.437 284.453 448.497 284.719C445.269 285.161 444.613 284.908 440.803 281.753C436 277.777 431.547 276.306 426.568 277.052L423.066 277.578L422.127 273.853C420.41 267.032 414.846 262.466 408.252 262.466C404.43 262.466 404.321 260.531 408.016 258.278C412.804 255.359 416.298 256.135 424.772 262.004C429.203 265.073 430.167 265.39 435.963 265.683C441.565 265.965 442.877 265.73 447.201 263.663C454.131 260.351 453.724 259.007 445.989 259.66C438.141 260.324 434.672 258.852 426.3 251.309C418.644 244.41 415.734 243.385 407.711 244.76C400.357 246.021 396.34 245.966 393.183 244.561C390.906 243.548 390.83 243.392 392.347 242.867C396.836 241.311 399.562 239.738 404.912 235.614C410.341 231.43 411.043 231.128 415.363 231.128C419.302 231.128 421.178 231.751 427.898 235.285C435.315 239.186 436.188 239.443 442.069 239.463C449.046 239.487 451.486 238.602 460.454 232.794C471.512 225.634 475.32 224.662 483.435 226.934C491.682 229.242 492.21 229.316 492.21 228.171C492.21 226.624 486.015 220.979 481.935 218.809C477.2 216.29 467.61 216.309 458.565 218.856C446.365 222.291 440.994 221.086 433.295 213.188C423.393 203.029 415.573 200.966 402.929 205.177C396.962 207.164 395.898 207.3 393.9 206.326C391.318 205.068 390.316 203.133 392.247 203.133C392.958 203.133 395.971 200.858 398.944 198.077C406.764 190.762 409.157 190.416 421.596 194.802C428.374 197.193 435.718 197.162 440.517 194.723C442.52 193.704 447.082 190.536 450.654 187.683C458.169 181.68 461.18 180.57 469.952 180.57C473.587 180.57 476.332 180.216 476.332 179.746C476.332 178.61 470.69 175.085 467.14 174.003C459.644 171.719 455.587 172.391 445.319 177.622C433.561 183.609 431.296 183.461 420.865 176.018C413.404 170.693 410.607 169.705 403.029 169.715C395.077 169.725 389.75 171.927 384.913 177.207C382.16 180.211 381.539 180.552 380.9 179.408C379.715 177.291 386.583 169.707 389.686 169.706C393.113 169.706 395.227 168.423 399.478 163.765L403.267 159.613L410.609 158.855C419.262 157.963 423.635 155.793 428.329 150.063C430.022 147.997 432.045 146.307 432.824 146.307C433.602 146.307 437.199 144.803 440.816 142.965C450.333 138.126 452.241 138.39 460.27 145.658C466.79 151.56 474.393 153.485 481.31 150.986C483.896 150.052 484.552 150.145 487.578 151.876C490.156 153.35 492.253 153.811 496.433 153.818C501.85 153.828 504.301 152.791 511.061 147.628C511.703 147.137 513.132 147.364 515.009 148.255C518.312 149.821 524.391 150.082 527.762 148.801C528.99 148.334 531.339 146.844 532.981 145.49C535.93 143.06 536.061 143.036 543.594 143.531C551.169 144.028 551.241 144.014 554.098 141.537C555.68 140.165 558.265 138.792 559.844 138.486C563.303 137.817 565.749 135.774 565.749 133.553C565.749 132.323 565.389 132.073 564.286 132.537C560.355 134.189 559.047 133.952 555.771 130.992C553.96 129.356 551.304 127.41 549.869 126.668C547.193 125.284 540.516 124.824 537.409 125.81C535.895 126.291 535.665 126.02 535.665 123.768C535.665 116.981 529.236 111.209 521.679 111.209C518.558 111.209 518.199 110.986 517.706 108.742C516.936 105.235 514.166 102.038 510.462 100.379C508.707 99.5935 506.408 97.6664 505.351 96.097C502.714 92.1752 498.583 90.2114 493.881 90.6443C490.435 90.961 489.981 90.7755 488.449 88.4256C486.136 84.8765 483.011 82.7489 478.385 81.5739C473.502 80.3346 466.281 81.3216 462.317 83.7717C459.315 85.6278 456.049 90.1905 455.168 93.7572C454.723 95.5622 454.029 96.0243 451.192 96.4046C447.174 96.9436 444.531 99.1573 442.483 103.697C441.675 105.49 440.781 106.929 440.497 106.896C436.966 106.47 434.795 107.4 431.406 110.79L427.647 114.548L428.216 121.067C428.736 127.029 428.634 127.722 427.026 129.178C425.093 130.927 422.68 131.069 412.931 130.006L406.772 129.335L407.318 124.683C407.619 122.125 408.791 118.45 409.925 116.517C413.453 110.496 420.916 105.36 426.136 105.36C429.021 105.36 430.554 103.212 428.612 101.89C427.97 101.454 424.625 101.242 421.178 101.421C409.25 102.039 401.259 108.03 395.301 120.82C389.637 132.98 385.416 136.02 372.726 137.071C366.446 137.591 364.951 138.033 361.531 140.386C357.04 143.476 355.16 142.958 355.16 138.629C355.16 134.574 356.512 133.203 362.877 130.807C367.313 129.136 369.965 127.481 372.725 124.664C377.797 119.485 378.786 115.845 378.636 102.903L378.517 92.507L381.558 87.5799C383.665 84.1662 384.332 82.3862 383.729 81.7829C382.378 80.4324 379.27 81.609 375.369 84.9484C371.389 88.3562 368.612 93.2934 366.475 100.763C364.631 107.206 362.413 110.778 359.54 111.934C358.264 112.446 353.514 112.768 348.824 112.658L340.399 112.463L341.074 109.538C342.173 104.78 341.883 99.5308 340.112 92.1452C337.407 80.8594 338.072 75.7702 343.028 69.8436C345.986 66.3054 345.817 65.1371 342.523 66.3647C334.788 69.2461 330.09 78.8354 330.09 91.7415C330.09 100.419 329.331 102.131 321.878 110.27L316.233 116.434L316.569 108.09C316.895 99.9695 316.819 99.5459 313.757 92.3156C312.027 88.2292 310.443 83.0773 310.238 80.8661C309.892 77.129 310.127 76.5131 313.589 72.0916C320.801 62.8842 321.948 58.349 319.661 48.0728C318.232 41.6473 318.2 31.463 319.6 28.269C320.863 25.3852 317.611 26.7498 315.616 29.9404C312.676 34.6419 311.74 38.0564 311.228 45.9602C310.972 49.9037 310.578 54.0311 310.352 55.1317C310.126 56.2322 306.734 60.3045 302.814 64.1803C292.353 74.5242 291.428 77.9438 295.931 89.6206C299.091 97.8143 299.212 102.332 296.39 106.801C295.287 108.55 293.769 110.491 293.018 111.114C291.758 112.159 291.749 111.971 292.904 108.698C294.488 104.21 294.504 98.6199 292.946 94.8895C292.281 93.2967 289.128 89.2387 285.941 85.8718C277.6 77.0596 277.229 72.9064 283.804 61.99C290.037 51.6444 289.548 44.6766 281.674 31.6067C274.987 20.5073 274.417 16.0808 278.299 5.38088C280.505 -0.701965 279.207 -1.71145 274.958 2.78111ZM277.67 31.89C279.794 35.2987 282.116 39.4862 282.83 41.1952C284.724 45.7312 284.501 52.5093 282.325 56.5055C276.583 67.0492 274.935 70.7244 274.935 72.9807C274.935 78.0349 276.845 81.965 281.781 87.0726C289.663 95.2288 291.564 100.781 288.767 107.476C287.093 111.481 286.469 111.14 288.06 107.089C290.191 101.664 289.076 98.7219 281.936 90.9184C273.765 81.9876 272.894 80.3112 272.941 73.6041C272.976 68.6971 273.348 67.5439 276.792 61.6658C280.453 55.4175 282.219 49.3756 281.306 46.2251C281.074 45.427 280.438 43.0813 279.891 41.013L278.898 37.2525L277.516 43.9379C275.866 51.9202 273.39 56.0618 267.014 61.5095C257.337 69.7759 255.647 76.7028 260.696 87.3927C264.206 94.8243 264.54 100.357 261.717 104.315C258.679 108.574 257.239 107.771 259.589 103.129C262.185 98.0024 262.093 96.3937 258.769 88.7816C253.014 75.6006 253.707 72.2245 264.417 61.2705C268.578 57.0144 272.675 52.1817 273.522 50.5313C275.642 46.3981 275.573 38.6397 273.355 31.8917C272.386 28.9434 271.61 24.9949 271.63 23.1171L271.666 19.7034L272.736 22.6976C273.325 24.3439 275.545 28.4805 277.67 31.89ZM316.813 55.7233C316.897 60.4323 315.499 63.8076 311.313 69.008C307.334 73.951 306.69 75.5462 306.699 80.4433C306.704 83.4676 307.398 86.3531 308.87 89.4819C313.528 99.3804 314.057 103.05 312.397 113.955C311.53 119.65 311.572 120.626 312.732 121.786C314.469 123.525 315.697 122.65 322.29 114.97C325.051 111.752 327.964 108.581 328.762 107.923C331.996 105.252 333.669 100.155 334.268 91.1532C334.589 86.3272 334.908 83.1951 334.978 84.1929C335.047 85.1907 335.896 89.3273 336.864 93.3853C338.435 99.9704 338.516 101.375 337.615 106.454C336.762 111.266 335.973 112.934 332.511 117.246C327.968 122.908 327.131 127.061 329.881 130.29C332.527 133.396 334.443 132.934 335.984 128.822C338.23 122.829 339.775 122.068 349.612 122.106C357.841 122.139 358.013 122.177 355.578 123.459C349.335 126.744 346.15 132.117 347.182 137.621C347.598 139.836 348.685 141.212 351.77 143.429C354.881 145.663 355.942 147.015 356.368 149.284C357.085 153.108 360.729 155.172 362.182 152.578C362.687 151.679 364.283 149.713 365.731 148.208C368.276 145.563 368.587 145.472 375.064 145.472C378.749 145.472 382.454 145.212 383.295 144.894C384.346 144.498 383.979 145.288 382.122 147.416C378.686 151.356 378.21 153.366 378.903 161.012C379.383 166.297 379.205 167.802 377.705 171.177C375.402 176.354 375.424 178.452 377.832 183.495C379.519 187.03 380.224 187.712 382.414 187.925C384.518 188.132 385.714 187.485 388.831 184.457C390.937 182.409 394.037 180.28 395.72 179.724C400.041 178.299 408.663 178.996 411.653 181.015L414.075 182.65L408.643 183.135C401.728 183.753 398.794 185.323 392.786 191.617C388.248 196.371 387.747 196.666 384.971 196.215C381.046 195.579 379.766 197.023 381.335 200.317C385.372 208.791 386.96 211.278 389.386 212.932C393.448 215.699 397.372 216.142 403.627 214.539C414.539 211.743 418.992 212.905 427.381 220.737C430.174 223.345 433.775 226.279 435.384 227.256C439.906 230.002 437.925 229.379 429.906 225.531C417.461 219.56 410.45 220.093 400.704 227.754C393.142 233.698 390.831 234.945 386.161 235.611C382.988 236.062 382.271 236.491 382.046 238.076C381.896 239.131 382.186 240.492 382.691 241.101C383.408 241.965 383.101 242.305 381.293 242.653C380.018 242.898 378.859 242.982 378.715 242.841C378.571 242.699 378.912 240.193 379.473 237.273C381.066 228.971 380.83 209.045 379.039 200.626C374.638 179.941 366.043 163.835 351.831 149.65C331.632 129.487 306.362 118.725 279.232 118.733C268.639 118.736 258.703 120.184 247.982 123.29C244.196 124.387 241.001 125.186 240.881 125.067C240.762 124.948 242.932 122.933 245.703 120.589C249.995 116.96 251.666 116.123 256.975 114.941C262.73 113.661 263.142 113.43 262.335 111.923C261.633 110.612 261.965 109.532 264.02 106.428C267.382 101.354 267.499 95.4761 264.384 88.2284C263.199 85.4707 261.825 81.8455 261.331 80.1717C259.919 75.3925 262.119 71.0361 270.085 62.8265C274.813 57.9546 276.308 56.7587 274.976 58.9147C270.873 65.5525 269.817 68.6453 269.817 74.0203C269.817 80.8603 271.706 84.5807 279.199 92.497C284.541 98.1419 284.964 98.8573 284.964 102.285C284.964 104.318 284.196 107.719 283.257 109.84C280.981 114.987 281.898 116.843 286.75 116.909C291.23 116.971 294.071 115.475 297.845 111.066C303.157 104.861 303.618 99.0578 299.565 89.4284C297.237 83.8963 296.889 78.0182 298.689 74.6069C299.345 73.366 302.382 69.9063 305.439 66.9188C311.885 60.6212 314.102 56.8063 314.821 50.7753C315.308 46.6956 315.378 46.5903 316.038 48.9519C316.423 50.3307 316.772 53.3776 316.813 55.7233ZM208.892 60.927C209.36 62.6143 209.746 66.0823 209.748 68.6353C209.754 74.4849 212.895 81.1987 216.707 83.506C218.168 84.391 221.456 85.7122 224.013 86.4409C229.727 88.0704 235.44 92.0775 236.165 94.9655C236.462 96.1514 236.421 98.8807 236.073 101.032C235.725 103.182 235.181 106.822 234.865 109.12C234.46 112.064 234.099 112.876 233.644 111.869C233.289 111.084 233.409 108.527 233.911 106.188C235.045 100.903 235.077 96.5316 233.998 94.516C232.835 92.3424 228.215 89.6607 222.987 88.1239C212.808 85.1331 208.918 80.6982 208.918 72.0866C208.918 67.299 207.748 66.2862 206.933 70.3659C205.08 79.631 207.346 86.0264 214.361 91.322C219.077 94.882 221.453 98.6542 221.453 102.581C221.453 106.85 219.947 106.614 219.291 102.242C218.682 98.1779 218.214 97.5628 210.308 90.4337C204.432 85.1356 203.335 80.6639 205.209 69.6623C206.21 63.7859 206.331 60.8919 205.702 57.9153L204.866 53.9659L206.453 55.913C207.326 56.9843 208.424 59.2407 208.892 60.927ZM154.848 71.3905C156.334 72.0114 158.779 73.9192 160.28 75.629C162.607 78.2789 163.367 78.6608 165.42 78.2095C177.579 75.5396 185.559 93.4321 175.965 101.855C169.254 107.747 155.705 110.255 150.691 106.533C143.587 101.26 147.039 88.6462 155.587 88.6462C159.295 88.6462 162.956 91.5468 162.956 94.4842C162.956 96.6427 160.736 97.5845 158.678 96.2993C156.596 94.999 156.27 95.0717 156.27 96.8358C156.27 99.0403 157.94 100.346 160.759 100.346C169 100.346 167.752 88.1273 159.222 85.3127C153.452 83.4082 146.741 86.9205 144.107 93.2232C140.045 102.946 146.966 112.047 158.54 112.204C163.835 112.276 173.488 108.757 178.513 104.923C181.645 102.535 184.683 96.6971 184.683 93.0677C184.683 87.1219 193.401 88.7189 197.126 95.3466C198.727 98.1954 199.225 98.4754 203.467 98.9133C209.032 99.4874 212.034 101.469 215.483 106.845C221.785 116.665 230.093 119.194 242.183 114.97C248.405 112.796 251.495 112.261 248.612 113.857C247.693 114.366 244.796 116.62 242.175 118.868C236.795 123.481 231.427 126.212 227.72 126.22C226.341 126.224 222.826 125.664 219.907 124.976C213.21 123.398 209.931 124.191 204.472 128.712C196.606 135.225 188.211 133.797 186.69 125.687C186.095 122.518 184.781 122.163 182.594 124.58C180.542 126.847 178.318 126.681 176.65 124.136C175.589 122.517 175.441 121.389 176.021 119.331C176.691 116.952 177.394 116.441 182.116 114.913C186.07 113.634 188.125 112.388 190.038 110.108C192.139 107.606 193.187 107.031 195.643 107.031C201.079 107.031 205.571 112.256 203.904 116.641C203.271 118.305 202.53 118.73 200.266 118.73C198.702 118.73 196.944 118.153 196.358 117.448C195.474 116.382 195.601 115.879 197.11 114.473C198.997 112.715 198.832 111.209 196.751 111.209C196.088 111.209 194.795 111.961 193.875 112.881C190.053 116.703 193.535 122.909 199.501 122.909C207.967 122.909 210.874 113.221 204.361 106.709C199.22 101.567 192.36 102.128 187.835 108.061C186.023 110.437 184.823 111.124 181.656 111.599C176.799 112.327 173.547 115.338 172.077 120.471C170.606 125.605 169.923 126.251 165.964 126.251C162.259 126.251 159.56 124.786 156.429 121.076C155.22 119.642 153.346 118.608 151.415 118.308C149.719 118.045 146.485 116.848 144.228 115.649C141.971 114.451 139.057 113.5 137.752 113.537C135.638 113.597 135.379 113.32 135.379 111C135.379 109.566 134.591 106.766 133.627 104.776C128.992 95.2012 114.421 94.2995 110.638 103.353C109.51 106.053 109.533 106.603 110.897 109.389C112.561 112.788 115.53 114.265 118.966 113.403C121.295 112.818 122.023 111.209 119.958 111.209C117.767 111.209 114.529 109.315 114.029 107.74C112.603 103.248 117.856 99.6135 123.556 101.148C133.723 103.885 134.195 117.184 124.294 121.978C118.582 124.742 114.021 124.338 106.548 120.402C99.2918 116.58 98.1093 116.427 93.5951 118.73C84.2598 123.493 74.1557 118.216 76.8683 109.996C78.3884 105.391 82.3319 102.853 87.9685 102.853C92.5638 102.853 92.6432 102.811 93.6051 99.8985C94.9547 95.8087 97.7149 94.1775 102.392 94.7048L106.143 95.1277L106.668 91.841C107.277 88.0312 109.739 84.1002 113.049 81.6475C115.989 79.4689 122.907 79.4154 127.013 81.538C129.743 82.9503 129.927 82.9511 130.751 81.5639C135.547 73.4897 140.393 70.2631 147.731 70.2623C150.159 70.2615 153.361 70.7696 154.848 71.3905ZM239.572 72.9256C239.306 73.5916 239.108 73.3936 239.068 72.42C239.032 71.5392 239.229 71.0462 239.506 71.3236C239.784 71.6011 239.814 72.3222 239.572 72.9256ZM245.309 84.1277C247.497 85.9203 249.793 88.5986 250.412 90.0794C252.175 94.2995 251.846 99.7264 249.656 102.517L247.776 104.913L247.302 99.4105C246.95 95.3324 246.193 92.8922 244.377 89.9841C239.778 82.6177 238.166 79.1004 238.225 76.5608C238.284 74.0328 238.29 74.037 239.807 77.4449C240.645 79.3268 243.121 82.3344 245.309 84.1277ZM480.676 86.674C482.992 87.8398 486.524 92.0424 487.497 94.7917C487.874 95.8572 488.499 96.1614 489.5 95.7653C492.15 94.7174 496.266 94.2845 498.425 94.826C499.892 95.1945 501.207 96.6528 502.663 99.5241C504.436 103.023 505.146 103.688 507.11 103.688C510.813 103.688 513.938 107.537 513.934 112.091C513.929 118.382 509.354 123.514 502.449 124.974C494.398 126.676 486.899 118.342 491.369 112.658C493.261 110.254 495.424 109.799 498.115 111.239C500.25 112.382 500.215 115.418 498.059 115.981C496.231 116.459 495.888 117.487 497.271 118.342C498.989 119.403 502.204 117.902 502.733 115.793C503.568 112.466 502.419 109.674 499.617 108.226C494.678 105.672 488.193 108.58 486.346 114.177C485.496 116.752 485.619 117.608 487.33 121.058C489.831 126.098 494.239 128.725 500.226 128.745C506.124 128.763 510.971 126.022 515.459 120.129C518.523 116.105 519.471 115.389 521.726 115.4C525.39 115.417 528.169 116.992 530.417 120.328C532.888 123.996 532.83 127.191 530.235 130.274C526.247 135.014 520.29 134.419 520.783 129.33C520.996 127.126 521.435 126.624 523.338 126.405C525.988 126.1 526.417 124.105 523.997 123.337C520.18 122.125 515.929 127 516.791 131.598C518.122 138.694 527.532 139.115 533.57 132.349C534.492 131.316 536.992 130.019 539.124 129.466C542.451 128.604 543.553 128.671 546.888 129.946C557.064 133.832 553.392 141.477 542.317 139.464C537.994 138.679 537.613 138.769 531.324 142.061C523.259 146.283 519.998 146.459 514.49 142.965C512.315 141.586 510.392 140.458 510.216 140.458C510.04 140.458 509.076 141.783 508.075 143.403C504.803 148.696 497.152 151.002 491.427 148.42L488.202 146.966L490.206 144.014C494.077 138.31 492.373 129.367 486.673 125.461C481.38 121.835 472.767 123.532 470.079 128.731C468.564 131.66 468.478 135.359 469.882 137.188C472.601 140.729 478.597 141.535 481.397 138.735C483.477 136.655 483.317 132.669 481.136 132.256C480.059 132.052 479.728 132.46 479.883 133.802C480.169 136.285 477.155 137.431 474.757 135.751C470.545 132.801 474.087 127.087 480.128 127.087C486.159 127.087 489.71 131.94 488.48 138.5C487.335 144.6 480.331 148.612 472.832 147.463C468.128 146.742 465.793 145.511 460.397 140.904C452.102 133.823 446.433 133.802 435.963 140.813L433.617 142.384L434.173 140.168C434.872 137.384 433.746 137.337 431.206 140.04C428.401 143.025 424.819 142.728 416.064 138.786C411.981 136.948 408.045 135.444 407.318 135.444C406.591 135.444 406.156 134.974 406.351 134.399C406.745 133.239 410.668 133.177 419.943 134.183C425.598 134.795 425.917 134.732 428.623 132.455C430.169 131.154 431.957 128.835 432.598 127.303C433.612 124.877 433.597 124.279 432.484 122.691C430.324 119.607 430.889 116.373 434.157 113.105C436.88 110.382 437.391 110.192 440.773 110.656L444.439 111.158L445.021 107.707C445.731 103.509 448.668 100.345 451.851 100.348C453.775 100.35 454.555 101.038 456.276 104.247C458.805 108.963 462.633 111.209 468.142 111.209C471.372 111.209 472.636 110.735 475.049 108.615C477.394 106.557 478.003 105.407 478.003 103.041C478.003 99.6654 476.047 97.0029 473.566 97.0029C472 97.0029 471.981 97.099 473.278 98.5314C475.104 100.549 475.027 103.051 473.063 105.476C471.797 107.039 470.656 107.449 467.562 107.449C464.211 107.449 463.316 107.064 461.221 104.719C456.998 99.9929 458.204 91.7933 463.697 87.8816C468.271 84.625 475.572 84.1052 480.676 86.674ZM229.885 94.7817C231.429 96.1054 231.607 96.8926 231.161 100.422C230.877 102.678 230.409 106.404 230.121 108.702C229.551 113.247 229.209 113.477 225.725 111.676C223.446 110.497 223.412 110.378 224.246 106.308C225.357 100.885 223.897 95.8397 220.21 92.3624L217.481 89.7894L222.786 91.5159C225.704 92.4652 228.899 93.9352 229.885 94.7817ZM374.758 101.851C374.721 112.366 374.537 113.748 372.669 117.518C370.331 122.234 367.005 124.757 360.365 126.851C357.837 127.647 354.692 129.306 353.376 130.536C350.534 133.189 350.181 132.275 352.862 129.207C353.909 128.01 357.311 126.132 360.54 124.97C363.728 123.823 367.009 122.276 367.83 121.532C370.808 118.838 372.711 113.443 372.67 107.811L372.632 102.435L370.276 107.449C367.726 112.877 364.461 116.438 360.746 117.841C359.453 118.33 354.445 118.73 349.618 118.73C340.243 118.73 338.266 119.29 335.317 122.778C334.285 123.999 333.439 124.534 333.437 123.967C333.434 123.399 334.53 121.707 335.871 120.206L338.309 117.477L348.319 117.39C357.177 117.313 358.68 117.085 361.396 115.407C365.478 112.884 367.947 108.874 370.529 100.575C372.136 95.4118 374.274 90.2657 374.791 90.3184C374.795 90.3184 374.78 95.5087 374.758 101.851ZM406.576 114.155C404.428 117.723 403.565 120.43 402.784 126.063C401.276 136.926 398.992 141.108 391.965 145.865C384.58 150.865 383.576 152.437 383.56 159.022C383.551 162.722 383.308 163.904 382.737 163.021C381.398 160.949 381.773 153.888 383.364 151.186C384.168 149.821 386.706 147.448 389.004 145.913C396.678 140.785 399.178 136.956 400.688 128.015C401.411 123.737 400.253 123.891 398.133 128.356C396.11 132.62 390.728 138.369 387.146 140.094C385.139 141.061 381.1 141.797 376.052 142.117C371.21 142.423 367.02 143.167 365.313 144.024C362.952 145.208 362.68 145.226 363.581 144.141C365.706 141.58 369.27 140.458 375.279 140.458C379.931 140.458 382.355 139.973 386.096 138.294C391.699 135.78 394.071 132.843 399.28 121.979C401.369 117.619 403.908 113.746 405.715 112.159C407.357 110.717 408.848 109.538 409.029 109.538C409.209 109.538 408.105 111.615 406.576 114.155ZM446.875 114.196C445.463 115.626 446.34 117.059 448.625 117.059C449.933 117.059 451.675 117.801 452.496 118.709C453.894 120.254 453.901 120.493 452.606 122.469C450.471 125.727 447.01 125.322 443.875 121.446C441.778 118.856 441.085 118.468 439.873 119.208C437.996 120.356 437.312 122.243 439.011 121.591C439.799 121.288 440.645 121.835 441.274 123.052C443.375 127.122 445.58 128.758 448.965 128.758C455.436 128.758 459.539 121.078 455.641 116.263C454.139 114.408 448.076 112.978 446.875 114.196ZM297.388 124.239C317.464 128.344 335.072 137.849 348.946 152.071C363.365 166.853 371.379 181.688 375.177 200.632C377.111 210.28 377.511 227.721 375.963 234.938C375.106 238.936 374.939 239.149 373.665 237.873C372.497 236.706 372.279 234.217 372.212 221.279C372.143 207.73 371.898 205.174 369.987 198.007C360.125 161.024 332.252 135.573 293.633 128.288C282.943 126.271 265.809 127.02 254.462 129.999C228.239 136.885 206.075 154.72 193.999 178.652C187.995 190.55 185.069 201.519 184.154 215.56C182.3 244.001 196.117 274.62 218.906 292.57C231.803 302.729 242.387 307.847 259.058 311.988C270.206 314.758 288.178 314.519 300.423 311.439C311.492 308.655 323.897 302.91 332.917 296.389C339.224 291.829 342.471 290.792 343.229 293.095C343.686 294.487 332.709 302.816 324.77 307.1C309.604 315.287 297.713 318.044 277.86 317.977C266.122 317.937 262.348 317.608 256.133 316.077C243.061 312.857 234.215 308.941 223.148 301.476C215.434 296.272 203.223 284.619 198.468 277.925C190.087 266.125 183.282 250.148 180.849 236.56C179.307 227.944 179.372 210.737 180.978 202.271C188.047 165 216.57 134.941 253.865 125.455C267.2 122.063 284.397 121.582 297.388 124.239ZM226.626 129.979L230.547 130.002L226.208 132.642C206.933 144.372 193.29 159.385 184.984 178.008C174.435 201.659 172.895 224.669 180.224 249.091C194.59 296.958 242.171 327.992 291.182 321.461C311.18 318.796 327.023 311.892 344.418 298.264C346.584 296.567 346.683 296.563 349.223 298.063C351.609 299.472 351.817 299.953 351.817 304.053C351.817 306.505 352.362 309.564 353.028 310.852C354.724 314.131 359.848 318.432 362.749 319.012C366.716 319.806 365.552 320.792 359.965 321.371C351.836 322.214 344.427 319.587 338.513 313.767C333.807 309.134 331.819 308.615 329.58 311.437C329.069 312.079 328.111 312.606 327.449 312.606C325.253 312.606 324.24 314.564 324.23 318.832C324.225 321.152 323.665 325.12 322.986 327.648C321.282 334 321.404 340.02 323.314 343.767C324.184 345.473 324.586 346.868 324.207 346.868C322.677 346.868 320.046 341.763 318.39 335.587C316.428 328.264 314.387 324.871 310.845 323.039C308.122 321.631 300.374 321.362 299.579 322.647C299.29 323.114 298.718 323.289 298.307 323.035C297.187 322.342 294.156 325.73 294.156 327.675C294.156 330.788 291.904 334.82 287.254 340.031C281.279 346.727 279.949 349.654 279.949 356.11C279.949 360.473 280.522 362.582 283.408 368.848C287.368 377.444 288.162 381.959 286.448 386.15L285.254 389.07L285.099 384.891C284.831 377.658 282.727 373.092 275.859 364.835C271.199 359.234 270.13 355.548 271.538 349.937C272.135 347.56 272.792 342.407 272.998 338.485C273.336 332.072 273.187 331.118 271.524 329.003C270.028 327.102 269.219 326.744 267.291 327.13C265.98 327.391 264.907 327.329 264.907 326.993C264.907 325.995 261.566 324.206 260.702 324.741C260.241 325.025 260.607 326.607 261.571 328.496C262.486 330.291 263.236 332.849 263.236 334.181C263.236 335.513 260.798 341.451 257.82 347.376C254.767 353.45 252.397 359.256 252.388 360.686C252.379 362.081 253.124 365.362 254.044 367.977C257.308 377.265 256.112 381.282 247.629 389.526C242.426 394.581 242.201 394.71 244.05 391.577C249.801 381.828 250.853 379.128 250.415 375.25C250.179 373.165 248.643 368.403 247.001 364.669C242.209 353.769 243.136 348.482 251.498 339.01C256.328 333.541 257.386 331.413 257.386 327.176C257.386 323.778 254.771 320.737 252.178 321.12C250.464 321.373 249.244 323.968 247.837 330.349C246.904 334.585 242.741 338.178 235.026 341.408C226.39 345.023 225.192 345.986 222.521 351.464L220.483 355.643L220.871 352.219C221.443 347.179 225.009 342.493 231.898 337.73C240.891 331.514 244.841 326.036 243.676 321.396C242.967 318.567 240.592 318.695 238.384 321.682C236.608 324.084 226.067 329.916 217.136 333.438C211.799 335.543 206.14 340.009 204.3 343.568C203.622 344.878 203.068 347.803 203.068 350.067C203.068 352.736 202.62 354.556 201.794 355.242C199.936 356.784 199.417 355.773 199.091 349.97C198.716 343.302 200.442 340.396 207.284 336.183C223.151 326.411 223.462 325.982 222.811 314.77C222.282 305.635 221.012 303.637 217.71 306.74L215.603 308.719V306.115C215.603 304.684 215.266 303.304 214.854 303.049C213.299 302.088 210.491 305.669 209.33 310.094C207.403 317.438 205.526 318.047 194.964 314.749C184.961 311.627 182.612 311.377 178.403 312.984C176.368 313.762 173.752 315.527 172.589 316.909C170.325 319.6 169.903 319.461 171.414 316.52C173.954 311.577 176.672 309.831 185.272 307.617C192.235 305.824 196.382 300.215 196.382 292.591C196.382 289.396 195.793 287.817 193.249 284.19C191.526 281.733 189.688 279.583 189.166 279.413C188.643 279.243 187.817 280.249 187.329 281.648C186.471 284.108 186.272 284.193 181.357 284.193C174.272 284.193 171.659 285.56 165.53 292.474C158.14 300.809 156.04 301.742 144.659 301.742C139.615 301.742 134.501 302.117 133.296 302.575C131.831 303.132 131.276 303.13 131.623 302.569C132.751 300.744 137.384 299.146 143.927 298.326C155.159 296.918 158.741 294.242 161.73 285.029C163.405 279.863 167.601 275.064 170.602 274.881C171.683 274.815 175.01 274.842 177.998 274.94C181.651 275.06 183.955 274.727 185.036 273.921C186.62 272.74 186.62 272.685 185.022 269.95C184.126 268.413 181.545 266.138 179.238 264.848C173.258 261.506 168.63 261.647 161.395 265.39C154.132 269.149 147.669 269.443 142.482 266.248L139.139 264.189L143.069 264.163C147.571 264.133 149.912 263.246 156.06 259.24C160.123 256.592 160.961 256.375 167.463 256.29C173.066 256.216 174.83 255.882 176.213 254.63C177.556 253.414 177.756 252.712 177.106 251.497C176.645 250.635 175.735 249.931 175.083 249.931C174.431 249.931 173.158 248.332 172.255 246.379C168.899 239.12 161.964 234.11 155.217 234.071C153.488 234.061 148.698 234.805 144.573 235.723C134.535 237.96 132.628 237.285 122.964 228.079C118.934 224.24 115.724 220.975 115.828 220.822C115.933 220.668 118.578 222.086 121.706 223.973C128.581 228.12 132.849 229.37 138.038 228.757C143.228 228.145 147.207 225.994 153.763 220.257C160.165 214.656 161.613 213.997 167.517 213.997C170.798 213.997 172.102 213.651 172.475 212.68C173.012 211.278 169.763 205.095 167.334 202.897C163.149 199.108 155.391 198.718 146.305 201.838C135.671 205.49 132.504 204.707 122.763 196.021C118.374 192.108 113.031 190.307 107.196 190.773L102.37 191.16L106.13 189.47C111.973 186.844 118.173 187.104 123.093 190.18C130.726 194.953 134.075 196.448 137.139 196.448C141.15 196.448 151.392 192.095 156.688 188.141C162.614 183.716 164.055 183.078 168.123 183.072C176.703 183.061 183.012 178.954 183.012 173.378C183.012 170.659 182.883 170.542 179.878 170.537C172.136 170.526 166.538 166.705 162.438 158.634C160.248 154.326 160.75 153.517 163.679 156.633C166.716 159.866 174.101 163.131 179.411 163.588C183.834 163.969 184.62 163.769 188.255 161.333C192.524 158.471 194.282 156.095 193.548 154.181C193.297 153.528 192.293 152.993 191.315 152.993C188.709 152.993 185.119 150.614 183.445 147.779C182.276 145.801 182.094 144.291 182.544 140.315C182.854 137.573 183.399 134.544 183.755 133.582C184.389 131.867 184.423 131.865 185.586 133.445C186.935 135.277 196.703 143.071 199.461 144.516C201.612 145.642 204.697 145.738 206.292 144.727C206.916 144.332 208.12 141.096 208.969 137.537C209.817 133.978 210.621 130.978 210.759 130.871C212.917 129.178 214.859 128.795 218.528 129.338C220.826 129.678 224.47 129.968 226.626 129.979ZM179.689 139.152C178.584 145.688 179.181 148.494 182.441 152.069L184.265 154.069L181.925 152.572C177.078 149.47 176.051 144.069 178.599 135.081C180.404 128.712 181.049 131.117 179.689 139.152ZM287.888 131.296C303.204 133.034 316.501 137.93 329.579 146.648C342.473 155.242 352.234 166.501 359.716 181.406C364.087 190.116 365.673 194.85 367.284 203.998C368.568 211.299 368.982 231.214 367.885 232.939C367.422 233.665 366.268 233.686 363.364 233.022C355.572 231.238 346.018 236.593 343.028 244.419C341.802 247.631 341.262 248.13 338.542 248.565C335.221 249.096 331.565 252.276 330.239 255.79C329.658 257.327 328.439 258.159 325.682 258.896C318.551 260.803 314.611 267.361 316.734 273.791C317.555 276.28 317.449 276.98 315.924 279.122C313.5 282.527 311.778 282.853 304.979 281.2C299.949 279.978 298.41 279.919 294.489 280.796C288.798 282.07 284.128 286.25 284.128 290.07C284.128 292.841 284.642 293.056 287.003 291.269C289.995 289.006 296.016 289.753 304.084 293.385C314.144 297.916 319.203 297.997 327.191 293.759C330.269 292.126 332.944 290.947 333.135 291.137C334.179 292.182 316.8 301.871 308.248 305.013C297.429 308.987 293.422 309.61 278.696 309.608C266.706 309.607 263.39 309.317 257.437 307.752C237.312 302.463 217.73 289.599 205.945 273.925C198.016 263.381 190.661 245.874 188.794 233.098C187.558 224.644 188.236 206.957 190.056 200.208C194.735 182.86 202.168 169.672 213.902 157.9C226.068 145.693 238.621 138.345 254.544 134.105C267.078 130.768 276.348 129.988 287.888 131.296ZM205.516 135.235C205.484 136.04 205.181 137.401 204.843 138.261C204.277 139.701 204.117 139.654 202.818 137.672C201.491 135.647 201.493 135.47 202.865 134.672C204.965 133.448 205.582 133.579 205.516 135.235ZM151.912 140.116C153.422 140.73 157.747 144.191 161.523 147.807C168.462 154.451 173.005 157.775 177.58 159.555L180.087 160.531L177.245 160.1C171.978 159.302 166.984 156.039 161.08 149.534C154.983 142.819 150.62 140.133 146.582 140.607L144.153 140.892L147.316 142.456C150.363 143.961 155.435 149.189 155.435 150.824C155.435 151.26 156.93 154.708 158.759 158.486C161.091 163.303 163.274 166.41 166.071 168.892C169.412 171.857 169.631 172.213 167.418 171.086C163.509 169.095 160.069 164.448 155.51 154.998C150.791 145.217 148.674 143.427 140.81 142.569C138.053 142.267 133.728 141.594 131.2 141.072L126.604 140.124L134.961 139.164C143.902 138.137 147.554 138.342 151.912 140.116ZM199.725 139.204C200.305 139.904 200.396 140.458 199.93 140.458C199.47 140.458 198.626 139.894 198.054 139.204C197.474 138.505 197.383 137.951 197.849 137.951C198.309 137.951 199.153 138.515 199.725 139.204ZM415.955 142.781C419.747 144.452 422.849 146.071 422.849 146.379C422.849 147.98 416.943 149.214 410.412 148.979C404.237 148.757 402.872 148.989 398.89 150.937C396.405 152.152 393.564 154.24 392.576 155.577C390.352 158.585 387.346 158.964 388.211 156.127C389.037 153.417 390.667 151.795 395.99 148.392C398.583 146.734 401.773 143.881 403.079 142.051C405.817 138.214 405.554 138.199 415.955 142.781ZM419.856 153.099C419.282 154.035 412.181 155.5 408.217 155.5C403.341 155.5 401.721 156.386 396.501 161.904C391.276 167.432 387.02 168.086 388.307 163.166C388.6 162.045 389.439 161.35 390.499 161.35C391.443 161.35 393.763 159.735 395.654 157.761C397.545 155.788 400.395 153.772 401.987 153.281C405.018 152.347 420.412 152.191 419.856 153.099ZM410.398 174.863C411.96 175.4 416.155 177.831 419.719 180.263C423.284 182.696 427.734 185.099 429.609 185.604C434.765 186.992 436.192 186.551 450.796 179.044C453.111 177.854 459.619 176.276 459.619 176.905C459.619 177.063 458.167 177.934 456.393 178.839C454.618 179.744 450.727 182.568 447.745 185.113C444.763 187.659 440.961 190.311 439.298 191.006C434.766 192.899 427.216 192.597 420.601 190.256C412.31 187.322 410.335 187.077 405.852 188.426C403.058 189.268 400.318 191.072 396.936 194.297C394.251 196.859 391.68 198.955 391.224 198.955C390.768 198.955 389.706 199.167 388.864 199.426C388.022 199.685 388.44 199.258 389.794 198.478C391.147 197.698 394.344 194.886 396.897 192.229C403.553 185.305 408.519 184.223 419.924 187.214C423.142 188.058 425.829 188.694 425.898 188.628C426.241 188.295 413.581 178.415 411.112 177.09C407.367 175.082 399.638 175.12 393.601 177.175C389.677 178.511 389.298 178.538 391.008 177.357C395.895 173.985 404.598 172.866 410.398 174.863ZM420.97 208.961C422.923 209.848 427.342 213.242 430.788 216.504C440.96 226.131 446.311 227.497 458.626 223.607C466.587 221.092 472.569 220.162 473.289 221.327C473.581 221.799 472.61 222.395 471.084 222.682C469.584 222.963 464.269 225.625 459.272 228.598C454.274 231.57 448.879 234.434 447.282 234.961C442.639 236.494 437.452 235.402 429.413 231.201C417.558 225.006 411.862 225.011 403.906 231.223C398.866 235.158 394.524 237.762 393.953 237.192C393.774 237.011 395.341 235.573 397.438 233.996C413.252 222.099 415.356 221.823 430.936 229.588C440.338 234.273 444.3 234.56 451.987 231.11C454.806 229.845 457.112 228.544 457.112 228.218C457.112 227.892 454.01 227.662 450.217 227.706C441.516 227.806 438.073 226.233 429.11 218.062C425.538 214.806 421.26 211.577 419.603 210.884C415.702 209.253 410.205 209.288 404.521 210.977C402.025 211.719 398.641 212.294 397 212.254C394.132 212.186 394.177 212.142 398.197 211.1C400.495 210.505 403.879 209.436 405.718 208.724C410.363 206.924 416.701 207.023 420.97 208.961ZM158.708 211.776C158.517 211.933 155.433 214.59 151.856 217.68C140.478 227.509 136.493 228.006 123.484 221.224C113.684 216.115 110.639 215.31 105.808 216.541C102.217 217.457 96.9377 219.911 96.9377 220.663C96.9377 220.904 99.2885 221.13 102.161 221.167C109.784 221.265 114.256 223.587 122.07 231.507C127.63 237.142 129.357 238.377 133.258 239.511C137.638 240.785 138.212 240.765 144.543 239.124C148.211 238.174 152.763 237.395 154.659 237.395C158.04 237.395 163.333 239.322 164.314 240.909C164.588 241.351 163.66 241.117 162.254 240.39C159.316 238.87 151.648 238.64 148.177 239.965C142.473 242.145 137.118 242.547 132.336 241.158C128.375 240.006 126.692 238.794 120.878 232.901C111.178 223.07 105.36 221.324 94.3304 224.935C91.3981 225.895 86.5545 226.821 83.567 226.993C80.5795 227.165 78.8873 227.114 79.8065 226.879C83.1918 226.015 88.332 223.566 94.8486 219.711C102.095 215.425 107.77 213.723 112.131 214.527C113.656 214.808 118.101 216.637 122.008 218.591C129.749 222.463 133.266 223.492 138.141 223.314C142.151 223.167 143.569 222.408 151.097 216.381C154.456 213.691 157.622 211.49 158.131 211.49C158.639 211.49 158.899 211.618 158.708 211.776ZM367.662 238.712C369.963 239.964 372.456 242.21 373.626 244.082L375.634 247.299L380.865 246.822C386.836 246.277 388.947 247.444 390.109 251.932C390.642 253.984 391.377 254.63 393.852 255.215C402.831 257.339 403.461 269.092 394.854 273.929C387.056 278.314 377.723 275.215 377.723 268.241C377.723 263.074 381.305 260.357 385.299 262.495C387.214 263.52 387.445 266.494 385.662 267.177C383.619 267.962 384.199 269.987 386.468 269.987C390.563 269.987 391.659 263.689 388.056 260.855C384.509 258.065 379.841 258.509 376.386 261.964C372.966 265.384 372.59 269.499 375.297 273.878C377.75 277.849 381.33 279.527 387.333 279.524C394.03 279.521 398.595 277.112 402.174 271.694C405.32 266.929 408.621 265.726 412.724 267.847C419.002 271.094 420.676 278.138 416.228 282.586C413.676 285.137 411.318 285.625 408.588 284.164C405.358 282.435 407.644 277.184 411.219 278.119C412.62 278.485 412.927 278.252 412.689 277C412.232 274.591 408.087 274.447 405.631 276.754C403.17 279.066 402.88 284.092 405.093 286.094C409.126 289.744 414.503 289.439 418.805 285.317C421.323 282.905 426.168 280.884 429.479 280.863C432.23 280.846 438.072 283.766 439.325 285.784C440.165 287.137 440.069 287.757 438.772 289.359C437.333 291.135 436.552 291.296 429.381 291.296C421.982 291.296 421.331 291.443 417.326 294.012C414.18 296.03 412.146 296.726 409.405 296.723C405.541 296.717 401.172 294.939 400.036 292.909C398.948 290.964 397.285 291.526 394.91 294.64C393.683 296.249 391.588 298.129 390.256 298.818C387.187 300.406 379.398 300.451 377.268 298.893C375.686 297.738 375.691 297.657 377.527 294.392C381.102 288.03 379.015 279.366 373.144 276.205C368.942 273.942 362.418 274.879 359.071 278.226C355.489 281.806 355.362 286.776 358.777 289.713C363.315 293.617 370.535 291.504 370.04 286.418C369.873 284.709 369.273 283.692 368.325 283.513C367.285 283.316 367.011 283.617 367.373 284.561C367.962 286.097 366.347 288.371 364.668 288.371C364.035 288.371 362.745 287.6 361.803 286.657C358.772 283.626 361.777 278.343 366.532 278.343C374.432 278.343 378.515 285.574 374.414 292.3C372.122 296.059 368.245 297.84 362.263 297.882C356.541 297.922 353.885 296.76 347.135 291.262C340.112 285.542 333.905 285.215 325.982 290.149C319.654 294.09 313.953 294.014 304.602 289.864C300.925 288.232 296.423 286.632 294.598 286.308C291.997 285.847 291.576 285.553 292.65 284.953C294.756 283.774 299.869 283.819 306.164 285.07C311.474 286.125 312.088 286.09 314.923 284.572C318.361 282.731 322.864 275.424 321.219 274.354C319.502 273.237 319.137 270.147 320.372 267.19C321.878 263.584 323.867 262.466 328.771 262.466H332.577L333.132 258.996C333.842 254.553 335.958 252.438 339.689 252.438C342.207 252.438 342.762 252.819 343.778 255.252C346.759 262.386 356.226 265.038 362.266 260.43C364.772 258.52 365.188 257.711 365.188 254.759C365.188 250.981 363.374 248.259 360.855 248.259C359.363 248.259 359.372 248.371 361.025 250.607C365.682 256.907 355.772 262.343 349.403 256.984C346.343 254.409 345.408 250.434 346.823 246.015C349.623 237.279 358.994 233.993 367.662 238.712ZM418.504 249.433C419.745 250.079 421.7 251.637 422.849 252.895C423.998 254.152 427.195 256.869 429.952 258.931C437.431 264.523 432.698 262.855 422.05 256.146C418.376 253.831 416.673 253.28 413.276 253.308C410.912 253.328 407.844 253.992 406.292 254.819L403.523 256.296L400.592 253.531C398.972 252.004 396.773 250.766 395.68 250.766C394.59 250.766 393.447 250.358 393.138 249.859C392.748 249.227 393.939 249.102 397.059 249.445C399.523 249.717 402.856 249.6 404.464 249.185C409.005 248.014 416.012 248.137 418.504 249.433ZM166.298 252.376C167.958 252.858 167.443 253.066 163.791 253.389C160.333 253.696 157.761 254.663 153.398 257.296C148.148 260.465 147.085 260.793 142.117 260.784C139.1 260.779 134.564 260.219 132.036 259.541C125.85 257.88 124.318 258.028 127.858 259.944C129.466 260.814 132.851 263.248 135.379 265.351C137.906 267.455 141.963 269.923 144.394 270.835C150.909 273.281 154.78 272.993 161.395 269.569C167.67 266.322 170.01 265.958 171.179 268.047C171.688 268.957 173.186 269.509 175.439 269.619C177.349 269.712 179.177 270.063 179.5 270.399C179.823 270.734 176.659 270.743 172.47 270.418C166.318 269.941 164.362 270.08 162.305 271.145C158.579 273.071 151.479 273.668 145.943 272.518C142.512 271.806 139.22 270.215 134.521 266.997C123.393 259.376 119.15 259.19 107.801 265.826C104.748 267.612 100.723 269.217 98.6091 269.491L94.8486 269.981L98.1378 268.72C99.9478 268.026 103.52 265.66 106.077 263.459C113.905 256.725 115.85 255.648 120.999 255.202C124.669 254.884 127.308 255.286 132.454 256.945C141.484 259.857 144.897 259.771 150.048 256.494C157.548 251.724 161.024 250.843 166.298 252.376ZM334.276 266.216C333.45 267.212 333.472 267.522 334.383 267.774C339.926 269.301 340.546 269.684 340.787 271.745C341.09 274.329 339.257 276.045 336.196 276.045C334.089 276.045 332.567 274.763 330.477 271.226C329.861 270.184 329.077 269.931 327.761 270.348C325.715 270.997 325.241 272.494 327.082 272.494C327.726 272.494 329.032 273.813 329.983 275.425C332.125 279.055 334.898 280.396 338.766 279.67C343.472 278.788 346.378 273.37 344.613 268.771C343.399 265.609 336.247 263.841 334.276 266.216ZM193.04 294.192C193.04 300.328 190.112 303.344 182.17 305.388C177.826 306.506 175.232 307.749 172.967 309.795C168.097 314.196 167.029 317.209 167.31 325.754C167.447 329.919 167.912 333.08 168.388 333.08C168.847 333.08 170.166 330.447 171.318 327.23C174.094 319.481 175.08 317.876 177.981 316.375C181.37 314.622 184.397 314.789 191.952 317.148C206.568 321.71 210.113 320.754 212.259 311.669C212.905 308.932 212.927 308.919 213.011 311.226C213.146 315.011 210.78 319.01 207.478 320.577C203.825 322.31 199.712 321.87 190.798 318.794C180.05 315.084 176.112 316.92 173.035 327.073C170.105 336.737 168.652 339.527 164.331 343.775C162.087 345.982 160.09 347.624 159.891 347.426C159.693 347.227 160.484 345.659 161.649 343.943C164.691 339.46 165.45 335.893 165.476 325.977C165.513 312.158 168.805 307.313 180.323 304.13C188.878 301.765 192.165 298.616 192.192 292.759C192.198 291.264 192.392 290.043 192.622 290.043C192.852 290.043 193.04 291.91 193.04 294.192ZM362.263 314.281C363.642 314.804 367.966 315.591 371.873 316.028C381.245 317.076 383.838 318.003 386.785 321.359C389.745 324.731 390.849 327.849 391.825 335.591C392.23 338.806 393.166 342.941 393.905 344.779L395.249 348.122L392.416 344.941C390.544 342.84 389.085 339.924 388.117 336.346C385.647 327.22 380.355 323.657 370.74 324.644C355.301 326.229 351.537 326.189 346.76 324.387C343.958 323.331 340.979 321.399 339.239 319.51C337.654 317.789 337.297 317.181 338.446 318.157C341.175 320.474 344.624 322.123 349.507 323.444C353.336 324.481 357.208 324.4 372.876 322.96C377.613 322.524 379.061 322.727 382.277 324.285C384.369 325.297 386.08 326.468 386.08 326.887C386.08 327.305 386.481 327.648 386.971 327.648C388.37 327.648 386.985 324.162 384.557 321.569C382.121 318.969 375.798 316.787 370.677 316.779C365.643 316.772 361.213 315.296 358.627 312.763C357.365 311.528 357.103 311.15 358.045 311.923C358.985 312.697 360.884 313.758 362.263 314.281ZM85.037 312.073C80.709 313.687 78.0775 315.529 75.9098 318.461C74.3897 320.517 73.4554 320.966 70.6659 320.981C66.0204 321.006 60.6797 323.6 58.832 326.728C57.9897 328.153 56.7988 329.319 56.1863 329.319C54.5225 329.319 49.9112 331.857 48.3711 333.621C47.6273 334.473 46.017 335.169 44.7928 335.169C42.1019 335.169 37.0127 337.207 34.8015 339.17C32.7307 341.009 30.1259 346.678 30.1025 349.397C30.0858 351.349 29.8351 351.485 26.7899 351.195C22.101 350.747 16.0691 353.056 11.6994 356.97C7.86115 360.407 7.4383 360.491 1.88026 358.908C0.681907 358.567 0 358.734 0 359.37C0 361.009 4.75496 365.253 6.59177 365.253C7.53022 365.253 9.64865 366.438 11.2983 367.887C14.7563 370.923 19.7887 371.781 25.9041 370.378C29.9036 369.461 29.5368 369.319 39.3266 375.547C40.6403 376.382 43.8927 377.285 46.5543 377.552C50.8689 377.985 51.6979 378.391 54.1991 381.285C60.1164 388.13 68.8408 389.802 77.022 385.656C80.8051 383.739 81.6776 383.595 84.7771 384.376C91.6496 386.105 98.4929 383.68 105.651 376.975C113.248 369.859 115.759 369.532 125.033 374.445C134.326 379.369 139.664 378.97 152.72 372.375C159.059 369.173 164.155 368.36 169.432 369.706C171.865 370.327 172.148 370.214 172.148 368.615C172.148 364.763 163.085 359.36 156.748 359.433C155.336 359.449 151.99 359.987 149.312 360.626C143.541 362.005 141.64 361.753 138.985 359.26C137.188 357.57 137.056 356.948 137.557 352.517C138.476 344.392 134.525 338.663 127.022 337.241C124.644 336.791 123.784 336.039 122.426 333.213C121.217 330.7 119.721 329.216 117.026 327.857C114.975 326.822 112.686 326.17 111.939 326.408C110.929 326.728 110.322 325.975 109.573 323.475C108.399 319.557 104.358 315.213 99.9336 313.113C95.711 311.109 88.8986 310.634 85.037 312.073ZM100.437 318.042C105.492 321.388 107.618 328.482 105.172 333.849C103.762 336.946 98.3483 339.392 94.9981 338.448C90.0593 337.056 87.9284 332.349 90.7997 329.176C92.0975 327.741 92.075 327.648 90.4295 327.648C86.6063 327.648 84.6993 334.506 87.437 338.414C89.171 340.89 93.4588 342.69 97.623 342.69C101.996 342.69 105.967 339.866 108.492 334.96C110.194 331.652 110.925 330.991 112.881 330.991C116.29 330.991 119.607 334.21 120.251 338.141L120.791 341.436L124.75 341.151C128.334 340.894 128.984 341.142 131.626 343.784C134.901 347.059 135.536 351.072 133.19 353.663C131.941 355.044 131.962 355.399 133.472 358.325C135.507 362.27 139.778 365.253 143.389 365.253C144.901 365.253 148.619 364.678 151.65 363.974C156.102 362.942 157.84 362.885 160.685 363.674L164.209 364.652L160.031 365.672C157.733 366.232 152.954 368.094 149.411 369.809C145.08 371.905 141.334 373.074 137.977 373.379C133.353 373.799 132.478 373.577 126.107 370.378C122.325 368.479 118.15 366.924 116.831 366.924C113.077 366.924 108.717 369.128 104.305 373.255C96.8985 380.182 88.6872 382.114 81.4778 378.624C77.6939 376.792 74.3746 371.955 74.3746 368.273C74.3746 367.071 74.0504 366.089 73.6551 366.089C73.259 366.089 73.1094 365.177 73.3225 364.062C73.8799 361.148 72.0298 356.205 69.8461 354.775C68.8166 354.1 66.0438 352.975 63.6847 352.274C61.3257 351.574 58.9106 350.31 58.3189 349.466C56.5373 346.925 51.5792 344.366 48.4689 344.383C42.574 344.413 35.9338 348.953 35.9338 352.954C35.9338 353.798 35.5578 354.256 35.0981 353.971C34.6385 353.687 34.2625 351.785 34.2625 349.744C34.2625 346.528 34.7087 345.586 37.6052 342.69C40.7623 339.533 41.2261 339.347 45.9619 339.347C49.8619 339.347 50.9759 339.069 50.9759 338.094C50.9759 335.857 54.1606 333.498 57.1782 333.498C59.7086 333.498 60.1507 333.159 61.0089 330.559C62.5942 325.754 68.4564 323.923 74.4641 326.356C75.4242 326.745 76.0953 326.203 76.8181 324.458C78.1485 321.247 82.6887 316.906 85.7347 315.934C89.8563 314.619 96.7589 315.608 100.437 318.042ZM327.228 330.443C325.334 337.998 326.376 340.905 333.471 347.852C340.506 354.74 341.024 356.373 340.358 369.613C339.88 379.114 339.785 379.534 338.622 377.312C337.944 376.02 337.081 372.201 336.702 368.826C335.679 359.708 333.615 356.614 326.164 353.03C318.769 349.472 315.301 345.627 314.625 340.235C314.362 338.138 313.97 335.322 313.753 333.976C313.062 329.687 314.286 332.303 315.893 338.549C317.693 345.55 320.592 349.137 327.16 352.492C329.455 353.665 332.73 356.153 334.439 358.022C336.147 359.891 337.808 361.157 338.13 360.835C339.638 359.326 336.473 353.198 332.053 349.071C324.46 341.983 323.857 339.432 326.538 325.727C327.835 319.099 328.03 318.651 328.261 321.77C328.404 323.704 327.94 327.607 327.228 330.443ZM253.439 329.599C253.245 330.614 252.334 332.375 251.414 333.515C250.495 334.654 249.941 335.023 250.183 334.333C250.426 333.644 251.094 331.489 251.668 329.544C252.704 326.03 254.113 326.074 253.439 329.599ZM296.174 335.321C295.39 336.846 293.084 339.951 291.05 342.219C286.008 347.844 284.653 350.711 284.628 355.802C284.609 359.413 285.295 361.443 288.724 367.92C292.438 374.933 292.843 376.234 292.845 381.131C292.846 387.45 292.002 389.316 285.621 397.099C279.404 404.681 277.097 410.231 277.773 415.979C278.058 418.414 278.109 420.407 277.885 420.407C277.66 420.407 276.647 418.809 275.633 416.856C273.381 412.515 273.242 405.968 275.317 401.926C279.994 392.812 281.244 383.188 278.46 377.728C277.642 376.123 274.849 372.18 272.253 368.968C266.181 361.453 265.06 357.514 266.922 350.244C267.653 347.394 268.263 343.87 268.279 342.413C268.296 340.957 268.847 338.825 269.504 337.676L270.698 335.587L270.728 337.536C270.744 338.609 269.982 342.523 269.035 346.233C266.444 356.379 267.454 360.466 274.582 368.695C281.733 376.949 283.809 385.393 280.722 393.666C276.915 403.872 277.668 404.489 283.922 396.288C292.114 385.546 292.589 380.907 286.764 368.543C283.157 360.89 281.815 354.431 283.127 351.047C283.572 349.898 286.267 346.178 289.116 342.781C291.964 339.385 294.912 335.312 295.666 333.731C296.42 332.15 297.163 331.238 297.318 331.703C297.473 332.168 296.959 333.796 296.174 335.321ZM304.384 342.757C303.454 348.754 304.14 351.571 308.258 358.685C310.355 362.307 311.691 365.658 311.668 367.244L311.631 369.849L310.552 366.828C309.325 363.395 306.895 359.762 304.189 357.316C301.981 355.321 300.01 351.707 299.994 349.626C299.979 347.557 304.543 335.822 304.845 337.154C304.978 337.744 304.771 340.266 304.384 342.757ZM112.815 344.951C105.931 347.468 106.361 357.324 113.447 359.436C117.616 360.678 120.71 359.447 122.946 355.655C123.962 353.934 125.337 352.718 126.269 352.718C128.356 352.718 128.298 351.342 126.163 350.198C124.705 349.418 124.044 349.764 121.43 352.676C118.104 356.381 115.565 356.966 113.363 354.532C110.411 351.271 112.177 347.704 116.743 347.704C119.649 347.704 120.159 347.025 118.498 345.364C117.463 344.329 115.007 344.151 112.815 344.951ZM52.0472 348.845C53.5263 349.472 55.7317 351.118 56.9484 352.502C58.4418 354.2 60.5493 355.35 63.4382 356.043C69.6581 357.536 71.9086 361.601 68.8952 365.902C67.5038 367.89 62.6026 368.481 60.1858 366.953C59.2649 366.37 58.3498 366.9 56.5907 369.034C53.9116 372.284 48.9753 374.02 44.8471 373.162C43.3922 372.86 39.8406 371.094 36.9558 369.238L31.7095 365.862L24.7818 366.425C18.5151 366.934 17.6402 366.818 15.612 365.224C14.3794 364.254 13.3707 362.994 13.3707 362.424C13.3707 360.616 18.0847 356.788 21.1684 356.092C25.523 355.11 31.7939 356.519 33.8204 358.936C36.665 362.327 41.0214 364.411 45.2741 364.414C48.5265 364.417 49.4809 364.039 50.9558 362.164C53.3642 359.102 52.9706 354.688 50.0993 352.554C48.8549 351.629 47.3766 351.197 46.5477 351.515C44.6432 352.247 44.7518 353.322 46.7959 353.971C49.1984 354.734 49.9706 358.521 48.0143 359.952C44.1652 362.766 39.2765 360.168 39.2765 355.307C39.2765 351.782 40.9762 349.717 44.8279 348.563C48.2483 347.538 49.0396 347.569 52.0472 348.845ZM80.6422 356.896C78.853 358.873 78.6733 358.767 84.1679 358.983C86.5662 359.078 89.1443 359.666 89.8955 360.29C94.0689 363.753 92.4585 369.753 87.4846 369.272C85.2191 369.052 84.8147 368.674 84.7821 366.747C84.7336 363.837 83.9347 363.072 82.3336 364.401C80.409 365.998 80.8026 369.25 83.2127 371.66C85.0512 373.499 85.8743 373.744 88.8518 373.345C95.1862 372.496 97.9965 366.326 94.8344 360.211C92.3608 355.428 83.7843 353.424 80.6422 356.896ZM74.8259 378.658L76.9201 380.845L74.8861 381.772C68.5149 384.675 62.6527 383.648 58.4819 378.896L55.8754 375.929L57.7498 373.933C59.1028 372.492 60.5702 371.922 63.0296 371.88C64.9032 371.847 67.1879 371.523 68.1071 371.159C69.4818 370.614 70.04 371.026 71.2551 373.484C72.0665 375.127 73.6735 377.455 74.8259 378.658Z" fill="#286196"/>
</svg>
