<svg width="204" height="13" viewBox="0 0 204 13" fill="none" xmlns="http://www.w3.org/2000/svg">
<path d="M41.9796 0.105017C44.7366 0.0716542 47.755 -0.128835 50.5229 0.131996C50.8628 0.163863 50.8395 0.600436 50.9349 0.65806C51.1955 0.817062 51.3524 0.302091 51.5424 0.339882C52.4659 0.521849 53.3298 0.595931 54.2357 0.76121C55.169 0.931053 54.7275 2.28811 55.0518 2.6187C55.6854 3.26613 55.1465 1.49653 55.3955 1.09922C56.1218 1.20537 56.8546 1.39707 57.5822 1.59117C57.4046 1.75639 57.2269 1.91811 57.0474 2.07121C57.3645 2.10763 57.8184 2.38076 57.2873 2.84325C57.4047 2.97063 57.5143 3.1196 57.6349 3.24395C57.668 2.59952 58.2295 2.54768 58.2808 2.16563C58.3321 1.78349 58.0164 1.8713 58.0183 1.83794C58.0392 1.36196 59.3342 2.01259 59.4276 2.06566C59.6745 2.20687 59.458 3.00578 59.6681 2.95433C60.0293 2.86638 59.7887 1.24089 60.2777 3.40185C60.4722 2.69984 60.4892 3.0644 60.7355 3.11303C60.7679 3.11909 60.7428 2.71263 60.757 2.70201C61.1299 2.40033 60.8433 3.15619 60.8452 3.19713C60.8791 3.89269 61.2792 3.58349 61.3635 3.6502C62.4212 4.48117 63.1963 5.04374 64.3124 5.23633C64.5536 5.27726 65.2885 4.99506 65.522 5.11334C65.7522 5.23007 65.6287 5.73123 65.7492 5.97186C65.9424 4.76624 66.1266 4.63327 66.5603 5.42755C66.7218 4.5481 66.701 5.25751 67.0104 5.0816C67.2679 4.93588 67.7166 3.8809 68 4.78009C67.6751 4.6982 67.7087 5.13022 67.3429 5.39105C67.2212 5.47743 65.9515 5.49589 66.0459 6.39478C66.0952 6.86333 66.5161 6.43299 66.5323 6.51935C66.627 7.02282 66.3921 7.64154 66.1839 7.42469C66.2358 7.32309 66.2983 7.22002 66.3541 7.11841C65.8865 6.48909 66.2081 8.90616 65.8527 6.79389C65.8087 6.53478 65.8258 6.26464 65.7533 5.98932C65.7384 6.10319 65.8271 6.38547 65.7507 6.43604C65.6729 6.487 65.5251 5.95103 65.503 6.40271C65.4701 7.05955 65.7926 6.80071 65.8169 6.83911C65.8171 6.83515 65.8174 6.83118 65.8177 6.82721C66.0323 7.17595 65.5841 7.21573 65.5627 7.2779C65.424 7.68716 65.5186 8.00229 65.3105 8.34034C65.1918 8.53293 64.8896 8.4194 64.778 8.48158C64.6672 8.54531 64.8396 8.85602 64.765 8.92274C64.6904 8.98945 64.5976 8.75336 64.51 8.8307C64.4726 8.86479 64.4745 9.21135 64.4563 9.22346C64.2618 9.35681 64.3894 8.63597 64.213 8.67994C64.0987 8.70918 63.7152 9.38114 63.9796 9.58131C63.8525 9.65104 63.7286 9.70209 63.6021 9.75667C63.6819 9.85975 63.7643 9.9298 63.8421 10.051C63.6042 9.88597 63.4965 10.479 63.3474 10.5231C63.1982 10.5671 63.0645 9.85546 62.9005 10.2026C62.5502 10.9411 63.4174 10.5999 63.5251 10.7318C63.5671 10.7837 63.4059 11.3411 63.3811 11.3571C63.2709 11.4268 63.1405 11.0282 63.0556 11.046C62.7514 11.1128 62.5652 11.6389 62.2753 11.7451C61.2882 12.106 60.0637 12.3987 59.1285 12.5139C58.7803 12.5564 58.5707 11.9648 58.4144 11.9815C58.0487 12.021 58.0039 12.5365 57.685 12.5639C57.2102 12.6064 56.5414 12.1563 56.1452 12.0593C55.8708 11.9926 55.6225 12.4914 55.5511 12.5036C54.5595 12.6826 53.3532 12.6713 52.5315 12.6774C52.145 12.6804 51.9615 12.1198 51.8817 12.1363C51.5386 12.206 51.6306 12.6853 51.3525 12.6369C51.2023 12.6112 51.1742 12.151 51.1541 12.1331C50.977 11.9814 50.9418 12.5823 50.8036 12.602C50.0092 12.7157 49.244 12.3224 48.4573 12.2648C48.4003 12.2602 48.4053 11.9941 48.3684 12.0077C48.2096 12.073 48.2834 12.4922 48.1175 12.5227C47.7725 12.5879 47.4182 12.5186 47.0524 12.4655C47.0162 12.4603 46.9999 12.1181 46.917 12.118C46.834 12.118 46.7711 12.4424 46.6408 12.4243C46.3003 12.3773 45.9643 11.9893 45.6037 11.968C45.544 11.965 45.4701 12.3772 45.3806 12.3727C45.0998 12.3591 44.684 11.9849 44.4434 11.9712C43.6496 11.9288 42.9173 12.1634 42.1695 12.1664C41.9938 12.1662 41.8381 11.7843 41.7467 11.7752C41.5406 11.7556 41.6961 12.1165 41.4873 12.118C39.7816 12.1271 38.0694 11.963 36.3436 11.9918C35.6659 12.0025 34.841 12.3758 34.186 12.2727C33.9136 12.2287 33.8642 11.7298 33.6716 11.7252C33.328 11.7193 33.2657 12.3589 32.9032 12.4227C32.614 12.4727 32.2825 11.8342 31.9816 11.8736C31.6807 11.913 31.5418 12.5333 31.1961 12.6076C30.9114 12.6682 30.5139 12.3867 30.2039 12.4322C27.3633 12.8507 24.5662 13.1055 21.7081 12.6203C20.6996 12.4489 19.5807 12.538 18.5384 11.9284C18.4406 11.8707 18.5903 11.2717 18.2765 11.3975C18.1078 11.4658 17.8724 11.9819 17.4827 12.0077C15.1654 12.1594 12.6937 11.0554 10.3375 11.2738C6.80817 11.6029 3.15042 15.8651 0.0834612 9.62812C-0.0669773 9.32184 0.0146015 7.82094 0.104732 7.39453C0.188375 7.69928 0.265705 8.06123 0.353237 8.4054C0.463463 6.53003 0.444026 7.01833 0.852581 7.18664C1.10411 7.29117 0.903197 6.48912 1.03727 6.26147C1.21108 5.96728 2.02716 5.04091 1.87021 6.28289C1.92079 6.06757 1.96748 5.86128 2.01677 5.6505C2.60757 5.46246 3.18158 5.15151 3.75941 4.79515C3.85923 4.73286 3.86384 4.34316 3.96693 4.28099C4.24384 4.11122 4.46368 4.36723 4.74902 4.32781C4.90403 4.30658 4.92553 3.85624 5.12853 3.88506C5.3314 3.91405 5.32695 4.52197 5.60375 3.86125C5.42345 3.09849 6.2277 3.65195 6.51372 3.60497C6.55522 3.5989 6.89567 2.91365 7.07662 2.99241C7.25819 3.06974 7.53383 3.5075 7.81461 3.25902C7.94626 3.14225 8.02615 2.60859 8.16817 2.57823C8.26804 2.557 8.38801 3.03136 8.51447 3.05113C8.64088 3.07084 8.91441 2.68145 8.96453 2.67503C9.14544 2.64926 8.94586 2.98276 9.06958 2.99956C9.66688 3.07538 10.3608 3.2541 10.9497 3.02971C11.0221 3.0025 10.9219 2.60957 10.9316 2.59648C11.423 2.11437 11.1607 2.62632 11.2934 2.97813C11.422 3.31832 12.3627 3.13275 12.3697 2.44969C12.3986 3.30504 12.6077 2.65174 12.662 2.62663C12.8734 2.52967 12.8319 3.26972 13.0368 3.04082C13.112 2.95745 12.9656 2.45724 13.0464 2.47191C13.2462 2.5083 13.4259 3.31189 13.6918 3.39232C13.756 3.41203 13.7769 3.05408 13.891 3.06621C14.0053 3.07852 14.4843 3.51644 14.2633 2.76152C14.5538 3.36649 14.6123 3.03445 14.9502 3.05113C15.0358 3.05621 15.146 3.63307 15.3281 3.45421C15.3897 3.39351 15.3879 2.83748 15.4806 2.83293C15.6927 2.82096 15.8925 3.39655 16.1616 3.4193C16.6648 3.46326 17.2006 3.05862 17.7252 3.20268C17.8678 3.24222 17.8322 3.80125 18.0396 3.81206C18.0701 3.81206 18.3199 3.32862 18.4632 3.37407C18.5495 3.40137 18.9964 3.74112 19.0866 3.76842C19.2356 3.81217 19.2622 3.2715 19.3439 3.37724C19.58 3.68205 19.3906 4.47791 19.6746 3.38915C19.768 3.99269 19.934 3.93231 19.9872 4.67534C20.0838 3.86108 20.2091 4.64341 20.3965 4.37066C20.584 4.09769 20.7376 2.5206 20.783 4.21752C20.8706 4.01128 21.2436 3.65931 21.3065 3.63353C21.4919 3.56081 21.3928 4.03019 21.5327 3.96678C21.5573 3.95617 21.5315 3.63521 21.6896 3.66686C21.7934 3.68809 22.5537 3.70778 22.5991 3.75176C23.1171 4.25426 22.3168 4.07008 22.2048 4.41747C22.185 4.32623 22.1655 4.23469 22.1444 4.14452C21.9155 3.99296 22.0458 4.71809 22.1496 4.8864C22.2533 5.05468 22.4472 4.73164 22.5335 4.96972C22.5764 5.08926 22.5498 5.95863 22.4198 5.85363C22.5589 6.12142 22.369 6.40416 22.424 6.65582C22.4845 6.93171 23.1094 7.01663 23.1127 6.5376C22.996 6.52092 22.8507 6.53746 22.7327 6.51776C22.5783 5.68522 23.0472 2.84206 23.4772 3.97789C23.7891 4.79976 23.2749 5.4533 24.0128 4.76342C23.8993 4.73005 23.8034 4.6523 23.7002 4.61742C23.6893 3.99306 23.8565 4.67958 23.9428 4.48095C23.9842 4.38383 23.7289 3.94172 23.9506 3.7946C24.1412 4.68744 24.2879 3.78935 24.6076 3.77873C24.5188 3.93796 24.4298 4.09638 24.341 4.2556C24.8812 4.90311 23.6264 5.11671 24.6769 5.47912C24.5505 5.5079 24.4247 5.50024 24.2976 5.54418C24.3592 5.8718 24.2607 6.83349 24.3158 7.03668C24.4604 7.57001 24.6743 7.24852 24.8507 7.29535C24.9279 7.31506 24.88 7.57472 24.8865 7.57623C24.9922 7.60501 24.9688 7.2244 25.0616 7.20013C25.1783 7.16983 25.5153 7.53984 25.57 7.49768C25.7114 7.39001 25.476 6.63893 25.4896 6.58282C25.5797 6.21903 25.7638 6.52072 25.7542 6.04486C25.3112 6.37234 24.0344 5.95192 25.1895 5.16491C24.871 4.39608 24.963 3.3361 25.4208 3.25267C25.7996 3.18291 25.5552 3.60763 25.7524 4.0747C25.7778 4.13317 26.2851 4.35649 26.3111 4.02629C26.2908 4.78677 26.4559 5.46021 26.3451 6.24481C26.3289 6.36006 26.1207 6.31459 26.1933 6.94543C26.2297 7.26232 26.3339 7.95201 26.3171 8.35541C26.3599 8.07491 26.4046 7.75935 26.4481 7.46674C26.76 7.38485 26.8043 7.68703 26.9749 8.21021C26.9671 7.99184 26.8095 7.07424 27.0488 7.35327C27.0611 7.36995 27.0717 7.69928 27.1933 7.86267C27.4391 8.19018 27.4904 8.29204 27.3017 9.25916C27.8107 8.70751 27.9204 9.78542 28.4423 9.47022C28.3386 8.22695 28.1551 8.53477 27.6771 8.77436C27.6563 8.47867 27.6466 8.18599 27.6252 7.88727C28.2614 8.55748 27.947 8.4892 28.3074 7.88886C28.3956 7.74176 28.8659 7.89916 28.709 7.06207C28.6719 6.86511 28.3798 6.88779 28.4133 6.57727C28.4198 6.51814 28.775 6.36772 28.8063 6.44793C29.1993 7.43816 28.497 8.12832 29.5793 7.76746C29.6091 7.75685 29.6196 7.39491 29.6779 7.34454C29.7874 7.25055 29.7888 7.66985 29.8867 7.57306C29.9846 7.47602 30.1203 6.91208 30.2675 7.43341C30.5366 8.38272 29.9017 8.9287 29.619 8.42524C29.5042 9.6657 31.5244 9.69302 31.6495 9.58686C32.1961 9.12443 31.2866 9.39138 31.2397 9.04731C31.2202 8.90174 31.2299 7.05649 30.9998 8.25385C30.9317 8.60867 31.2163 9.07621 31.0464 9.27186C30.8765 9.46748 30.9439 8.92415 30.9315 8.88624C30.8893 8.7563 30.7085 8.95774 30.6851 8.88068C30.3245 7.71149 30.3576 5.94474 30.8355 8.55457C31.0437 7.96467 30.5659 7.02443 30.8247 6.62408C31.1392 6.1375 31.3687 6.97894 31.4083 7.01685C31.8822 7.46553 31.3358 6.23719 31.9147 6.62964C32.237 6.84801 31.4323 7.44712 32.1683 7.36676C32.7845 7.29852 32.4517 6.87091 32.4965 5.89886C32.5071 5.67143 32.8446 5.39255 32.3849 5.49261C32.372 5.74581 32.3475 6.07952 32.3183 6.31305C32.2055 6.12818 32.0175 4.86089 31.9577 4.81658C31.6652 4.60581 31.6794 5.26358 31.5069 4.48888C31.6301 5.33638 31.4296 4.8257 31.3544 5.00463C31.075 5.66411 31.4413 5.90929 30.8143 5.06176C30.896 5.45907 30.9699 5.84901 31.049 6.24481C30.9738 6.25845 30.8986 6.27243 30.8234 6.28607C30.7112 5.4111 30.3116 5.52299 30.6734 4.64202C30.2383 4.39185 30.0624 4.58259 29.9671 5.2633C29.949 5.39325 29.8836 5.44519 29.8068 5.4577C29.8213 5.64911 29.8399 6.24051 29.8278 6.31305C29.7195 6.95092 29.5516 5.84896 29.6089 5.42834C29.5551 5.40821 29.5126 5.3846 29.4976 5.37438C29.4024 5.30905 29.589 4.92872 29.5118 4.79833C29.4864 4.75596 29.2182 4.83871 29.213 4.68407C29.1807 3.69278 29.6221 4.40798 28.7357 3.8319C28.7143 4.73419 29.126 4.53579 29.0203 5.4942C28.9068 6.52378 28.6753 5.14269 28.6247 6.40588C28.6059 6.1982 28.5976 6.02501 28.5814 5.78857C28.2228 6.33895 28.218 5.28688 28.1085 5.05462C27.8958 4.6012 26.9178 4.66929 27.7959 5.58068C27.6675 5.67167 27.5364 5.71375 27.4086 5.79412C27.3795 3.90806 27.4573 4.65875 26.8418 4.37066C26.7063 4.30697 26.6622 3.47746 26.5293 4.4627C26.5473 3.49625 26.1464 4.0801 26.109 3.96282C25.8691 3.20009 26.76 2.13837 26.8743 3.84697C27.0247 3.18174 27.0241 4.06113 27.192 3.94457C27.4346 3.77624 27.4683 3.60498 27.7562 4.25402C28.0396 3.33959 26.6467 3.8517 27.4911 2.63853C28.3358 1.42546 33.2539 0.748789 34.4013 0.56681C36.4798 0.237741 37.5727 0.0226576 39.4398 0.0772457C39.624 0.0817947 41.0144 -0.00588249 40.7254 1.05082C40.6839 1.20246 40.0859 1.60435 40.5988 2.43382C40.4945 1.94407 40.7961 1.62606 40.8214 1.5745C41.4018 0.403833 41.0658 0.117148 41.9796 0.105017ZM44.6885 9.52974C43.4959 9.28864 44.3721 9.99506 44.1243 11.5904C44.2774 11.5949 44.4299 11.5993 44.583 11.6038C44.5427 11.5038 44.5031 11.404 44.4629 11.3039C44.4627 11.3039 44.4625 11.3039 44.4623 11.3039C44.5376 10.7126 44.6133 10.1211 44.6885 9.52974ZM64.1848 10.5977C64.1382 10.8078 64.0922 11.0183 64.0418 11.2238C63.8842 11.1586 63.7273 11.0946 63.5697 11.0294C63.5885 10.8869 63.6067 10.7426 63.6255 10.6001C63.8119 10.6062 63.9977 10.6128 64.1848 10.5977ZM29.4522 8.65613C29.2291 8.07239 29.2492 9.11411 28.9528 8.63947C28.9891 9.40824 29.0295 10.1603 29.0677 10.9215C29.2933 10.8077 29.3446 10.5154 29.5897 10.7033C29.5611 10.4562 29.5319 10.2076 29.5041 9.959C29.4632 10.012 29.4198 10.0723 29.3803 10.1193C29.3174 9.42786 29.709 9.32469 29.453 8.65455C29.4527 8.65508 29.4524 8.65561 29.4522 8.65613ZM27.1661 8.96558C27.0461 8.8655 26.5708 8.48924 26.5059 8.80768C26.2861 9.8874 27.6271 9.2022 26.6387 10.1621C26.6432 10.3136 26.6387 10.462 26.6387 10.612C26.819 10.6651 26.9988 10.7108 27.1804 10.7532C27.1706 10.1558 27.1771 9.56602 27.1661 8.96558ZM40.375 9.59639C40.1906 9.51321 39.3115 10.0211 39.5981 10.7048C39.6824 10.905 40.0748 9.92685 40.224 9.96931C40.3206 9.99668 40.2123 10.533 40.403 10.3359C40.3946 10.0995 40.3894 9.83739 40.3745 9.59797C40.3746 9.59744 40.3748 9.59691 40.375 9.59639ZM40.7208 6.47571C40.5301 6.57124 40.3368 6.69229 40.1449 6.79388C40.285 7.40489 40.5606 7.01241 40.5768 7.8722C40.5243 7.93738 40.4724 8.0022 40.4198 8.06739C40.3797 7.8794 40.3401 7.69123 40.3005 7.50324C40.1358 7.97031 40.2356 8.20235 39.9288 8.06739C40.1143 9.36699 40.1487 10.0645 40.6741 8.74976C40.5748 9.45489 40.6682 11.7524 40.9594 10.1105C41.0139 9.80574 40.7864 9.60207 40.7838 9.55354C40.7488 8.95019 40.875 8.56514 40.8375 7.99518C40.8206 7.73738 40.6819 7.74131 40.6611 7.38343C40.6515 7.20885 40.7835 6.71073 40.7208 6.47571ZM41.1008 9.53529C41.0418 9.90074 41.2434 10.768 41.4185 10.5922C41.6916 10.3192 41.261 9.49434 41.1008 9.53529ZM64.1858 10.5969C64.1854 10.5972 64.1851 10.5975 64.1848 10.5977C64.1849 10.5969 64.1851 10.5961 64.1853 10.5954C64.1854 10.5959 64.1856 10.5964 64.1858 10.5969ZM27.7848 9.3885C27.6434 9.69917 27.4342 9.6539 27.4496 10.1478C27.3809 10.0508 27.3113 9.95528 27.2426 9.85823C27.2433 10.0067 27.2445 10.1556 27.2452 10.3026C27.4521 10.3951 27.6583 10.4879 27.8652 10.5819C27.8392 10.1846 27.8152 9.78578 27.7848 9.3885ZM25.5311 9.04255C25.2711 8.99257 25.4891 9.66463 25.432 9.98915C25.3749 10.3137 25.1433 10.0497 25.1705 10.5152C25.3236 10.5334 25.4832 10.5517 25.6382 10.5684C25.5974 10.0619 25.5688 9.54601 25.5306 9.04255C25.5307 9.04255 25.5309 9.04255 25.5311 9.04255ZM49.5559 10.059C49.3795 9.91337 49.4515 9.40056 49.1033 10.0011C49.1035 10.0011 49.1038 10.0011 49.104 10.0011C49.4354 10.421 49.862 10.7953 50.2278 10.3891C50.004 9.84804 49.8334 10.2864 49.5559 10.059ZM30.069 10.1693C30.1435 9.76291 29.7966 9.42354 29.7201 9.8011C29.5963 10.4122 29.9555 10.7864 30.069 10.1693ZM56.6803 6.45984C56.9486 5.20887 56.4402 3.80467 55.9078 4.41113C55.8618 4.4642 56.2055 4.86205 56.1037 5.1062C56.0934 5.13024 55.9047 5.10044 55.858 5.27441C55.8113 5.4488 55.8604 5.85359 55.7838 6.02344C55.6495 6.32027 55.3461 5.77026 55.2456 6.15991C55.2323 6.21213 55.4205 6.75349 55.4323 6.77405C55.6256 7.10157 55.8118 6.39392 55.8417 6.38922C55.9954 6.36496 55.9722 6.91976 56.0111 7.05017C56.0844 7.29544 56.2134 7.05023 56.2225 7.06842C56.4557 7.555 55.9227 7.41576 55.8508 7.61591C55.6569 8.15575 55.8364 8.65762 55.3714 8.96241C55.3272 8.99111 54.7987 8.95851 55.4648 9.57972C54.1569 10.8746 56.1219 10.3163 56.3353 10.0312C56.4337 9.89902 56.2848 9.37021 56.3444 9.13221C56.4806 8.5879 56.7127 8.49189 56.692 7.72462C56.6472 6.11147 56.3423 7.16847 56.1322 6.89704C56.1543 6.54673 56.1627 6.20508 56.2035 5.86236C56.1406 6.32337 56.6609 6.554 56.6803 6.46301C56.6803 6.46196 56.6803 6.4609 56.6803 6.45984ZM53.3693 8.30305C53.0756 7.81626 53.0963 8.83459 52.8272 8.25227C52.5898 9.16663 53.058 9.10527 53.1125 9.15681C53.3615 9.38728 53.3558 10.3815 53.6106 10.0756C53.523 9.48733 53.4517 8.89287 53.3693 8.30305ZM55.9247 8.72279C55.7282 9.23836 56.0798 9.22963 56.0941 9.3282C56.2493 10.374 55.1965 10.1708 55.9247 8.72279ZM39.2305 7.54767C39.1307 7.51281 39.194 8.00647 39.106 8.15229C39.0178 8.29933 38.7164 7.87686 38.7239 8.18403C38.7317 8.49187 39.2841 9.29021 38.7296 9.46308C38.7484 9.63587 38.7421 9.76477 38.7511 9.92091C38.9035 9.92546 39.0573 9.93302 39.2097 9.93757C39.1261 9.44023 39.0404 8.91702 38.9599 8.43635C39.0456 8.04055 39.0937 8.54822 39.0982 8.54822C39.0982 8.5477 39.0982 8.54717 39.0982 8.54664C39.2577 8.50681 39.4547 7.62524 39.2305 7.54767ZM47.0901 9.0973C47.1199 7.86138 46.8845 9.24168 46.7879 9.39485C46.6912 9.54747 46.5585 9.08993 46.6083 9.62178C46.7646 9.98874 47.0868 9.23523 47.0901 9.09571C47.0901 9.09624 47.0901 9.09677 47.0901 9.0973ZM51.7733 8.30543C51.527 8.60542 51.5661 8.92674 51.2648 8.56013C51.2765 8.85887 51.2882 9.16413 51.2998 9.45832C51.5391 9.46439 51.5223 8.59716 51.7992 8.94575C51.8446 9.00337 51.7474 9.69607 51.9522 9.4734C51.8926 9.1037 51.8322 8.69334 51.7733 8.30543ZM50.5528 9.4131C50.8355 9.36748 51.0598 6.9501 50.539 8.04041C50.4618 8.20338 50.3401 9.44796 50.5528 9.4131ZM41.8388 7.48658C41.3578 7.41689 41.9042 7.80699 42.0294 8.17847C40.9097 8.47562 42.1558 8.07681 42.2676 9.31233C42.4044 8.9605 42.6605 8.15589 42.376 7.94043C42.2573 7.85096 42.3006 8.21887 42.2935 8.21735C42.0749 8.12634 42.1014 7.52449 41.8388 7.48658ZM53.8798 8.24354C53.8617 8.26174 53.8901 8.67906 53.8324 8.76246C53.7746 8.84526 53.6438 8.55318 53.6308 8.80927C53.6179 9.06696 53.8803 9.26681 53.9608 9.07905C54.0412 8.8895 54.0439 8.08285 53.8798 8.24354ZM52.0339 7.21521C51.7936 7.51551 52.1866 9.0529 52.2389 9.04573C52.698 8.96535 52.0203 7.702 52.0339 7.21521ZM42.9557 4.8753C42.3759 5.65627 42.8001 7.01335 43.1633 7.82618C43.2112 7.66098 43.2604 7.49553 43.3077 7.33185C43.0898 8.33575 42.708 9.32801 43.5575 8.45301C43.0925 8.21676 43.4819 7.94706 43.4849 7.89045C43.5362 6.04643 42.8473 6.90281 42.9563 4.8753C42.9561 4.8753 42.9559 4.8753 42.9557 4.8753ZM54.6614 8.68311C54.9138 8.67697 55.5698 8.35843 55.2637 7.55481C55.0627 7.93082 54.8624 8.30711 54.6614 8.68311ZM33.4635 4.98321C33.2573 4.52372 33.0672 4.53155 32.813 4.56188C33.0419 5.23059 32.8914 5.30741 32.8143 5.47119C32.6972 5.71772 32.9808 5.69751 32.9816 5.74255C32.9764 6.3779 32.7955 6.47657 33.2072 6.46142C33.1055 6.68274 33.005 6.90575 32.9032 7.12555C33.217 7.15441 33.2909 7.56891 33.49 8.07532C33.2967 6.83794 33.5512 7.61269 33.7821 6.99701C33.8973 6.68876 33.5684 5.21821 33.4627 4.98321C33.463 4.98321 33.4633 4.98321 33.4635 4.98321ZM42.3565 4.62695C42.2969 4.84984 42.2423 5.15138 42.1845 5.40612C42.1216 5.43039 42.0586 5.45168 41.9957 5.47595C41.9879 5.27888 41.9814 5.07273 41.9724 4.88323C41.8895 4.82587 41.9218 5.10026 41.8971 5.12603C41.8971 5.12497 41.8971 5.12392 41.8971 5.12286C41.5438 5.48663 41.3991 5.44572 41.1223 4.83642C41.1223 5.44024 41.1223 6.04407 41.1223 6.64789C41.1845 6.59031 41.2474 6.53415 41.3096 6.47809C41.3427 6.15363 41.3759 5.82897 41.4089 5.50451C41.4809 5.68345 41.5523 5.86116 41.6242 6.0401C41.6819 5.92343 41.7512 5.80066 41.8011 5.68701C42.0884 7.37473 41.4355 6.22818 41.4297 6.92877C41.4258 7.37914 42.0834 7.35945 42.1781 7.04859C42.1917 7.0031 42.0496 5.74635 42.2901 6.40112C42.3277 6.50424 42.341 9.22315 42.6004 7.02161C42.6373 6.70929 42.5082 5.0202 42.3565 4.62695ZM39.969 3.75017C40.3387 5.4895 38.9743 3.65031 39.5631 5.0816C39.3951 5.88065 39.4263 5.87026 39.5955 6.57965C39.6104 6.64323 39.4935 6.86279 39.5034 6.89069C39.6616 7.28193 39.8523 7.07449 39.8536 7.78571C39.8964 7.74782 39.9366 7.7141 39.9794 7.67621C39.8012 7.00606 40.0846 6.55568 40.1942 5.99011C40.2441 5.73395 40.1293 5.65492 40.1713 5.43072C40.1869 5.34886 40.3471 5.51229 40.3537 5.27758C40.3673 4.74682 40.2667 4.02954 40.0961 3.63829C40.0961 3.63777 40.0961 3.63724 40.0961 3.63671C40.0534 3.67157 40.0118 3.71381 39.969 3.75017ZM47.8698 5.19506C47.9327 6.1565 48.1849 6.43169 47.7004 6.9018C47.7244 7.09117 47.7491 7.27896 47.7731 7.46833C47.8547 7.45165 47.9339 7.43509 48.0169 7.41993C48.2659 4.58747 48.7205 7.78395 48.4293 5.77508C48.3976 5.55671 48.2038 5.8007 48.3951 5.20776C48.3948 5.20723 48.3946 5.2067 48.3943 5.20617C48.1272 5.38816 48.0935 5.7288 47.8698 5.19506ZM46.0818 5.86554C45.4656 7.8885 46.9331 6.99429 46.688 6.45746C46.6659 6.40894 46.0338 6.84365 46.0818 5.86554ZM51.0257 4.10485C50.7495 4.06998 50.7312 5.16146 50.759 5.5545C50.7869 5.94874 50.9782 5.55035 51.0028 5.61242C51.0833 5.81715 50.9127 5.95236 51.0171 6.23291C51.0517 6.32402 51.5328 6.71314 51.5548 6.66614C51.6772 6.40507 51.4983 5.50446 51.5333 5.40136C51.6474 5.06338 51.8024 5.53188 51.8355 5.05303C51.9068 4.0313 51.6179 5.10386 51.5691 5.12127C51.4219 5.1698 51.4347 4.59461 51.3245 4.47936C51.2143 4.36434 51.1423 4.56138 51.0451 4.52062C51.0128 4.50701 51.0397 4.10849 51.0257 4.10485ZM50.1123 6.40985C50.4008 5.58361 49.6984 4.68501 49.615 4.87847C49.3699 5.45321 49.9742 6.80413 50.1123 6.40985ZM40.8945 6.37494C41.1584 5.77597 40.5437 5.29118 40.368 5.53228C40.4006 5.78118 40.8038 6.58113 40.8945 6.37494ZM43.1166 4.87847C42.874 5.065 43.1957 6.41442 43.398 6.39319C43.5166 5.50637 43.405 5.68214 43.2727 5.64575C43.1406 5.60901 43.3058 4.73318 43.1166 4.87847ZM54.0217 5.09112C53.9694 5.07704 53.126 5.81007 53.6106 6.11468C53.6475 6.13743 54.2379 6.00837 54.2827 5.87189C54.3727 5.59587 54.1566 5.13054 54.0217 5.09112ZM44.28 3.56847C44.1516 4.33561 44.0252 4.3253 44.1433 5.22601C44.1434 5.22601 44.1436 5.22601 44.1438 5.22601C43.8189 5.50186 43.8045 3.65917 43.7345 3.6986C43.4895 3.83689 43.7216 5.14844 43.5679 5.5791C43.9252 5.17426 43.8228 6.05857 44.0945 6.11468C44.1555 6.12682 44.3994 5.59872 44.4351 5.26965C44.4707 4.94043 44.3461 3.95366 44.28 3.56847ZM55.2132 4.8999C54.9285 4.60596 54.6678 5.84926 55.0627 6.04645C55.2553 6.1435 55.387 5.07884 55.2132 4.8999ZM26.7555 4.58886C26.7989 4.91485 26.8437 5.23948 26.8903 5.56243C26.7853 5.64126 26.6802 5.72172 26.5752 5.80206C26.6582 5.69894 26.7413 5.59738 26.825 5.49578C26.6278 5.38205 26.5377 4.78903 26.7549 4.58886C26.7551 4.58886 26.7553 4.58886 26.7555 4.58886ZM19.7364 4.3405C19.6482 4.0266 19.4744 4.99863 19.4964 5.07445C19.6624 5.63948 19.8588 4.77574 19.7364 4.3405ZM40.5047 3.42247C40.1768 3.28649 40.4023 4.86696 40.6032 4.97527C40.4803 4.67302 40.6908 3.49979 40.5047 3.42247ZM22.2048 4.41747C22.2342 4.55334 22.2639 4.68922 22.2969 4.82531C22.1932 4.63636 22.1752 4.50929 22.2048 4.41747ZM53.8876 3.69542C53.8376 3.57416 53.4673 3.474 53.4173 3.62401C53.3136 3.93943 53.6023 4.81201 53.7722 4.54363C53.791 4.51482 53.9374 3.81674 53.8868 3.69542C53.8871 3.69542 53.8874 3.69542 53.8876 3.69542ZM26.3119 3.98345C26.3125 3.99858 26.3121 4.01301 26.3111 4.02629C26.3115 4.0122 26.3114 3.99761 26.3119 3.98345ZM12.3668 2.37748C12.3688 2.402 12.3699 2.42633 12.3697 2.44969C12.3689 2.42675 12.3673 2.40263 12.3668 2.37748ZM51.2765 2.35368C51.1533 0.847838 50.8692 1.64877 51.0936 2.39336C51.1062 2.43249 51.2466 2.35072 51.2765 2.35368ZM177.98 0.105017C180.737 0.0716542 183.755 -0.128835 186.523 0.131996C186.863 0.163863 186.84 0.600436 186.935 0.65806C187.195 0.817062 187.352 0.302091 187.542 0.339882C188.466 0.521849 189.33 0.595931 190.236 0.76121C191.169 0.931053 190.728 2.28811 191.052 2.6187C191.685 3.26613 191.146 1.49653 191.396 1.09922C192.122 1.20537 192.855 1.39707 193.582 1.59117C193.405 1.75639 193.227 1.91811 193.047 2.07121C193.364 2.10763 193.818 2.38076 193.287 2.84325C193.405 2.97063 193.514 3.1196 193.635 3.24395C193.668 2.59952 194.229 2.54768 194.281 2.16563C194.332 1.78349 194.016 1.8713 194.018 1.83794C194.039 1.36196 195.334 2.01259 195.428 2.06566C195.675 2.20687 195.458 3.00578 195.668 2.95433C196.029 2.86638 195.789 1.24089 196.278 3.40185C196.472 2.69984 196.489 3.0644 196.736 3.11303C196.768 3.11909 196.743 2.71263 196.757 2.70201C197.13 2.40033 196.843 3.15619 196.845 3.19713C196.879 3.89269 197.279 3.58349 197.364 3.6502C198.421 4.48117 199.196 5.04374 200.312 5.23633C200.554 5.27726 201.288 4.99506 201.522 5.11334C201.752 5.23007 201.629 5.73123 201.749 5.97186C201.942 4.76624 202.127 4.63327 202.56 5.42755C202.722 4.5481 202.701 5.25751 203.01 5.0816C203.268 4.93588 203.717 3.8809 204 4.78009C203.675 4.6982 203.709 5.13022 203.343 5.39105C203.221 5.47743 201.951 5.49589 202.046 6.39478C202.095 6.86333 202.516 6.43299 202.532 6.51935C202.627 7.02282 202.392 7.64154 202.184 7.42469C202.236 7.32309 202.298 7.22002 202.354 7.11841C201.887 6.48909 202.208 8.90616 201.853 6.79389C201.809 6.53478 201.826 6.26464 201.753 5.98932C201.738 6.10319 201.827 6.38547 201.751 6.43604C201.673 6.487 201.525 5.95103 201.503 6.40271C201.47 7.05955 201.793 6.80071 201.817 6.83911C201.817 6.83515 201.817 6.83118 201.818 6.82721C202.032 7.17595 201.584 7.21573 201.563 7.2779C201.424 7.68716 201.519 8.00229 201.311 8.34034C201.192 8.53293 200.89 8.4194 200.778 8.48158C200.667 8.54531 200.84 8.85602 200.765 8.92274C200.69 8.98945 200.598 8.75336 200.51 8.8307C200.473 8.86479 200.474 9.21135 200.456 9.22346C200.262 9.35681 200.389 8.63597 200.213 8.67994C200.099 8.70918 199.715 9.38114 199.98 9.58131C199.852 9.65104 199.729 9.70209 199.602 9.75667C199.682 9.85975 199.764 9.9298 199.842 10.051C199.604 9.88597 199.497 10.479 199.347 10.5231C199.198 10.5671 199.065 9.85546 198.9 10.2026C198.55 10.9411 199.417 10.5999 199.525 10.7318C199.567 10.7837 199.406 11.3411 199.381 11.3571C199.271 11.4268 199.141 11.0282 199.056 11.046C198.751 11.1128 198.565 11.6389 198.275 11.7451C197.288 12.106 196.064 12.3987 195.129 12.5139C194.78 12.5564 194.571 11.9648 194.414 11.9815C194.049 12.021 194.004 12.5365 193.685 12.5639C193.21 12.6064 192.541 12.1563 192.145 12.0593C191.871 11.9926 191.623 12.4914 191.551 12.5036C190.56 12.6826 189.353 12.6713 188.531 12.6774C188.145 12.6804 187.961 12.1198 187.882 12.1363C187.539 12.206 187.631 12.6853 187.353 12.6369C187.202 12.6112 187.174 12.151 187.154 12.1331C186.977 11.9814 186.942 12.5823 186.804 12.602C186.009 12.7157 185.244 12.3224 184.457 12.2648C184.4 12.2602 184.405 11.9941 184.368 12.0077C184.21 12.073 184.283 12.4922 184.118 12.5227C183.773 12.5879 183.418 12.5186 183.052 12.4655C183.016 12.4603 183 12.1181 182.917 12.118C182.834 12.118 182.771 12.4424 182.641 12.4243C182.3 12.3773 181.964 11.9893 181.604 11.968C181.544 11.965 181.47 12.3772 181.381 12.3727C181.1 12.3591 180.684 11.9849 180.443 11.9712C179.65 11.9288 178.917 12.1634 178.17 12.1664C177.994 12.1662 177.838 11.7843 177.747 11.7752C177.541 11.7556 177.696 12.1165 177.487 12.118C175.782 12.1271 174.069 11.963 172.344 11.9918C171.666 12.0025 170.841 12.3758 170.186 12.2727C169.914 12.2287 169.864 11.7298 169.672 11.7252C169.328 11.7193 169.266 12.3589 168.903 12.4227C168.614 12.4727 168.283 11.8342 167.982 11.8736C167.681 11.913 167.542 12.5333 167.196 12.6076C166.911 12.6682 166.514 12.3867 166.204 12.4322C163.363 12.8507 160.566 13.1055 157.708 12.6203C156.7 12.4489 155.581 12.538 154.538 11.9284C154.441 11.8707 154.59 11.2717 154.276 11.3975C154.108 11.4658 153.872 11.9819 153.483 12.0077C151.165 12.1594 148.694 11.0554 146.338 11.2738C142.808 11.6029 139.15 15.8651 136.083 9.62812C135.933 9.32184 136.015 7.82094 136.105 7.39453C136.188 7.69928 136.266 8.06123 136.353 8.4054C136.463 6.53003 136.444 7.01833 136.853 7.18664C137.104 7.29117 136.903 6.48912 137.037 6.26147C137.211 5.96728 138.027 5.04091 137.87 6.28289C137.921 6.06757 137.967 5.86128 138.017 5.6505C138.608 5.46246 139.182 5.15151 139.759 4.79515C139.859 4.73286 139.864 4.34316 139.967 4.28099C140.244 4.11122 140.464 4.36723 140.749 4.32781C140.904 4.30658 140.926 3.85624 141.129 3.88506C141.331 3.91405 141.327 4.52197 141.604 3.86125C141.423 3.09849 142.228 3.65195 142.514 3.60497C142.555 3.5989 142.896 2.91365 143.077 2.99241C143.258 3.06974 143.534 3.5075 143.815 3.25902C143.946 3.14225 144.026 2.60859 144.168 2.57823C144.268 2.557 144.388 3.03136 144.514 3.05113C144.641 3.07084 144.914 2.68145 144.965 2.67503C145.145 2.64926 144.946 2.98276 145.07 2.99956C145.667 3.07538 146.361 3.2541 146.95 3.02971C147.022 3.0025 146.922 2.60957 146.932 2.59648C147.423 2.11437 147.161 2.62632 147.293 2.97813C147.422 3.31832 148.363 3.13275 148.37 2.44969C148.399 3.30504 148.608 2.65174 148.662 2.62663C148.873 2.52967 148.832 3.26972 149.037 3.04082C149.112 2.95745 148.966 2.45724 149.046 2.47191C149.246 2.5083 149.426 3.31189 149.692 3.39232C149.756 3.41203 149.777 3.05408 149.891 3.06621C150.005 3.07852 150.484 3.51644 150.263 2.76152C150.554 3.36649 150.612 3.03445 150.95 3.05113C151.036 3.05621 151.146 3.63307 151.328 3.45421C151.39 3.39351 151.388 2.83748 151.481 2.83293C151.693 2.82096 151.892 3.39655 152.162 3.4193C152.665 3.46326 153.201 3.05862 153.725 3.20268C153.868 3.24222 153.832 3.80125 154.04 3.81206C154.07 3.81206 154.32 3.32862 154.463 3.37407C154.549 3.40137 154.996 3.74112 155.087 3.76842C155.236 3.81217 155.262 3.2715 155.344 3.37724C155.58 3.68205 155.391 4.47791 155.675 3.38915C155.768 3.99269 155.934 3.93231 155.987 4.67534C156.084 3.86108 156.209 4.64341 156.397 4.37066C156.584 4.09769 156.738 2.5206 156.783 4.21752C156.871 4.01128 157.244 3.65931 157.307 3.63353C157.492 3.56081 157.393 4.03019 157.533 3.96678C157.557 3.95617 157.532 3.63521 157.69 3.66686C157.793 3.68809 158.554 3.70778 158.599 3.75176C159.117 4.25426 158.317 4.07008 158.205 4.41747C158.185 4.32623 158.165 4.23469 158.144 4.14452C157.915 3.99296 158.046 4.71809 158.15 4.8864C158.253 5.05468 158.447 4.73164 158.533 4.96972C158.576 5.08926 158.55 5.95863 158.42 5.85363C158.559 6.12142 158.369 6.40416 158.424 6.65582C158.484 6.93171 159.109 7.01663 159.113 6.5376C158.996 6.52092 158.851 6.53746 158.733 6.51776C158.578 5.68522 159.047 2.84206 159.477 3.97789C159.789 4.79976 159.275 5.4533 160.013 4.76342C159.899 4.73005 159.803 4.6523 159.7 4.61742C159.689 3.99306 159.857 4.67958 159.943 4.48095C159.984 4.38383 159.729 3.94172 159.951 3.7946C160.141 4.68744 160.288 3.78935 160.608 3.77873C160.519 3.93796 160.43 4.09638 160.341 4.2556C160.881 4.90311 159.626 5.11671 160.677 5.47912C160.55 5.5079 160.425 5.50024 160.298 5.54418C160.359 5.8718 160.261 6.83349 160.316 7.03668C160.46 7.57001 160.674 7.24852 160.851 7.29535C160.928 7.31506 160.88 7.57472 160.886 7.57623C160.992 7.60501 160.969 7.2244 161.062 7.20013C161.178 7.16983 161.515 7.53984 161.57 7.49768C161.711 7.39001 161.476 6.63893 161.49 6.58282C161.58 6.21903 161.764 6.52072 161.754 6.04486C161.311 6.37234 160.034 5.95192 161.189 5.16491C160.871 4.39608 160.963 3.3361 161.421 3.25267C161.8 3.18291 161.555 3.60763 161.752 4.0747C161.778 4.13317 162.285 4.35649 162.311 4.02629C162.291 4.78677 162.456 5.46021 162.345 6.24481C162.329 6.36006 162.121 6.31459 162.193 6.94543C162.23 7.26232 162.334 7.95201 162.317 8.35541C162.36 8.07491 162.405 7.75935 162.448 7.46674C162.76 7.38485 162.804 7.68703 162.975 8.21021C162.967 7.99184 162.81 7.07424 163.049 7.35327C163.061 7.36995 163.072 7.69928 163.193 7.86267C163.439 8.19018 163.49 8.29204 163.302 9.25916C163.811 8.70751 163.92 9.78542 164.442 9.47022C164.339 8.22695 164.155 8.53477 163.677 8.77436C163.656 8.47867 163.647 8.18599 163.625 7.88727C164.261 8.55748 163.947 8.4892 164.307 7.88886C164.396 7.74176 164.866 7.89916 164.709 7.06207C164.672 6.86511 164.38 6.88779 164.413 6.57727C164.42 6.51814 164.775 6.36772 164.806 6.44793C165.199 7.43816 164.497 8.12832 165.579 7.76746C165.609 7.75685 165.62 7.39491 165.678 7.34454C165.787 7.25055 165.789 7.66985 165.887 7.57306C165.985 7.47602 166.12 6.91208 166.267 7.43341C166.537 8.38272 165.902 8.9287 165.619 8.42524C165.504 9.6657 167.524 9.69302 167.65 9.58686C168.196 9.12443 167.287 9.39138 167.24 9.04731C167.22 8.90174 167.23 7.05649 167 8.25385C166.932 8.60867 167.216 9.07621 167.046 9.27186C166.877 9.46748 166.944 8.92415 166.932 8.88624C166.889 8.7563 166.709 8.95774 166.685 8.88068C166.325 7.71149 166.358 5.94474 166.836 8.55457C167.044 7.96467 166.566 7.02443 166.825 6.62408C167.139 6.1375 167.369 6.97894 167.408 7.01685C167.882 7.46553 167.336 6.23719 167.915 6.62964C168.237 6.84801 167.432 7.44712 168.168 7.36676C168.784 7.29852 168.452 6.87091 168.496 5.89886C168.507 5.67143 168.845 5.39255 168.385 5.49261C168.372 5.74581 168.347 6.07952 168.318 6.31305C168.206 6.12818 168.018 4.86089 167.958 4.81658C167.665 4.60581 167.679 5.26358 167.507 4.48888C167.63 5.33638 167.43 4.8257 167.354 5.00463C167.075 5.66411 167.441 5.90929 166.814 5.06176C166.896 5.45907 166.97 5.84901 167.049 6.24481C166.974 6.25845 166.899 6.27243 166.823 6.28607C166.711 5.4111 166.312 5.52299 166.673 4.64202C166.238 4.39185 166.062 4.58259 165.967 5.2633C165.949 5.39325 165.884 5.44519 165.807 5.4577C165.821 5.64911 165.84 6.24051 165.828 6.31305C165.719 6.95092 165.552 5.84896 165.609 5.42834C165.555 5.40821 165.513 5.3846 165.498 5.37438C165.402 5.30905 165.589 4.92872 165.512 4.79833C165.486 4.75596 165.218 4.83871 165.213 4.68407C165.181 3.69278 165.622 4.40798 164.736 3.8319C164.714 4.73419 165.126 4.53579 165.02 5.4942C164.907 6.52378 164.675 5.14269 164.625 6.40588C164.606 6.1982 164.598 6.02501 164.581 5.78857C164.223 6.33895 164.218 5.28688 164.108 5.05462C163.896 4.6012 162.918 4.66929 163.796 5.58068C163.667 5.67167 163.536 5.71375 163.409 5.79412C163.379 3.90806 163.457 4.65875 162.842 4.37066C162.706 4.30697 162.662 3.47746 162.529 4.4627C162.547 3.49625 162.146 4.0801 162.109 3.96282C161.869 3.20009 162.76 2.13837 162.874 3.84697C163.025 3.18174 163.024 4.06113 163.192 3.94457C163.435 3.77624 163.468 3.60498 163.756 4.25402C164.04 3.33959 162.647 3.8517 163.491 2.63853C164.336 1.42546 169.254 0.748789 170.401 0.56681C172.48 0.237741 173.573 0.0226576 175.44 0.0772457C175.624 0.0817947 177.014 -0.00588249 176.725 1.05082C176.684 1.20246 176.086 1.60435 176.599 2.43382C176.495 1.94407 176.796 1.62606 176.821 1.5745C177.402 0.403833 177.066 0.117148 177.98 0.105017ZM180.689 9.52974C179.496 9.28864 180.372 9.99506 180.124 11.5904C180.277 11.5949 180.43 11.5993 180.583 11.6038C180.543 11.5038 180.503 11.404 180.463 11.3039C180.463 11.3039 180.463 11.3039 180.462 11.3039C180.538 10.7126 180.613 10.1211 180.689 9.52974ZM200.185 10.5977C200.138 10.8078 200.092 11.0183 200.042 11.2238C199.884 11.1586 199.727 11.0946 199.57 11.0294C199.589 10.8869 199.607 10.7426 199.625 10.6001C199.812 10.6062 199.998 10.6128 200.185 10.5977ZM165.452 8.65613C165.229 8.07239 165.249 9.11411 164.953 8.63947C164.989 9.40824 165.029 10.1603 165.068 10.9215C165.293 10.8077 165.345 10.5154 165.59 10.7033C165.561 10.4562 165.532 10.2076 165.504 9.959C165.463 10.012 165.42 10.0723 165.38 10.1193C165.317 9.42786 165.709 9.32469 165.453 8.65455C165.453 8.65508 165.452 8.65561 165.452 8.65613ZM163.166 8.96558C163.046 8.8655 162.571 8.48924 162.506 8.80768C162.286 9.8874 163.627 9.2022 162.639 10.1621C162.643 10.3136 162.639 10.462 162.639 10.612C162.819 10.6651 162.999 10.7108 163.18 10.7532C163.171 10.1558 163.177 9.56602 163.166 8.96558ZM176.375 9.59639C176.191 9.51321 175.312 10.0211 175.598 10.7048C175.682 10.905 176.075 9.92685 176.224 9.96931C176.321 9.99668 176.212 10.533 176.403 10.3359C176.395 10.0995 176.389 9.83739 176.374 9.59797C176.375 9.59744 176.375 9.59691 176.375 9.59639ZM176.721 6.47571C176.53 6.57124 176.337 6.69229 176.145 6.79388C176.285 7.40489 176.561 7.01241 176.577 7.8722C176.524 7.93738 176.472 8.0022 176.42 8.06739C176.38 7.8794 176.34 7.69123 176.301 7.50324C176.136 7.97031 176.236 8.20235 175.929 8.06739C176.114 9.36699 176.149 10.0645 176.674 8.74976C176.575 9.45489 176.668 11.7524 176.959 10.1105C177.014 9.80574 176.786 9.60207 176.784 9.55354C176.749 8.95019 176.875 8.56514 176.837 7.99518C176.821 7.73738 176.682 7.74131 176.661 7.38343C176.652 7.20885 176.784 6.71073 176.721 6.47571ZM177.101 9.53529C177.042 9.90074 177.243 10.768 177.419 10.5922C177.692 10.3192 177.261 9.49434 177.101 9.53529ZM200.186 10.5969C200.185 10.5972 200.185 10.5975 200.185 10.5977C200.185 10.5969 200.185 10.5961 200.185 10.5954C200.185 10.5959 200.186 10.5964 200.186 10.5969ZM163.785 9.3885C163.643 9.69917 163.434 9.6539 163.45 10.1478C163.381 10.0508 163.311 9.95528 163.243 9.85823C163.243 10.0067 163.245 10.1556 163.245 10.3026C163.452 10.3951 163.658 10.4879 163.865 10.5819C163.839 10.1846 163.815 9.78578 163.785 9.3885ZM161.531 9.04255C161.271 8.99257 161.489 9.66463 161.432 9.98915C161.375 10.3137 161.143 10.0497 161.171 10.5152C161.324 10.5334 161.483 10.5517 161.638 10.5684C161.597 10.0619 161.569 9.54601 161.531 9.04255C161.531 9.04255 161.531 9.04255 161.531 9.04255ZM185.556 10.059C185.38 9.91337 185.452 9.40056 185.103 10.0011C185.104 10.0011 185.104 10.0011 185.104 10.0011C185.435 10.421 185.862 10.7953 186.228 10.3891C186.004 9.84804 185.833 10.2864 185.556 10.059ZM166.069 10.1693C166.144 9.76291 165.797 9.42354 165.72 9.8011C165.596 10.4122 165.956 10.7864 166.069 10.1693ZM192.68 6.45984C192.949 5.20887 192.44 3.80467 191.908 4.41113C191.862 4.4642 192.205 4.86205 192.104 5.1062C192.093 5.13024 191.905 5.10044 191.858 5.27441C191.811 5.4488 191.86 5.85359 191.784 6.02344C191.65 6.32027 191.346 5.77026 191.246 6.15991C191.232 6.21213 191.421 6.75349 191.432 6.77405C191.626 7.10157 191.812 6.39392 191.842 6.38922C191.995 6.36496 191.972 6.91976 192.011 7.05017C192.084 7.29544 192.213 7.05023 192.222 7.06842C192.456 7.555 191.923 7.41576 191.851 7.61591C191.657 8.15575 191.836 8.65762 191.371 8.96241C191.327 8.99111 190.799 8.95851 191.465 9.57972C190.157 10.8746 192.122 10.3163 192.335 10.0312C192.434 9.89902 192.285 9.37021 192.344 9.13221C192.481 8.5879 192.713 8.49189 192.692 7.72462C192.647 6.11147 192.342 7.16847 192.132 6.89704C192.154 6.54673 192.163 6.20508 192.204 5.86236C192.141 6.32337 192.661 6.554 192.68 6.46301C192.68 6.46196 192.68 6.4609 192.68 6.45984ZM189.369 8.30305C189.076 7.81626 189.096 8.83459 188.827 8.25227C188.59 9.16663 189.058 9.10527 189.113 9.15681C189.362 9.38728 189.356 10.3815 189.611 10.0756C189.523 9.48733 189.452 8.89287 189.369 8.30305ZM191.925 8.72279C191.728 9.23836 192.08 9.22963 192.094 9.3282C192.249 10.374 191.197 10.1708 191.925 8.72279ZM175.231 7.54767C175.131 7.51281 175.194 8.00647 175.106 8.15229C175.018 8.29933 174.716 7.87686 174.724 8.18403C174.732 8.49187 175.284 9.29021 174.73 9.46308C174.748 9.63587 174.742 9.76477 174.751 9.92091C174.904 9.92546 175.057 9.93302 175.21 9.93757C175.126 9.44023 175.04 8.91702 174.96 8.43635C175.046 8.04055 175.094 8.54822 175.098 8.54822C175.098 8.5477 175.098 8.54717 175.098 8.54664C175.258 8.50681 175.455 7.62524 175.231 7.54767ZM183.09 9.0973C183.12 7.86138 182.884 9.24168 182.788 9.39485C182.691 9.54747 182.558 9.08993 182.608 9.62178C182.765 9.98874 183.087 9.23523 183.09 9.09571C183.09 9.09624 183.09 9.09677 183.09 9.0973ZM187.773 8.30543C187.527 8.60542 187.566 8.92674 187.265 8.56013C187.277 8.85887 187.288 9.16413 187.3 9.45832C187.539 9.46439 187.522 8.59716 187.799 8.94575C187.845 9.00337 187.747 9.69607 187.952 9.4734C187.893 9.1037 187.832 8.69334 187.773 8.30543ZM186.553 9.4131C186.836 9.36748 187.06 6.9501 186.539 8.04041C186.462 8.20338 186.34 9.44796 186.553 9.4131ZM177.839 7.48658C177.358 7.41689 177.904 7.80699 178.029 8.17847C176.91 8.47562 178.156 8.07681 178.268 9.31233C178.404 8.9605 178.66 8.15589 178.376 7.94043C178.257 7.85096 178.301 8.21887 178.293 8.21735C178.075 8.12634 178.101 7.52449 177.839 7.48658ZM189.88 8.24354C189.862 8.26174 189.89 8.67906 189.832 8.76246C189.775 8.84526 189.644 8.55318 189.631 8.80927C189.618 9.06696 189.88 9.26681 189.961 9.07905C190.041 8.8895 190.044 8.08285 189.88 8.24354ZM188.034 7.21521C187.794 7.51551 188.187 9.0529 188.239 9.04573C188.698 8.96535 188.02 7.702 188.034 7.21521ZM178.956 4.8753C178.376 5.65627 178.8 7.01335 179.163 7.82618C179.211 7.66098 179.26 7.49553 179.308 7.33185C179.09 8.33575 178.708 9.32801 179.558 8.45301C179.093 8.21676 179.482 7.94706 179.485 7.89045C179.536 6.04643 178.847 6.90281 178.956 4.8753C178.956 4.8753 178.956 4.8753 178.956 4.8753ZM190.661 8.68311C190.914 8.67697 191.57 8.35843 191.264 7.55481C191.063 7.93082 190.862 8.30711 190.661 8.68311ZM169.464 4.98321C169.257 4.52372 169.067 4.53155 168.813 4.56188C169.042 5.23059 168.891 5.30741 168.814 5.47119C168.697 5.71772 168.981 5.69751 168.982 5.74255C168.976 6.3779 168.796 6.47657 169.207 6.46142C169.105 6.68274 169.005 6.90575 168.903 7.12555C169.217 7.15441 169.291 7.56891 169.49 8.07532C169.297 6.83794 169.551 7.61269 169.782 6.99701C169.897 6.68876 169.568 5.21821 169.463 4.98321C169.463 4.98321 169.463 4.98321 169.464 4.98321ZM178.357 4.62695C178.297 4.84984 178.242 5.15138 178.185 5.40612C178.122 5.43039 178.059 5.45168 177.996 5.47595C177.988 5.27888 177.981 5.07273 177.972 4.88323C177.889 4.82587 177.922 5.10026 177.897 5.12603C177.897 5.12497 177.897 5.12392 177.897 5.12286C177.544 5.48663 177.399 5.44572 177.122 4.83642C177.122 5.44024 177.122 6.04407 177.122 6.64789C177.185 6.59031 177.247 6.53415 177.31 6.47809C177.343 6.15363 177.376 5.82897 177.409 5.50451C177.481 5.68345 177.552 5.86116 177.624 6.0401C177.682 5.92343 177.751 5.80066 177.801 5.68701C178.088 7.37473 177.436 6.22818 177.43 6.92877C177.426 7.37914 178.083 7.35945 178.178 7.04859C178.192 7.0031 178.05 5.74635 178.29 6.40112C178.328 6.50424 178.341 9.22315 178.6 7.02161C178.637 6.70929 178.508 5.0202 178.357 4.62695ZM175.969 3.75017C176.339 5.4895 174.974 3.65031 175.563 5.0816C175.395 5.88065 175.426 5.87026 175.595 6.57965C175.61 6.64323 175.493 6.86279 175.503 6.89069C175.662 7.28193 175.852 7.07449 175.854 7.78571C175.896 7.74782 175.937 7.7141 175.979 7.67621C175.801 7.00606 176.085 6.55568 176.194 5.99011C176.244 5.73395 176.129 5.65492 176.171 5.43072C176.187 5.34886 176.347 5.51229 176.354 5.27758C176.367 4.74682 176.267 4.02954 176.096 3.63829C176.096 3.63777 176.096 3.63724 176.096 3.63671C176.053 3.67157 176.012 3.71381 175.969 3.75017ZM183.87 5.19506C183.933 6.1565 184.185 6.43169 183.7 6.9018C183.724 7.09117 183.749 7.27896 183.773 7.46833C183.855 7.45165 183.934 7.43509 184.017 7.41993C184.266 4.58747 184.72 7.78395 184.429 5.77508C184.398 5.55671 184.204 5.8007 184.395 5.20776C184.395 5.20723 184.395 5.2067 184.394 5.20617C184.127 5.38816 184.094 5.7288 183.87 5.19506ZM182.082 5.86554C181.466 7.8885 182.933 6.99429 182.688 6.45746C182.666 6.40894 182.034 6.84365 182.082 5.86554ZM187.026 4.10485C186.749 4.06998 186.731 5.16146 186.759 5.5545C186.787 5.94874 186.978 5.55035 187.003 5.61242C187.083 5.81715 186.913 5.95236 187.017 6.23291C187.052 6.32402 187.533 6.71314 187.555 6.66614C187.677 6.40507 187.498 5.50446 187.533 5.40136C187.647 5.06338 187.802 5.53188 187.836 5.05303C187.907 4.0313 187.618 5.10386 187.569 5.12127C187.422 5.1698 187.435 4.59461 187.324 4.47936C187.214 4.36434 187.142 4.56138 187.045 4.52062C187.013 4.50701 187.04 4.10849 187.026 4.10485ZM186.112 6.40985C186.401 5.58361 185.698 4.68501 185.615 4.87847C185.37 5.45321 185.974 6.80413 186.112 6.40985ZM176.895 6.37494C177.158 5.77597 176.544 5.29118 176.368 5.53228C176.401 5.78118 176.804 6.58113 176.895 6.37494ZM179.117 4.87847C178.874 5.065 179.196 6.41442 179.398 6.39319C179.517 5.50637 179.405 5.68214 179.273 5.64575C179.141 5.60901 179.306 4.73318 179.117 4.87847ZM190.022 5.09112C189.969 5.07704 189.126 5.81007 189.611 6.11468C189.648 6.13743 190.238 6.00837 190.283 5.87189C190.373 5.59587 190.157 5.13054 190.022 5.09112ZM180.28 3.56847C180.152 4.33561 180.025 4.3253 180.143 5.22601C180.143 5.22601 180.144 5.22601 180.144 5.22601C179.819 5.50186 179.804 3.65917 179.734 3.6986C179.489 3.83689 179.722 5.14844 179.568 5.5791C179.925 5.17426 179.823 6.05857 180.095 6.11468C180.155 6.12682 180.399 5.59872 180.435 5.26965C180.471 4.94043 180.346 3.95366 180.28 3.56847ZM191.213 4.8999C190.928 4.60596 190.668 5.84926 191.063 6.04645C191.255 6.1435 191.387 5.07884 191.213 4.8999ZM162.755 4.58886C162.799 4.91485 162.844 5.23948 162.89 5.56243C162.785 5.64126 162.68 5.72172 162.575 5.80206C162.658 5.69894 162.741 5.59738 162.825 5.49578C162.628 5.38205 162.538 4.78903 162.755 4.58886C162.755 4.58886 162.755 4.58886 162.755 4.58886ZM155.736 4.3405C155.648 4.0266 155.474 4.99863 155.496 5.07445C155.662 5.63948 155.859 4.77574 155.736 4.3405ZM176.505 3.42247C176.177 3.28649 176.402 4.86696 176.603 4.97527C176.48 4.67302 176.691 3.49979 176.505 3.42247ZM158.205 4.41747C158.234 4.55334 158.264 4.68922 158.297 4.82531C158.193 4.63636 158.175 4.50929 158.205 4.41747ZM189.888 3.69542C189.838 3.57416 189.467 3.474 189.417 3.62401C189.314 3.93943 189.602 4.81201 189.772 4.54363C189.791 4.51482 189.937 3.81674 189.887 3.69542C189.887 3.69542 189.887 3.69542 189.888 3.69542ZM162.312 3.98345C162.312 3.99858 162.312 4.01301 162.311 4.02629C162.311 4.0122 162.311 3.99761 162.312 3.98345ZM148.367 2.37748C148.369 2.402 148.37 2.42633 148.37 2.44969C148.369 2.42675 148.367 2.40263 148.367 2.37748ZM187.277 2.35368C187.153 0.847838 186.869 1.64877 187.094 2.39336C187.106 2.43249 187.247 2.35072 187.277 2.35368Z" fill="#286196"/>
</svg>
